ISO-10303-21;
HEADER;
FILE_DESCRIPTION(('FreeCAD Model'),'2;1');
FILE_NAME('Open CASCADE Shape Model','2026-09-12T17:54:28',('FreeCAD'),(
    'FreeCAD'),'Open CASCADE STEP processor 7.8','FreeCAD','Unknown');
FILE_SCHEMA(('AUTOMOTIVE_DESIGN { 1 0 10303 214 1 1 1 1 }'));
ENDSEC;
DATA;
#1 = APPLICATION_PROTOCOL_DEFINITION('international standard',
  'automotive_design',2000,#2);
#2 = APPLICATION_CONTEXT(
  'core data for automotive mechanical design processes');
#3 = SHAPE_DEFINITION_REPRESENTATION(#4,#10);
#4 = PRODUCT_DEFINITION_SHAPE('','',#5);
#5 = PRODUCT_DEFINITION('design','',#6,#9);
#6 = PRODUCT_DEFINITION_FORMATION('','',#7);
#7 = PRODUCT('Open CASCADE STEP translator 7.8 301',
  'Open CASCADE STEP translator 7.8 301','',(#8));
#8 = PRODUCT_CONTEXT('',#2,'mechanical');
#9 = PRODUCT_DEFINITION_CONTEXT('part definition',#2,'design');
#10 = ADVANCED_BREP_SHAPE_REPRESENTATION('',(#11,#15),#851);
#11 = AXIS2_PLACEMENT_3D('',#12,#13,#14);
#12 = CARTESIAN_POINT('',(0.,0.,0.));
#13 = DIRECTION('',(0.,0.,1.));
#14 = DIRECTION('',(1.,0.,-0.));
#15 = MANIFOLD_SOLID_BREP('',#16);
#16 = CLOSED_SHELL('',(#17,#65,#96,#152,#235,#260,#330,#348,#379,#411,
    #435,#460,#477,#489,#521,#545,#570,#587,#618,#649,#713,#744,#768,
    #792,#809,#821,#836));
#17 = ADVANCED_FACE('',(#18),#60,.F.);
#18 = FACE_BOUND('',#19,.F.);
#19 = EDGE_LOOP('',(#20,#30,#38,#46,#54));
#20 = ORIENTED_EDGE('',*,*,#21,.F.);
#21 = EDGE_CURVE('',#22,#24,#26,.T.);
#22 = VERTEX_POINT('',#23);
#23 = CARTESIAN_POINT('',(-37.7,-7.436798383794,-1.3));
#24 = VERTEX_POINT('',#25);
#25 = CARTESIAN_POINT('',(-37.7,-1.3,-1.3));
#26 = LINE('',#27,#28);
#27 = CARTESIAN_POINT('',(-37.7,-21.7,-1.3));
#28 = VECTOR('',#29,1.);
#29 = DIRECTION('',(0.,1.,0.));
#30 = ORIENTED_EDGE('',*,*,#31,.F.);
#31 = EDGE_CURVE('',#32,#22,#34,.T.);
#32 = VERTEX_POINT('',#33);
#33 = CARTESIAN_POINT('',(-37.7,-8.,-1.90074839062));
#34 = LINE('',#35,#36);
#35 = CARTESIAN_POINT('',(-37.7,33.190224351228,42.035490917357));
#36 = VECTOR('',#37,1.);
#37 = DIRECTION('',(0.,0.683941128881,0.72953720414));
#38 = ORIENTED_EDGE('',*,*,#39,.F.);
#39 = EDGE_CURVE('',#40,#32,#42,.T.);
#40 = VERTEX_POINT('',#41);
#41 = CARTESIAN_POINT('',(-37.7,-8.,-25.91));
#42 = LINE('',#43,#44);
#43 = CARTESIAN_POINT('',(-37.7,-8.,-100.));
#44 = VECTOR('',#45,1.);
#45 = DIRECTION('',(0.,0.,1.));
#46 = ORIENTED_EDGE('',*,*,#47,.F.);
#47 = EDGE_CURVE('',#48,#40,#50,.T.);
#48 = VERTEX_POINT('',#49);
#49 = CARTESIAN_POINT('',(-37.7,-1.3,-25.91));
#50 = LINE('',#51,#52);
#51 = CARTESIAN_POINT('',(-37.7,-60.85,-25.91));
#52 = VECTOR('',#53,1.);
#53 = DIRECTION('',(0.,-1.,0.));
#54 = ORIENTED_EDGE('',*,*,#55,.T.);
#55 = EDGE_CURVE('',#48,#24,#56,.T.);
#56 = LINE('',#57,#58);
#57 = CARTESIAN_POINT('',(-37.7,-1.3,-100.));
#58 = VECTOR('',#59,1.);
#59 = DIRECTION('',(0.,0.,1.));
#60 = PLANE('',#61);
#61 = AXIS2_PLACEMENT_3D('',#62,#63,#64);
#62 = CARTESIAN_POINT('',(-37.7,-21.7,-100.));
#63 = DIRECTION('',(1.,0.,0.));
#64 = DIRECTION('',(0.,0.,1.));
#65 = ADVANCED_FACE('',(#66),#91,.T.);
#66 = FACE_BOUND('',#67,.T.);
#67 = EDGE_LOOP('',(#68,#69,#77,#85));
#68 = ORIENTED_EDGE('',*,*,#21,.F.);
#69 = ORIENTED_EDGE('',*,*,#70,.F.);
#70 = EDGE_CURVE('',#71,#22,#73,.T.);
#71 = VERTEX_POINT('',#72);
#72 = CARTESIAN_POINT('',(37.7,-7.436798383794,-1.3));
#73 = LINE('',#74,#75);
#74 = CARTESIAN_POINT('',(-118.85,-7.436798383794,-1.3));
#75 = VECTOR('',#76,1.);
#76 = DIRECTION('',(-1.,0.,0.));
#77 = ORIENTED_EDGE('',*,*,#78,.T.);
#78 = EDGE_CURVE('',#71,#79,#81,.T.);
#79 = VERTEX_POINT('',#80);
#80 = CARTESIAN_POINT('',(37.7,-1.3,-1.3));
#81 = LINE('',#82,#83);
#82 = CARTESIAN_POINT('',(37.7,-21.7,-1.3));
#83 = VECTOR('',#84,1.);
#84 = DIRECTION('',(0.,1.,0.));
#85 = ORIENTED_EDGE('',*,*,#86,.F.);
#86 = EDGE_CURVE('',#24,#79,#87,.T.);
#87 = LINE('',#88,#89);
#88 = CARTESIAN_POINT('',(-37.7,-1.3,-1.3));
#89 = VECTOR('',#90,1.);
#90 = DIRECTION('',(1.,0.,0.));
#91 = PLANE('',#92);
#92 = AXIS2_PLACEMENT_3D('',#93,#94,#95);
#93 = CARTESIAN_POINT('',(-37.7,-21.7,-1.3));
#94 = DIRECTION('',(0.,0.,1.));
#95 = DIRECTION('',(1.,0.,0.));
#96 = ADVANCED_FACE('',(#97),#147,.T.);
#97 = FACE_BOUND('',#98,.T.);
#98 = EDGE_LOOP('',(#99,#107,#115,#123,#131,#139,#145,#146));
#99 = ORIENTED_EDGE('',*,*,#100,.F.);
#100 = EDGE_CURVE('',#101,#79,#103,.T.);
#101 = VERTEX_POINT('',#102);
#102 = CARTESIAN_POINT('',(37.7,-1.3,-25.91));
#103 = LINE('',#104,#105);
#104 = CARTESIAN_POINT('',(37.7,-1.3,-100.));
#105 = VECTOR('',#106,1.);
#106 = DIRECTION('',(0.,0.,1.));
#107 = ORIENTED_EDGE('',*,*,#108,.F.);
#108 = EDGE_CURVE('',#109,#101,#111,.T.);
#109 = VERTEX_POINT('',#110);
#110 = CARTESIAN_POINT('',(36.8,-1.3,-25.91));
#111 = LINE('',#112,#113);
#112 = CARTESIAN_POINT('',(-68.85,-1.3,-25.91));
#113 = VECTOR('',#114,1.);
#114 = DIRECTION('',(1.,0.,0.));
#115 = ORIENTED_EDGE('',*,*,#116,.F.);
#116 = EDGE_CURVE('',#117,#109,#119,.T.);
#117 = VERTEX_POINT('',#118);
#118 = CARTESIAN_POINT('',(36.8,-1.3,-19.));
#119 = LINE('',#120,#121);
#120 = CARTESIAN_POINT('',(36.8,-1.3,-70.));
#121 = VECTOR('',#122,1.);
#122 = DIRECTION('',(0.,0.,-1.));
#123 = ORIENTED_EDGE('',*,*,#124,.F.);
#124 = EDGE_CURVE('',#125,#117,#127,.T.);
#125 = VERTEX_POINT('',#126);
#126 = CARTESIAN_POINT('',(-36.8,-1.3,-19.));
#127 = LINE('',#128,#129);
#128 = CARTESIAN_POINT('',(-37.25,-1.3,-19.));
#129 = VECTOR('',#130,1.);
#130 = DIRECTION('',(1.,0.,0.));
#131 = ORIENTED_EDGE('',*,*,#132,.T.);
#132 = EDGE_CURVE('',#125,#133,#135,.T.);
#133 = VERTEX_POINT('',#134);
#134 = CARTESIAN_POINT('',(-36.8,-1.3,-25.91));
#135 = LINE('',#136,#137);
#136 = CARTESIAN_POINT('',(-36.8,-1.3,-70.));
#137 = VECTOR('',#138,1.);
#138 = DIRECTION('',(0.,0.,-1.));
#139 = ORIENTED_EDGE('',*,*,#140,.F.);
#140 = EDGE_CURVE('',#48,#133,#141,.T.);
#141 = LINE('',#142,#143);
#142 = CARTESIAN_POINT('',(-68.85,-1.3,-25.91));
#143 = VECTOR('',#144,1.);
#144 = DIRECTION('',(1.,0.,0.));
#145 = ORIENTED_EDGE('',*,*,#55,.T.);
#146 = ORIENTED_EDGE('',*,*,#86,.T.);
#147 = PLANE('',#148);
#148 = AXIS2_PLACEMENT_3D('',#149,#150,#151);
#149 = CARTESIAN_POINT('',(-37.7,-1.3,-100.));
#150 = DIRECTION('',(0.,1.,0.));
#151 = DIRECTION('',(0.,0.,1.));
#152 = ADVANCED_FACE('',(#153),#230,.F.);
#153 = FACE_BOUND('',#154,.F.);
#154 = EDGE_LOOP('',(#155,#156,#157,#166,#174,#183,#189,#190,#198,#207,
    #215,#224));
#155 = ORIENTED_EDGE('',*,*,#140,.F.);
#156 = ORIENTED_EDGE('',*,*,#47,.T.);
#157 = ORIENTED_EDGE('',*,*,#158,.T.);
#158 = EDGE_CURVE('',#40,#159,#161,.T.);
#159 = VERTEX_POINT('',#160);
#160 = CARTESIAN_POINT('',(-24.,-21.7,-25.91));
#161 = CIRCLE('',#162,13.7);
#162 = AXIS2_PLACEMENT_3D('',#163,#164,#165);
#163 = CARTESIAN_POINT('',(-24.,-8.,-25.91));
#164 = DIRECTION('',(0.,0.,1.));
#165 = DIRECTION('',(-1.,0.,0.));
#166 = ORIENTED_EDGE('',*,*,#167,.T.);
#167 = EDGE_CURVE('',#159,#168,#170,.T.);
#168 = VERTEX_POINT('',#169);
#169 = CARTESIAN_POINT('',(24.,-21.7,-25.91));
#170 = LINE('',#171,#172);
#171 = CARTESIAN_POINT('',(-68.85,-21.7,-25.91));
#172 = VECTOR('',#173,1.);
#173 = DIRECTION('',(1.,0.,0.));
#174 = ORIENTED_EDGE('',*,*,#175,.T.);
#175 = EDGE_CURVE('',#168,#176,#178,.T.);
#176 = VERTEX_POINT('',#177);
#177 = CARTESIAN_POINT('',(37.7,-8.,-25.91));
#178 = CIRCLE('',#179,13.7);
#179 = AXIS2_PLACEMENT_3D('',#180,#181,#182);
#180 = CARTESIAN_POINT('',(24.,-8.,-25.91));
#181 = DIRECTION('',(0.,0.,1.));
#182 = DIRECTION('',(1.,0.,0.));
#183 = ORIENTED_EDGE('',*,*,#184,.F.);
#184 = EDGE_CURVE('',#101,#176,#185,.T.);
#185 = LINE('',#186,#187);
#186 = CARTESIAN_POINT('',(37.7,-60.85,-25.91));
#187 = VECTOR('',#188,1.);
#188 = DIRECTION('',(0.,-1.,0.));
#189 = ORIENTED_EDGE('',*,*,#108,.F.);
#190 = ORIENTED_EDGE('',*,*,#191,.T.);
#191 = EDGE_CURVE('',#109,#192,#194,.T.);
#192 = VERTEX_POINT('',#193);
#193 = CARTESIAN_POINT('',(36.8,-8.,-25.91));
#194 = LINE('',#195,#196);
#195 = CARTESIAN_POINT('',(36.8,-60.4,-25.91));
#196 = VECTOR('',#197,1.);
#197 = DIRECTION('',(0.,-1.,0.));
#198 = ORIENTED_EDGE('',*,*,#199,.F.);
#199 = EDGE_CURVE('',#200,#192,#202,.T.);
#200 = VERTEX_POINT('',#201);
#201 = CARTESIAN_POINT('',(24.,-20.8,-25.91));
#202 = CIRCLE('',#203,12.8);
#203 = AXIS2_PLACEMENT_3D('',#204,#205,#206);
#204 = CARTESIAN_POINT('',(24.,-8.,-25.91));
#205 = DIRECTION('',(0.,0.,1.));
#206 = DIRECTION('',(1.,0.,0.));
#207 = ORIENTED_EDGE('',*,*,#208,.F.);
#208 = EDGE_CURVE('',#209,#200,#211,.T.);
#209 = VERTEX_POINT('',#210);
#210 = CARTESIAN_POINT('',(-24.,-20.8,-25.91));
#211 = LINE('',#212,#213);
#212 = CARTESIAN_POINT('',(-68.4,-20.8,-25.91));
#213 = VECTOR('',#214,1.);
#214 = DIRECTION('',(1.,0.,0.));
#215 = ORIENTED_EDGE('',*,*,#216,.F.);
#216 = EDGE_CURVE('',#217,#209,#219,.T.);
#217 = VERTEX_POINT('',#218);
#218 = CARTESIAN_POINT('',(-36.8,-8.,-25.91));
#219 = CIRCLE('',#220,12.8);
#220 = AXIS2_PLACEMENT_3D('',#221,#222,#223);
#221 = CARTESIAN_POINT('',(-24.,-8.,-25.91));
#222 = DIRECTION('',(0.,0.,1.));
#223 = DIRECTION('',(-1.,0.,0.));
#224 = ORIENTED_EDGE('',*,*,#225,.T.);
#225 = EDGE_CURVE('',#217,#133,#226,.T.);
#226 = LINE('',#227,#228);
#227 = CARTESIAN_POINT('',(-36.8,-51.6,-25.91));
#228 = VECTOR('',#229,1.);
#229 = DIRECTION('',(0.,1.,0.));
#230 = PLANE('',#231);
#231 = AXIS2_PLACEMENT_3D('',#232,#233,#234);
#232 = CARTESIAN_POINT('',(-100.,-100.,-25.91));
#233 = DIRECTION('',(0.,0.,1.));
#234 = DIRECTION('',(1.,0.,0.));
#235 = ADVANCED_FACE('',(#236),#255,.T.);
#236 = FACE_BOUND('',#237,.T.);
#237 = EDGE_LOOP('',(#238,#239,#240,#248));
#238 = ORIENTED_EDGE('',*,*,#39,.F.);
#239 = ORIENTED_EDGE('',*,*,#158,.T.);
#240 = ORIENTED_EDGE('',*,*,#241,.T.);
#241 = EDGE_CURVE('',#159,#242,#244,.T.);
#242 = VERTEX_POINT('',#243);
#243 = CARTESIAN_POINT('',(-24.,-21.7,-16.51408172395));
#244 = LINE('',#245,#246);
#245 = CARTESIAN_POINT('',(-24.,-21.7,-100.));
#246 = VECTOR('',#247,1.);
#247 = DIRECTION('',(0.,0.,1.));
#248 = ORIENTED_EDGE('',*,*,#249,.T.);
#249 = EDGE_CURVE('',#242,#32,#250,.T.);
#250 = ELLIPSE('',#251,20.030963808841,13.7);
#251 = AXIS2_PLACEMENT_3D('',#252,#253,#254);
#252 = CARTESIAN_POINT('',(-24.,-8.,-1.90074839062));
#253 = DIRECTION('',(0.,0.72953720414,-0.683941128881));
#254 = DIRECTION('',(0.,0.683941128881,0.72953720414));
#255 = CYLINDRICAL_SURFACE('',#256,13.7);
#256 = AXIS2_PLACEMENT_3D('',#257,#258,#259);
#257 = CARTESIAN_POINT('',(-24.,-8.,-100.));
#258 = DIRECTION('',(0.,0.,1.));
#259 = DIRECTION('',(-1.,0.,0.));
#260 = ADVANCED_FACE('',(#261,#289),#325,.F.);
#261 = FACE_BOUND('',#262,.F.);
#262 = EDGE_LOOP('',(#263,#264,#265,#266,#274,#283));
#263 = ORIENTED_EDGE('',*,*,#249,.T.);
#264 = ORIENTED_EDGE('',*,*,#31,.T.);
#265 = ORIENTED_EDGE('',*,*,#70,.F.);
#266 = ORIENTED_EDGE('',*,*,#267,.F.);
#267 = EDGE_CURVE('',#268,#71,#270,.T.);
#268 = VERTEX_POINT('',#269);
#269 = CARTESIAN_POINT('',(37.7,-8.,-1.90074839062));
#270 = LINE('',#271,#272);
#271 = CARTESIAN_POINT('',(37.7,33.190224351228,42.035490917357));
#272 = VECTOR('',#273,1.);
#273 = DIRECTION('',(0.,0.683941128881,0.72953720414));
#274 = ORIENTED_EDGE('',*,*,#275,.T.);
#275 = EDGE_CURVE('',#268,#276,#278,.T.);
#276 = VERTEX_POINT('',#277);
#277 = CARTESIAN_POINT('',(24.,-21.7,-16.51408172395));
#278 = ELLIPSE('',#279,20.030963808841,13.7);
#279 = AXIS2_PLACEMENT_3D('',#280,#281,#282);
#280 = CARTESIAN_POINT('',(24.,-8.,-1.90074839062));
#281 = DIRECTION('',(0.,0.72953720414,-0.683941128881));
#282 = DIRECTION('',(0.,0.683941128881,0.72953720414));
#283 = ORIENTED_EDGE('',*,*,#284,.T.);
#284 = EDGE_CURVE('',#276,#242,#285,.T.);
#285 = LINE('',#286,#287);
#286 = CARTESIAN_POINT('',(-118.85,-21.7,-16.51408172395));
#287 = VECTOR('',#288,1.);
#288 = DIRECTION('',(-1.,0.,0.));
#289 = FACE_BOUND('',#290,.F.);
#290 = EDGE_LOOP('',(#291,#302,#310,#319));
#291 = ORIENTED_EDGE('',*,*,#292,.F.);
#292 = EDGE_CURVE('',#293,#295,#297,.T.);
#293 = VERTEX_POINT('',#294);
#294 = CARTESIAN_POINT('',(-18.5,-19.92053949633,-14.61599052004));
#295 = VERTEX_POINT('',#296);
#296 = CARTESIAN_POINT('',(-18.5,-17.86871610969,-12.42737890762));
#297 = CIRCLE('',#298,1.5);
#298 = AXIS2_PLACEMENT_3D('',#299,#300,#301);
#299 = CARTESIAN_POINT('',(-18.5,-18.89462780301,-13.52168471383));
#300 = DIRECTION('',(0.,0.72953720414,-0.683941128881));
#301 = DIRECTION('',(0.,0.683941128881,0.72953720414));
#302 = ORIENTED_EDGE('',*,*,#303,.F.);
#303 = EDGE_CURVE('',#304,#293,#306,.T.);
#304 = VERTEX_POINT('',#305);
#305 = CARTESIAN_POINT('',(18.5,-19.92053949633,-14.61599052004));
#306 = LINE('',#307,#308);
#307 = CARTESIAN_POINT('',(-109.25,-19.92053949633,-14.61599052004));
#308 = VECTOR('',#309,1.);
#309 = DIRECTION('',(-1.,0.,0.));
#310 = ORIENTED_EDGE('',*,*,#311,.F.);
#311 = EDGE_CURVE('',#312,#304,#314,.T.);
#312 = VERTEX_POINT('',#313);
#313 = CARTESIAN_POINT('',(18.5,-17.86871610969,-12.42737890762));
#314 = CIRCLE('',#315,1.5);
#315 = AXIS2_PLACEMENT_3D('',#316,#317,#318);
#316 = CARTESIAN_POINT('',(18.5,-18.89462780301,-13.52168471383));
#317 = DIRECTION('',(0.,0.72953720414,-0.683941128881));
#318 = DIRECTION('',(0.,0.683941128881,0.72953720414));
#319 = ORIENTED_EDGE('',*,*,#320,.T.);
#320 = EDGE_CURVE('',#312,#295,#321,.T.);
#321 = LINE('',#322,#323);
#322 = CARTESIAN_POINT('',(-109.25,-17.86871610969,-12.42737890762));
#323 = VECTOR('',#324,1.);
#324 = DIRECTION('',(-1.,0.,0.));
#325 = PLANE('',#326);
#326 = AXIS2_PLACEMENT_3D('',#327,#328,#329);
#327 = CARTESIAN_POINT('',(-200.,129.73662414164,145.01831736047));
#328 = DIRECTION('',(0.,0.72953720414,-0.683941128881));
#329 = DIRECTION('',(1.,0.,0.));
#330 = ADVANCED_FACE('',(#331),#343,.T.);
#331 = FACE_BOUND('',#332,.T.);
#332 = EDGE_LOOP('',(#333,#334,#335,#341,#342));
#333 = ORIENTED_EDGE('',*,*,#78,.F.);
#334 = ORIENTED_EDGE('',*,*,#267,.F.);
#335 = ORIENTED_EDGE('',*,*,#336,.F.);
#336 = EDGE_CURVE('',#176,#268,#337,.T.);
#337 = LINE('',#338,#339);
#338 = CARTESIAN_POINT('',(37.7,-8.,-100.));
#339 = VECTOR('',#340,1.);
#340 = DIRECTION('',(0.,0.,1.));
#341 = ORIENTED_EDGE('',*,*,#184,.F.);
#342 = ORIENTED_EDGE('',*,*,#100,.T.);
#343 = PLANE('',#344);
#344 = AXIS2_PLACEMENT_3D('',#345,#346,#347);
#345 = CARTESIAN_POINT('',(37.7,-21.7,-100.));
#346 = DIRECTION('',(1.,0.,0.));
#347 = DIRECTION('',(0.,0.,1.));
#348 = ADVANCED_FACE('',(#349),#374,.F.);
#349 = FACE_BOUND('',#350,.F.);
#350 = EDGE_LOOP('',(#351,#359,#367,#373));
#351 = ORIENTED_EDGE('',*,*,#352,.F.);
#352 = EDGE_CURVE('',#353,#125,#355,.T.);
#353 = VERTEX_POINT('',#354);
#354 = CARTESIAN_POINT('',(-36.8,-2.2,-19.));
#355 = LINE('',#356,#357);
#356 = CARTESIAN_POINT('',(-36.8,-3.2,-19.));
#357 = VECTOR('',#358,1.);
#358 = DIRECTION('',(0.,1.,0.));
#359 = ORIENTED_EDGE('',*,*,#360,.T.);
#360 = EDGE_CURVE('',#353,#361,#363,.T.);
#361 = VERTEX_POINT('',#362);
#362 = CARTESIAN_POINT('',(36.8,-2.2,-19.));
#363 = LINE('',#364,#365);
#364 = CARTESIAN_POINT('',(-36.8,-2.2,-19.));
#365 = VECTOR('',#366,1.);
#366 = DIRECTION('',(1.,0.,0.));
#367 = ORIENTED_EDGE('',*,*,#368,.T.);
#368 = EDGE_CURVE('',#361,#117,#369,.T.);
#369 = LINE('',#370,#371);
#370 = CARTESIAN_POINT('',(36.8,-3.2,-19.));
#371 = VECTOR('',#372,1.);
#372 = DIRECTION('',(0.,1.,0.));
#373 = ORIENTED_EDGE('',*,*,#124,.F.);
#374 = PLANE('',#375);
#375 = AXIS2_PLACEMENT_3D('',#376,#377,#378);
#376 = CARTESIAN_POINT('',(-36.8,-3.2,-19.));
#377 = DIRECTION('',(0.,0.,1.));
#378 = DIRECTION('',(1.,0.,0.));
#379 = ADVANCED_FACE('',(#380),#406,.F.);
#380 = FACE_BOUND('',#381,.F.);
#381 = EDGE_LOOP('',(#382,#390,#391,#399));
#382 = ORIENTED_EDGE('',*,*,#383,.F.);
#383 = EDGE_CURVE('',#217,#384,#386,.T.);
#384 = VERTEX_POINT('',#385);
#385 = CARTESIAN_POINT('',(-36.8,-8.,-3.216651122588));
#386 = LINE('',#387,#388);
#387 = CARTESIAN_POINT('',(-36.8,-8.,-101.));
#388 = VECTOR('',#389,1.);
#389 = DIRECTION('',(0.,0.,1.));
#390 = ORIENTED_EDGE('',*,*,#216,.T.);
#391 = ORIENTED_EDGE('',*,*,#392,.T.);
#392 = EDGE_CURVE('',#209,#393,#395,.T.);
#393 = VERTEX_POINT('',#394);
#394 = CARTESIAN_POINT('',(-24.,-20.8,-16.86998445592));
#395 = LINE('',#396,#397);
#396 = CARTESIAN_POINT('',(-24.,-20.8,-101.));
#397 = VECTOR('',#398,1.);
#398 = DIRECTION('',(0.,0.,1.));
#399 = ORIENTED_EDGE('',*,*,#400,.T.);
#400 = EDGE_CURVE('',#393,#384,#401,.T.);
#401 = ELLIPSE('',#402,18.715061076874,12.8);
#402 = AXIS2_PLACEMENT_3D('',#403,#404,#405);
#403 = CARTESIAN_POINT('',(-24.,-8.,-3.216651122588));
#404 = DIRECTION('',(0.,0.72953720414,-0.683941128881));
#405 = DIRECTION('',(0.,0.683941128881,0.72953720414));
#406 = CYLINDRICAL_SURFACE('',#407,12.8);
#407 = AXIS2_PLACEMENT_3D('',#408,#409,#410);
#408 = CARTESIAN_POINT('',(-24.,-8.,-101.));
#409 = DIRECTION('',(0.,0.,1.));
#410 = DIRECTION('',(-1.,0.,0.));
#411 = ADVANCED_FACE('',(#412),#430,.T.);
#412 = FACE_BOUND('',#413,.T.);
#413 = EDGE_LOOP('',(#414,#422,#423,#424));
#414 = ORIENTED_EDGE('',*,*,#415,.F.);
#415 = EDGE_CURVE('',#200,#416,#418,.T.);
#416 = VERTEX_POINT('',#417);
#417 = CARTESIAN_POINT('',(24.,-20.8,-16.86998445592));
#418 = LINE('',#419,#420);
#419 = CARTESIAN_POINT('',(24.,-20.8,-101.));
#420 = VECTOR('',#421,1.);
#421 = DIRECTION('',(0.,0.,1.));
#422 = ORIENTED_EDGE('',*,*,#208,.F.);
#423 = ORIENTED_EDGE('',*,*,#392,.T.);
#424 = ORIENTED_EDGE('',*,*,#425,.F.);
#425 = EDGE_CURVE('',#416,#393,#426,.T.);
#426 = LINE('',#427,#428);
#427 = CARTESIAN_POINT('',(-118.4,-20.8,-16.86998445592));
#428 = VECTOR('',#429,1.);
#429 = DIRECTION('',(-1.,0.,0.));
#430 = PLANE('',#431);
#431 = AXIS2_PLACEMENT_3D('',#432,#433,#434);
#432 = CARTESIAN_POINT('',(-36.8,-20.8,-101.));
#433 = DIRECTION('',(0.,1.,0.));
#434 = DIRECTION('',(0.,0.,1.));
#435 = ADVANCED_FACE('',(#436),#455,.F.);
#436 = FACE_BOUND('',#437,.T.);
#437 = EDGE_LOOP('',(#438,#446,#447,#448));
#438 = ORIENTED_EDGE('',*,*,#439,.F.);
#439 = EDGE_CURVE('',#192,#440,#442,.T.);
#440 = VERTEX_POINT('',#441);
#441 = CARTESIAN_POINT('',(36.8,-8.,-3.216651122588));
#442 = LINE('',#443,#444);
#443 = CARTESIAN_POINT('',(36.8,-8.,-101.));
#444 = VECTOR('',#445,1.);
#445 = DIRECTION('',(0.,0.,1.));
#446 = ORIENTED_EDGE('',*,*,#199,.F.);
#447 = ORIENTED_EDGE('',*,*,#415,.T.);
#448 = ORIENTED_EDGE('',*,*,#449,.F.);
#449 = EDGE_CURVE('',#440,#416,#450,.T.);
#450 = ELLIPSE('',#451,18.715061076874,12.8);
#451 = AXIS2_PLACEMENT_3D('',#452,#453,#454);
#452 = CARTESIAN_POINT('',(24.,-8.,-3.216651122588));
#453 = DIRECTION('',(0.,0.72953720414,-0.683941128881));
#454 = DIRECTION('',(0.,0.683941128881,0.72953720414));
#455 = CYLINDRICAL_SURFACE('',#456,12.8);
#456 = AXIS2_PLACEMENT_3D('',#457,#458,#459);
#457 = CARTESIAN_POINT('',(24.,-8.,-101.));
#458 = DIRECTION('',(0.,0.,1.));
#459 = DIRECTION('',(1.,0.,0.));
#460 = ADVANCED_FACE('',(#461),#472,.T.);
#461 = FACE_BOUND('',#462,.F.);
#462 = EDGE_LOOP('',(#463,#464,#465,#471));
#463 = ORIENTED_EDGE('',*,*,#336,.F.);
#464 = ORIENTED_EDGE('',*,*,#175,.F.);
#465 = ORIENTED_EDGE('',*,*,#466,.T.);
#466 = EDGE_CURVE('',#168,#276,#467,.T.);
#467 = LINE('',#468,#469);
#468 = CARTESIAN_POINT('',(24.,-21.7,-100.));
#469 = VECTOR('',#470,1.);
#470 = DIRECTION('',(0.,0.,1.));
#471 = ORIENTED_EDGE('',*,*,#275,.F.);
#472 = CYLINDRICAL_SURFACE('',#473,13.7);
#473 = AXIS2_PLACEMENT_3D('',#474,#475,#476);
#474 = CARTESIAN_POINT('',(24.,-8.,-100.));
#475 = DIRECTION('',(0.,0.,1.));
#476 = DIRECTION('',(1.,0.,0.));
#477 = ADVANCED_FACE('',(#478),#484,.F.);
#478 = FACE_BOUND('',#479,.F.);
#479 = EDGE_LOOP('',(#480,#481,#482,#483));
#480 = ORIENTED_EDGE('',*,*,#167,.F.);
#481 = ORIENTED_EDGE('',*,*,#241,.T.);
#482 = ORIENTED_EDGE('',*,*,#284,.F.);
#483 = ORIENTED_EDGE('',*,*,#466,.F.);
#484 = PLANE('',#485);
#485 = AXIS2_PLACEMENT_3D('',#486,#487,#488);
#486 = CARTESIAN_POINT('',(-37.7,-21.7,-100.));
#487 = DIRECTION('',(0.,1.,0.));
#488 = DIRECTION('',(0.,0.,1.));
#489 = ADVANCED_FACE('',(#490),#516,.F.);
#490 = FACE_BOUND('',#491,.F.);
#491 = EDGE_LOOP('',(#492,#493,#501,#510));
#492 = ORIENTED_EDGE('',*,*,#292,.T.);
#493 = ORIENTED_EDGE('',*,*,#494,.T.);
#494 = EDGE_CURVE('',#295,#495,#497,.T.);
#495 = VERTEX_POINT('',#496);
#496 = CARTESIAN_POINT('',(-18.5,-17.21213262596,-13.04292592361));
#497 = LINE('',#498,#499);
#498 = CARTESIAN_POINT('',(-18.5,-18.08757727093,-12.22219656896));
#499 = VECTOR('',#500,1.);
#500 = DIRECTION('',(0.,0.72953720414,-0.683941128881));
#501 = ORIENTED_EDGE('',*,*,#502,.F.);
#502 = EDGE_CURVE('',#503,#495,#505,.T.);
#503 = VERTEX_POINT('',#504);
#504 = CARTESIAN_POINT('',(-18.5,-19.26395601261,-15.23153753603));
#505 = CIRCLE('',#506,1.5);
#506 = AXIS2_PLACEMENT_3D('',#507,#508,#509);
#507 = CARTESIAN_POINT('',(-18.5,-18.23804431928,-14.13723172982));
#508 = DIRECTION('',(0.,0.72953720414,-0.683941128881));
#509 = DIRECTION('',(0.,0.683941128881,0.72953720414));
#510 = ORIENTED_EDGE('',*,*,#511,.F.);
#511 = EDGE_CURVE('',#293,#503,#512,.T.);
#512 = LINE('',#513,#514);
#513 = CARTESIAN_POINT('',(-18.5,-20.13940065757,-14.41080818138));
#514 = VECTOR('',#515,1.);
#515 = DIRECTION('',(0.,0.72953720414,-0.683941128881));
#516 = CYLINDRICAL_SURFACE('',#517,1.5);
#517 = AXIS2_PLACEMENT_3D('',#518,#519,#520);
#518 = CARTESIAN_POINT('',(-18.5,-19.11348896425,-13.31650237517));
#519 = DIRECTION('',(0.,0.72953720414,-0.683941128881));
#520 = DIRECTION('',(0.,0.683941128881,0.72953720414));
#521 = ADVANCED_FACE('',(#522),#540,.T.);
#522 = FACE_BOUND('',#523,.T.);
#523 = EDGE_LOOP('',(#524,#525,#526,#534));
#524 = ORIENTED_EDGE('',*,*,#320,.T.);
#525 = ORIENTED_EDGE('',*,*,#494,.T.);
#526 = ORIENTED_EDGE('',*,*,#527,.F.);
#527 = EDGE_CURVE('',#528,#495,#530,.T.);
#528 = VERTEX_POINT('',#529);
#529 = CARTESIAN_POINT('',(18.5,-17.21213262596,-13.04292592361));
#530 = LINE('',#531,#532);
#531 = CARTESIAN_POINT('',(-109.25,-17.21213262596,-13.04292592361));
#532 = VECTOR('',#533,1.);
#533 = DIRECTION('',(-1.,0.,0.));
#534 = ORIENTED_EDGE('',*,*,#535,.F.);
#535 = EDGE_CURVE('',#312,#528,#536,.T.);
#536 = LINE('',#537,#538);
#537 = CARTESIAN_POINT('',(18.5,-18.08757727093,-12.22219656896));
#538 = VECTOR('',#539,1.);
#539 = DIRECTION('',(0.,0.72953720414,-0.683941128881));
#540 = PLANE('',#541);
#541 = AXIS2_PLACEMENT_3D('',#542,#543,#544);
#542 = CARTESIAN_POINT('',(-18.5,-18.08757727093,-12.22219656896));
#543 = DIRECTION('',(0.,-0.683941128881,-0.72953720414));
#544 = DIRECTION('',(0.,0.72953720414,-0.683941128881));
#545 = ADVANCED_FACE('',(#546),#565,.F.);
#546 = FACE_BOUND('',#547,.F.);
#547 = EDGE_LOOP('',(#548,#557,#558,#559));
#548 = ORIENTED_EDGE('',*,*,#549,.F.);
#549 = EDGE_CURVE('',#528,#550,#552,.T.);
#550 = VERTEX_POINT('',#551);
#551 = CARTESIAN_POINT('',(18.5,-19.26395601261,-15.23153753603));
#552 = CIRCLE('',#553,1.5);
#553 = AXIS2_PLACEMENT_3D('',#554,#555,#556);
#554 = CARTESIAN_POINT('',(18.5,-18.23804431928,-14.13723172982));
#555 = DIRECTION('',(0.,0.72953720414,-0.683941128881));
#556 = DIRECTION('',(0.,0.683941128881,0.72953720414));
#557 = ORIENTED_EDGE('',*,*,#535,.F.);
#558 = ORIENTED_EDGE('',*,*,#311,.T.);
#559 = ORIENTED_EDGE('',*,*,#560,.T.);
#560 = EDGE_CURVE('',#304,#550,#561,.T.);
#561 = LINE('',#562,#563);
#562 = CARTESIAN_POINT('',(18.5,-20.13940065757,-14.41080818138));
#563 = VECTOR('',#564,1.);
#564 = DIRECTION('',(0.,0.72953720414,-0.683941128881));
#565 = CYLINDRICAL_SURFACE('',#566,1.5);
#566 = AXIS2_PLACEMENT_3D('',#567,#568,#569);
#567 = CARTESIAN_POINT('',(18.5,-19.11348896425,-13.31650237517));
#568 = DIRECTION('',(0.,0.72953720414,-0.683941128881));
#569 = DIRECTION('',(0.,0.683941128881,0.72953720414));
#570 = ADVANCED_FACE('',(#571),#582,.F.);
#571 = FACE_BOUND('',#572,.F.);
#572 = EDGE_LOOP('',(#573,#574,#575,#581));
#573 = ORIENTED_EDGE('',*,*,#303,.T.);
#574 = ORIENTED_EDGE('',*,*,#511,.T.);
#575 = ORIENTED_EDGE('',*,*,#576,.F.);
#576 = EDGE_CURVE('',#550,#503,#577,.T.);
#577 = LINE('',#578,#579);
#578 = CARTESIAN_POINT('',(-109.25,-19.26395601261,-15.23153753603));
#579 = VECTOR('',#580,1.);
#580 = DIRECTION('',(-1.,0.,0.));
#581 = ORIENTED_EDGE('',*,*,#560,.F.);
#582 = PLANE('',#583);
#583 = AXIS2_PLACEMENT_3D('',#584,#585,#586);
#584 = CARTESIAN_POINT('',(-18.5,-20.13940065757,-14.41080818138));
#585 = DIRECTION('',(0.,-0.683941128881,-0.72953720414));
#586 = DIRECTION('',(0.,0.72953720414,-0.683941128881));
#587 = ADVANCED_FACE('',(#588),#613,.F.);
#588 = FACE_BOUND('',#589,.F.);
#589 = EDGE_LOOP('',(#590,#598,#599,#607));
#590 = ORIENTED_EDGE('',*,*,#591,.F.);
#591 = EDGE_CURVE('',#361,#592,#594,.T.);
#592 = VERTEX_POINT('',#593);
#593 = CARTESIAN_POINT('',(36.8,-2.2,-2.2));
#594 = LINE('',#595,#596);
#595 = CARTESIAN_POINT('',(36.8,-2.2,-101.));
#596 = VECTOR('',#597,1.);
#597 = DIRECTION('',(0.,0.,1.));
#598 = ORIENTED_EDGE('',*,*,#360,.F.);
#599 = ORIENTED_EDGE('',*,*,#600,.T.);
#600 = EDGE_CURVE('',#353,#601,#603,.T.);
#601 = VERTEX_POINT('',#602);
#602 = CARTESIAN_POINT('',(-36.8,-2.2,-2.2));
#603 = LINE('',#604,#605);
#604 = CARTESIAN_POINT('',(-36.8,-2.2,-101.));
#605 = VECTOR('',#606,1.);
#606 = DIRECTION('',(0.,0.,1.));
#607 = ORIENTED_EDGE('',*,*,#608,.T.);
#608 = EDGE_CURVE('',#601,#592,#609,.T.);
#609 = LINE('',#610,#611);
#610 = CARTESIAN_POINT('',(-36.8,-2.2,-2.2));
#611 = VECTOR('',#612,1.);
#612 = DIRECTION('',(1.,0.,0.));
#613 = PLANE('',#614);
#614 = AXIS2_PLACEMENT_3D('',#615,#616,#617);
#615 = CARTESIAN_POINT('',(-36.8,-2.2,-101.));
#616 = DIRECTION('',(0.,1.,0.));
#617 = DIRECTION('',(0.,0.,1.));
#618 = ADVANCED_FACE('',(#619),#644,.F.);
#619 = FACE_BOUND('',#620,.F.);
#620 = EDGE_LOOP('',(#621,#629,#637,#643));
#621 = ORIENTED_EDGE('',*,*,#622,.F.);
#622 = EDGE_CURVE('',#623,#601,#625,.T.);
#623 = VERTEX_POINT('',#624);
#624 = CARTESIAN_POINT('',(-36.8,-7.046889572574,-2.2));
#625 = LINE('',#626,#627);
#626 = CARTESIAN_POINT('',(-36.8,-20.8,-2.2));
#627 = VECTOR('',#628,1.);
#628 = DIRECTION('',(0.,1.,0.));
#629 = ORIENTED_EDGE('',*,*,#630,.F.);
#630 = EDGE_CURVE('',#631,#623,#633,.T.);
#631 = VERTEX_POINT('',#632);
#632 = CARTESIAN_POINT('',(36.8,-7.046889572574,-2.2));
#633 = LINE('',#634,#635);
#634 = CARTESIAN_POINT('',(-118.4,-7.046889572574,-2.2));
#635 = VECTOR('',#636,1.);
#636 = DIRECTION('',(-1.,0.,0.));
#637 = ORIENTED_EDGE('',*,*,#638,.T.);
#638 = EDGE_CURVE('',#631,#592,#639,.T.);
#639 = LINE('',#640,#641);
#640 = CARTESIAN_POINT('',(36.8,-20.8,-2.2));
#641 = VECTOR('',#642,1.);
#642 = DIRECTION('',(0.,1.,0.));
#643 = ORIENTED_EDGE('',*,*,#608,.F.);
#644 = PLANE('',#645);
#645 = AXIS2_PLACEMENT_3D('',#646,#647,#648);
#646 = CARTESIAN_POINT('',(-36.8,-20.8,-2.2));
#647 = DIRECTION('',(0.,0.,1.));
#648 = DIRECTION('',(1.,0.,0.));
#649 = ADVANCED_FACE('',(#650,#668,#702),#708,.T.);
#650 = FACE_BOUND('',#651,.T.);
#651 = EDGE_LOOP('',(#652,#653,#659,#660,#666,#667));
#652 = ORIENTED_EDGE('',*,*,#400,.T.);
#653 = ORIENTED_EDGE('',*,*,#654,.T.);
#654 = EDGE_CURVE('',#384,#623,#655,.T.);
#655 = LINE('',#656,#657);
#656 = CARTESIAN_POINT('',(-36.8,33.807826545973,41.378363859784));
#657 = VECTOR('',#658,1.);
#658 = DIRECTION('',(0.,0.683941128881,0.72953720414));
#659 = ORIENTED_EDGE('',*,*,#630,.F.);
#660 = ORIENTED_EDGE('',*,*,#661,.F.);
#661 = EDGE_CURVE('',#440,#631,#662,.T.);
#662 = LINE('',#663,#664);
#663 = CARTESIAN_POINT('',(36.8,33.807826545973,41.378363859784));
#664 = VECTOR('',#665,1.);
#665 = DIRECTION('',(0.,0.683941128881,0.72953720414));
#666 = ORIENTED_EDGE('',*,*,#449,.T.);
#667 = ORIENTED_EDGE('',*,*,#425,.T.);
#668 = FACE_BOUND('',#669,.T.);
#669 = EDGE_LOOP('',(#670,#680,#688,#696));
#670 = ORIENTED_EDGE('',*,*,#671,.T.);
#671 = EDGE_CURVE('',#672,#674,#676,.T.);
#672 = VERTEX_POINT('',#673);
#673 = CARTESIAN_POINT('',(5.85,-7.489323957102,-2.671930010163));
#674 = VERTEX_POINT('',#675);
#675 = CARTESIAN_POINT('',(-9.35,-7.489323957102,-2.671930010163));
#676 = LINE('',#677,#678);
#677 = CARTESIAN_POINT('',(-104.675,-7.489323957102,-2.671930010163));
#678 = VECTOR('',#679,1.);
#679 = DIRECTION('',(-1.,0.,0.));
#680 = ORIENTED_EDGE('',*,*,#681,.T.);
#681 = EDGE_CURVE('',#674,#682,#684,.T.);
#682 = VERTEX_POINT('',#683);
#683 = CARTESIAN_POINT('',(-9.35,-15.14946460057,-10.84274669653));
#684 = LINE('',#685,#686);
#685 = CARTESIAN_POINT('',(-9.35,61.451941834136,70.865420167158));
#686 = VECTOR('',#687,1.);
#687 = DIRECTION('',(0.,-0.683941128881,-0.72953720414));
#688 = ORIENTED_EDGE('',*,*,#689,.F.);
#689 = EDGE_CURVE('',#690,#682,#692,.T.);
#690 = VERTEX_POINT('',#691);
#691 = CARTESIAN_POINT('',(5.85,-15.14946460057,-10.84274669653));
#692 = LINE('',#693,#694);
#693 = CARTESIAN_POINT('',(-104.675,-15.14946460057,-10.84274669653));
#694 = VECTOR('',#695,1.);
#695 = DIRECTION('',(-1.,0.,0.));
#696 = ORIENTED_EDGE('',*,*,#697,.F.);
#697 = EDGE_CURVE('',#672,#690,#698,.T.);
#698 = LINE('',#699,#700);
#699 = CARTESIAN_POINT('',(5.85,61.451941834136,70.865420167158));
#700 = VECTOR('',#701,1.);
#701 = DIRECTION('',(0.,-0.683941128881,-0.72953720414));
#702 = FACE_BOUND('',#703,.T.);
#703 = EDGE_LOOP('',(#704,#705,#706,#707));
#704 = ORIENTED_EDGE('',*,*,#502,.F.);
#705 = ORIENTED_EDGE('',*,*,#576,.F.);
#706 = ORIENTED_EDGE('',*,*,#549,.F.);
#707 = ORIENTED_EDGE('',*,*,#527,.T.);
#708 = PLANE('',#709);
#709 = AXIS2_PLACEMENT_3D('',#710,#711,#712);
#710 = CARTESIAN_POINT('',(-200.,130.39320762537,144.40277034447));
#711 = DIRECTION('',(0.,0.72953720414,-0.683941128881));
#712 = DIRECTION('',(1.,0.,0.));
#713 = ADVANCED_FACE('',(#714),#739,.T.);
#714 = FACE_BOUND('',#715,.T.);
#715 = EDGE_LOOP('',(#716,#724,#732,#738));
#716 = ORIENTED_EDGE('',*,*,#717,.F.);
#717 = EDGE_CURVE('',#718,#672,#720,.T.);
#718 = VERTEX_POINT('',#719);
#719 = CARTESIAN_POINT('',(5.85,-7.854092559172,-2.329959445722));
#720 = LINE('',#721,#722);
#721 = CARTESIAN_POINT('',(5.85,-7.854092559172,-2.329959445722));
#722 = VECTOR('',#723,1.);
#723 = DIRECTION('',(0.,0.72953720414,-0.683941128881));
#724 = ORIENTED_EDGE('',*,*,#725,.F.);
#725 = EDGE_CURVE('',#726,#718,#728,.T.);
#726 = VERTEX_POINT('',#727);
#727 = CARTESIAN_POINT('',(-9.35,-7.854092559172,-2.329959445722));
#728 = LINE('',#729,#730);
#729 = CARTESIAN_POINT('',(-9.35,-7.854092559172,-2.329959445722));
#730 = VECTOR('',#731,1.);
#731 = DIRECTION('',(1.,0.,0.));
#732 = ORIENTED_EDGE('',*,*,#733,.T.);
#733 = EDGE_CURVE('',#726,#674,#734,.T.);
#734 = LINE('',#735,#736);
#735 = CARTESIAN_POINT('',(-9.35,-7.854092559172,-2.329959445722));
#736 = VECTOR('',#737,1.);
#737 = DIRECTION('',(0.,0.72953720414,-0.683941128881));
#738 = ORIENTED_EDGE('',*,*,#671,.F.);
#739 = PLANE('',#740);
#740 = AXIS2_PLACEMENT_3D('',#741,#742,#743);
#741 = CARTESIAN_POINT('',(-9.35,-7.854092559172,-2.329959445722));
#742 = DIRECTION('',(0.,-0.683941128881,-0.72953720414));
#743 = DIRECTION('',(0.,0.72953720414,-0.683941128881));
#744 = ADVANCED_FACE('',(#745),#763,.F.);
#745 = FACE_BOUND('',#746,.F.);
#746 = EDGE_LOOP('',(#747,#748,#756,#762));
#747 = ORIENTED_EDGE('',*,*,#717,.F.);
#748 = ORIENTED_EDGE('',*,*,#749,.T.);
#749 = EDGE_CURVE('',#718,#750,#752,.T.);
#750 = VERTEX_POINT('',#751);
#751 = CARTESIAN_POINT('',(5.85,-15.51423320264,-10.50077613209));
#752 = LINE('',#753,#754);
#753 = CARTESIAN_POINT('',(5.85,-7.854092559172,-2.329959445722));
#754 = VECTOR('',#755,1.);
#755 = DIRECTION('',(0.,-0.683941128881,-0.72953720414));
#756 = ORIENTED_EDGE('',*,*,#757,.T.);
#757 = EDGE_CURVE('',#750,#690,#758,.T.);
#758 = LINE('',#759,#760);
#759 = CARTESIAN_POINT('',(5.85,-15.51423320264,-10.50077613209));
#760 = VECTOR('',#761,1.);
#761 = DIRECTION('',(0.,0.72953720414,-0.683941128881));
#762 = ORIENTED_EDGE('',*,*,#697,.F.);
#763 = PLANE('',#764);
#764 = AXIS2_PLACEMENT_3D('',#765,#766,#767);
#765 = CARTESIAN_POINT('',(5.85,-7.854092559172,-2.329959445722));
#766 = DIRECTION('',(1.,0.,0.));
#767 = DIRECTION('',(0.,0.72953720414,-0.683941128881));
#768 = ADVANCED_FACE('',(#769),#787,.T.);
#769 = FACE_BOUND('',#770,.T.);
#770 = EDGE_LOOP('',(#771,#772,#780,#786));
#771 = ORIENTED_EDGE('',*,*,#733,.F.);
#772 = ORIENTED_EDGE('',*,*,#773,.T.);
#773 = EDGE_CURVE('',#726,#774,#776,.T.);
#774 = VERTEX_POINT('',#775);
#775 = CARTESIAN_POINT('',(-9.35,-15.51423320264,-10.50077613209));
#776 = LINE('',#777,#778);
#777 = CARTESIAN_POINT('',(-9.35,-7.854092559172,-2.329959445722));
#778 = VECTOR('',#779,1.);
#779 = DIRECTION('',(0.,-0.683941128881,-0.72953720414));
#780 = ORIENTED_EDGE('',*,*,#781,.T.);
#781 = EDGE_CURVE('',#774,#682,#782,.T.);
#782 = LINE('',#783,#784);
#783 = CARTESIAN_POINT('',(-9.35,-15.51423320264,-10.50077613209));
#784 = VECTOR('',#785,1.);
#785 = DIRECTION('',(0.,0.72953720414,-0.683941128881));
#786 = ORIENTED_EDGE('',*,*,#681,.F.);
#787 = PLANE('',#788);
#788 = AXIS2_PLACEMENT_3D('',#789,#790,#791);
#789 = CARTESIAN_POINT('',(-9.35,-7.854092559172,-2.329959445722));
#790 = DIRECTION('',(1.,0.,0.));
#791 = DIRECTION('',(0.,0.72953720414,-0.683941128881));
#792 = ADVANCED_FACE('',(#793),#804,.F.);
#793 = FACE_BOUND('',#794,.F.);
#794 = EDGE_LOOP('',(#795,#796,#802,#803));
#795 = ORIENTED_EDGE('',*,*,#757,.F.);
#796 = ORIENTED_EDGE('',*,*,#797,.F.);
#797 = EDGE_CURVE('',#774,#750,#798,.T.);
#798 = LINE('',#799,#800);
#799 = CARTESIAN_POINT('',(-9.35,-15.51423320264,-10.50077613209));
#800 = VECTOR('',#801,1.);
#801 = DIRECTION('',(1.,0.,0.));
#802 = ORIENTED_EDGE('',*,*,#781,.T.);
#803 = ORIENTED_EDGE('',*,*,#689,.F.);
#804 = PLANE('',#805);
#805 = AXIS2_PLACEMENT_3D('',#806,#807,#808);
#806 = CARTESIAN_POINT('',(-9.35,-15.51423320264,-10.50077613209));
#807 = DIRECTION('',(0.,-0.683941128881,-0.72953720414));
#808 = DIRECTION('',(0.,0.72953720414,-0.683941128881));
#809 = ADVANCED_FACE('',(#810),#816,.T.);
#810 = FACE_BOUND('',#811,.T.);
#811 = EDGE_LOOP('',(#812,#813,#814,#815));
#812 = ORIENTED_EDGE('',*,*,#773,.F.);
#813 = ORIENTED_EDGE('',*,*,#725,.T.);
#814 = ORIENTED_EDGE('',*,*,#749,.T.);
#815 = ORIENTED_EDGE('',*,*,#797,.F.);
#816 = PLANE('',#817);
#817 = AXIS2_PLACEMENT_3D('',#818,#819,#820);
#818 = CARTESIAN_POINT('',(-9.35,-7.854092559172,-2.329959445722));
#819 = DIRECTION('',(0.,0.72953720414,-0.683941128881));
#820 = DIRECTION('',(1.,0.,0.));
#821 = ADVANCED_FACE('',(#822),#831,.T.);
#822 = FACE_BOUND('',#823,.T.);
#823 = EDGE_LOOP('',(#824,#825,#826,#827,#828,#829,#830));
#824 = ORIENTED_EDGE('',*,*,#352,.F.);
#825 = ORIENTED_EDGE('',*,*,#600,.T.);
#826 = ORIENTED_EDGE('',*,*,#622,.F.);
#827 = ORIENTED_EDGE('',*,*,#654,.F.);
#828 = ORIENTED_EDGE('',*,*,#383,.F.);
#829 = ORIENTED_EDGE('',*,*,#225,.T.);
#830 = ORIENTED_EDGE('',*,*,#132,.F.);
#831 = PLANE('',#832);
#832 = AXIS2_PLACEMENT_3D('',#833,#834,#835);
#833 = CARTESIAN_POINT('',(-36.8,-4.865454812033,-14.42254830233));
#834 = DIRECTION('',(1.,0.,0.));
#835 = DIRECTION('',(0.,0.,1.));
#836 = ADVANCED_FACE('',(#837),#846,.T.);
#837 = FACE_BOUND('',#838,.T.);
#838 = EDGE_LOOP('',(#839,#840,#841,#842,#843,#844,#845));
#839 = ORIENTED_EDGE('',*,*,#368,.T.);
#840 = ORIENTED_EDGE('',*,*,#116,.T.);
#841 = ORIENTED_EDGE('',*,*,#191,.T.);
#842 = ORIENTED_EDGE('',*,*,#439,.T.);
#843 = ORIENTED_EDGE('',*,*,#661,.T.);
#844 = ORIENTED_EDGE('',*,*,#638,.T.);
#845 = ORIENTED_EDGE('',*,*,#591,.F.);
#846 = PLANE('',#847);
#847 = AXIS2_PLACEMENT_3D('',#848,#849,#850);
#848 = CARTESIAN_POINT('',(36.8,-4.865454812033,-14.42254830233));
#849 = DIRECTION('',(-1.,-0.,-0.));
#850 = DIRECTION('',(0.,0.,-1.));
#851 = ( GEOMETRIC_REPRESENTATION_CONTEXT(3) 
GLOBAL_UNCERTAINTY_ASSIGNED_CONTEXT((#855)) GLOBAL_UNIT_ASSIGNED_CONTEXT
((#852,#853,#854)) REPRESENTATION_CONTEXT('Context #1',
  '3D Context with UNIT and UNCERTAINTY') );
#852 = ( LENGTH_UNIT() NAMED_UNIT(*) SI_UNIT(.MILLI.,.METRE.) );
#853 = ( NAMED_UNIT(*) PLANE_ANGLE_UNIT() SI_UNIT($,.RADIAN.) );
#854 = ( NAMED_UNIT(*) SI_UNIT($,.STERADIAN.) SOLID_ANGLE_UNIT() );
#855 = UNCERTAINTY_MEASURE_WITH_UNIT(LENGTH_MEASURE(2.E-07),#852,
  'distance_accuracy_value','confusion accuracy');
#856 = PRODUCT_RELATED_PRODUCT_CATEGORY('part',$,(#7));
ENDSEC;
END-ISO-10303-21;
