ISO-10303-21;
HEADER;
FILE_DESCRIPTION(('FreeCAD Model'),'2;1');
FILE_NAME('Open CASCADE Shape Model','2026-09-14T21:43:48',('FreeCAD'),(
    'FreeCAD'),'Open CASCADE STEP processor 7.8','FreeCAD','Unknown');
FILE_SCHEMA(('AUTOMOTIVE_DESIGN { 1 0 10303 214 1 1 1 1 }'));
ENDSEC;
DATA;
#1 = APPLICATION_PROTOCOL_DEFINITION('international standard',
  'automotive_design',2000,#2);
#2 = APPLICATION_CONTEXT(
  'core data for automotive mechanical design processes');
#3 = SHAPE_DEFINITION_REPRESENTATION(#4,#10);
#4 = PRODUCT_DEFINITION_SHAPE('','',#5);
#5 = PRODUCT_DEFINITION('design','',#6,#9);
#6 = PRODUCT_DEFINITION_FORMATION('','',#7);
#7 = PRODUCT('Open CASCADE STEP translator 7.8 15',
  'Open CASCADE STEP translator 7.8 15','',(#8));
#8 = PRODUCT_CONTEXT('',#2,'mechanical');
#9 = PRODUCT_DEFINITION_CONTEXT('part definition',#2,'design');
#10 = ADVANCED_BREP_SHAPE_REPRESENTATION('',(#11,#15),#1285);
#11 = AXIS2_PLACEMENT_3D('',#12,#13,#14);
#12 = CARTESIAN_POINT('',(0.,0.,0.));
#13 = DIRECTION('',(0.,0.,1.));
#14 = DIRECTION('',(1.,0.,-0.));
#15 = MANIFOLD_SOLID_BREP('',#16);
#16 = CLOSED_SHELL('',(#17,#66,#115,#140,#250,#290,#322,#346,#379,#397,
    #414,#446,#463,#494,#518,#543,#567,#592,#616,#640,#671,#733,#793,
    #811,#842,#853,#899,#911,#966,#997,#1006,#1091,#1123,#1147,#1172,
    #1189,#1201,#1220,#1239,#1261,#1273));
#17 = ADVANCED_FACE('',(#18),#61,.T.);
#18 = FACE_BOUND('',#19,.T.);
#19 = EDGE_LOOP('',(#20,#30,#38,#47,#55));
#20 = ORIENTED_EDGE('',*,*,#21,.T.);
#21 = EDGE_CURVE('',#22,#24,#26,.T.);
#22 = VERTEX_POINT('',#23);
#23 = CARTESIAN_POINT('',(39.,0.,-18.));
#24 = VERTEX_POINT('',#25);
#25 = CARTESIAN_POINT('',(39.,0.,-2.));
#26 = LINE('',#27,#28);
#27 = CARTESIAN_POINT('',(39.,0.,-22.005));
#28 = VECTOR('',#29,1.);
#29 = DIRECTION('',(0.,0.,1.));
#30 = ORIENTED_EDGE('',*,*,#31,.F.);
#31 = EDGE_CURVE('',#32,#24,#34,.T.);
#32 = VERTEX_POINT('',#33);
#33 = CARTESIAN_POINT('',(39.,-7.134317583071,-2.000833715204));
#34 = LINE('',#35,#36);
#35 = CARTESIAN_POINT('',(39.,-7.133535975067,-2.));
#36 = VECTOR('',#37,1.);
#37 = DIRECTION('',(0.,1.,0.));
#38 = ORIENTED_EDGE('',*,*,#39,.F.);
#39 = EDGE_CURVE('',#40,#32,#42,.T.);
#40 = VERTEX_POINT('',#41);
#41 = CARTESIAN_POINT('',(39.,-8.,-2.924228293262));
#42 = ( BOUNDED_CURVE() B_SPLINE_CURVE(3,(#43,#44,#45,#46),
.UNSPECIFIED.,.F.,.F.) B_SPLINE_CURVE_WITH_KNOTS((4,4),(112.48726511233,
113.55907525696),.PIECEWISE_BEZIER_KNOTS.) CURVE() 
GEOMETRIC_REPRESENTATION_ITEM() RATIONAL_B_SPLINE_CURVE((1.,1.,1.,1.)) 
REPRESENTATION_ITEM('') );
#43 = CARTESIAN_POINT('',(39.,-8.,-2.924228293262));
#44 = CARTESIAN_POINT('',(39.,-7.711535996952,-2.616533356677));
#45 = CARTESIAN_POINT('',(39.,-7.423086318552,-2.308853699717));
#46 = CARTESIAN_POINT('',(39.,-7.134317583071,-2.000833715204));
#47 = ORIENTED_EDGE('',*,*,#48,.F.);
#48 = EDGE_CURVE('',#49,#40,#51,.T.);
#49 = VERTEX_POINT('',#50);
#50 = CARTESIAN_POINT('',(39.,-8.,-18.));
#51 = LINE('',#52,#53);
#52 = CARTESIAN_POINT('',(39.,-8.,-26.01));
#53 = VECTOR('',#54,1.);
#54 = DIRECTION('',(0.,0.,1.));
#55 = ORIENTED_EDGE('',*,*,#56,.F.);
#56 = EDGE_CURVE('',#22,#49,#57,.T.);
#57 = LINE('',#58,#59);
#58 = CARTESIAN_POINT('',(39.,-61.5,-18.));
#59 = VECTOR('',#60,1.);
#60 = DIRECTION('',(0.,-1.,0.));
#61 = PLANE('',#62);
#62 = AXIS2_PLACEMENT_3D('',#63,#64,#65);
#63 = CARTESIAN_POINT('',(39.,-23.,-26.01));
#64 = DIRECTION('',(1.,0.,0.));
#65 = DIRECTION('',(0.,0.,1.));
#66 = ADVANCED_FACE('',(#67),#110,.T.);
#67 = FACE_BOUND('',#68,.T.);
#68 = EDGE_LOOP('',(#69,#70,#78,#86,#95,#103));
#69 = ORIENTED_EDGE('',*,*,#21,.F.);
#70 = ORIENTED_EDGE('',*,*,#71,.F.);
#71 = EDGE_CURVE('',#72,#22,#74,.T.);
#72 = VERTEX_POINT('',#73);
#73 = CARTESIAN_POINT('',(-39.,0.,-18.));
#74 = LINE('',#75,#76);
#75 = CARTESIAN_POINT('',(-78.,0.,-18.));
#76 = VECTOR('',#77,1.);
#77 = DIRECTION('',(1.,0.,0.));
#78 = ORIENTED_EDGE('',*,*,#79,.T.);
#79 = EDGE_CURVE('',#72,#80,#82,.T.);
#80 = VERTEX_POINT('',#81);
#81 = CARTESIAN_POINT('',(-39.,0.,-2.));
#82 = LINE('',#83,#84);
#83 = CARTESIAN_POINT('',(-39.,0.,-22.005));
#84 = VECTOR('',#85,1.);
#85 = DIRECTION('',(0.,0.,1.));
#86 = ORIENTED_EDGE('',*,*,#87,.T.);
#87 = EDGE_CURVE('',#80,#88,#90,.T.);
#88 = VERTEX_POINT('',#89);
#89 = CARTESIAN_POINT('',(-37.,0.,4.440892098501E-16));
#90 = CIRCLE('',#91,2.);
#91 = AXIS2_PLACEMENT_3D('',#92,#93,#94);
#92 = CARTESIAN_POINT('',(-37.,0.,-2.));
#93 = DIRECTION('',(0.,1.,0.));
#94 = DIRECTION('',(0.,0.,-1.));
#95 = ORIENTED_EDGE('',*,*,#96,.F.);
#96 = EDGE_CURVE('',#97,#88,#99,.T.);
#97 = VERTEX_POINT('',#98);
#98 = CARTESIAN_POINT('',(37.,0.,4.440892098501E-16));
#99 = LINE('',#100,#101);
#100 = CARTESIAN_POINT('',(-58.5,0.,0.));
#101 = VECTOR('',#102,1.);
#102 = DIRECTION('',(-1.,0.,0.));
#103 = ORIENTED_EDGE('',*,*,#104,.F.);
#104 = EDGE_CURVE('',#24,#97,#105,.T.);
#105 = CIRCLE('',#106,2.);
#106 = AXIS2_PLACEMENT_3D('',#107,#108,#109);
#107 = CARTESIAN_POINT('',(37.,0.,-2.));
#108 = DIRECTION('',(0.,-1.,0.));
#109 = DIRECTION('',(0.,0.,1.));
#110 = PLANE('',#111);
#111 = AXIS2_PLACEMENT_3D('',#112,#113,#114);
#112 = CARTESIAN_POINT('',(-78.,0.,-18.));
#113 = DIRECTION('',(0.,1.,0.));
#114 = DIRECTION('',(0.,0.,1.));
#115 = ADVANCED_FACE('',(#116),#135,.T.);
#116 = FACE_BOUND('',#117,.F.);
#117 = EDGE_LOOP('',(#118,#127,#133,#134));
#118 = ORIENTED_EDGE('',*,*,#119,.T.);
#119 = EDGE_CURVE('',#32,#120,#122,.T.);
#120 = VERTEX_POINT('',#121);
#121 = CARTESIAN_POINT('',(37.,-7.133535975067,0.));
#122 = CIRCLE('',#123,2.);
#123 = AXIS2_PLACEMENT_3D('',#124,#125,#126);
#124 = CARTESIAN_POINT('',(37.,-7.133535975067,-2.));
#125 = DIRECTION('',(-0.,-1.,-2.775557561563E-16));
#126 = DIRECTION('',(0.,-2.775557561563E-16,1.));
#127 = ORIENTED_EDGE('',*,*,#128,.T.);
#128 = EDGE_CURVE('',#120,#97,#129,.T.);
#129 = LINE('',#130,#131);
#130 = CARTESIAN_POINT('',(37.,-7.133535975067,4.440892098501E-16));
#131 = VECTOR('',#132,1.);
#132 = DIRECTION('',(0.,1.,0.));
#133 = ORIENTED_EDGE('',*,*,#104,.F.);
#134 = ORIENTED_EDGE('',*,*,#31,.F.);
#135 = CYLINDRICAL_SURFACE('',#136,2.);
#136 = AXIS2_PLACEMENT_3D('',#137,#138,#139);
#137 = CARTESIAN_POINT('',(37.,-7.133535975067,-2.));
#138 = DIRECTION('',(0.,1.,0.));
#139 = DIRECTION('',(1.,0.,0.));
#140 = ADVANCED_FACE('',(#141,#177),#245,.F.);
#141 = FACE_BOUND('',#142,.F.);
#142 = EDGE_LOOP('',(#143,#144,#152,#161,#169,#176));
#143 = ORIENTED_EDGE('',*,*,#71,.F.);
#144 = ORIENTED_EDGE('',*,*,#145,.T.);
#145 = EDGE_CURVE('',#72,#146,#148,.T.);
#146 = VERTEX_POINT('',#147);
#147 = CARTESIAN_POINT('',(-39.,-8.,-18.));
#148 = LINE('',#149,#150);
#149 = CARTESIAN_POINT('',(-39.,-61.5,-18.));
#150 = VECTOR('',#151,1.);
#151 = DIRECTION('',(0.,-1.,0.));
#152 = ORIENTED_EDGE('',*,*,#153,.T.);
#153 = EDGE_CURVE('',#146,#154,#156,.T.);
#154 = VERTEX_POINT('',#155);
#155 = CARTESIAN_POINT('',(-24.,-23.,-18.));
#156 = CIRCLE('',#157,15.);
#157 = AXIS2_PLACEMENT_3D('',#158,#159,#160);
#158 = CARTESIAN_POINT('',(-24.,-8.,-18.));
#159 = DIRECTION('',(0.,0.,1.));
#160 = DIRECTION('',(-1.,0.,0.));
#161 = ORIENTED_EDGE('',*,*,#162,.T.);
#162 = EDGE_CURVE('',#154,#163,#165,.T.);
#163 = VERTEX_POINT('',#164);
#164 = CARTESIAN_POINT('',(24.,-23.,-18.));
#165 = LINE('',#166,#167);
#166 = CARTESIAN_POINT('',(-69.5,-23.,-18.));
#167 = VECTOR('',#168,1.);
#168 = DIRECTION('',(1.,0.,0.));
#169 = ORIENTED_EDGE('',*,*,#170,.T.);
#170 = EDGE_CURVE('',#163,#49,#171,.T.);
#171 = CIRCLE('',#172,15.);
#172 = AXIS2_PLACEMENT_3D('',#173,#174,#175);
#173 = CARTESIAN_POINT('',(24.,-8.,-18.));
#174 = DIRECTION('',(0.,0.,1.));
#175 = DIRECTION('',(1.,0.,0.));
#176 = ORIENTED_EDGE('',*,*,#56,.F.);
#177 = FACE_BOUND('',#178,.F.);
#178 = EDGE_LOOP('',(#179,#189,#197,#205,#213,#222,#230,#239));
#179 = ORIENTED_EDGE('',*,*,#180,.F.);
#180 = EDGE_CURVE('',#181,#183,#185,.T.);
#181 = VERTEX_POINT('',#182);
#182 = CARTESIAN_POINT('',(-37.8,-1.2,-18.));
#183 = VERTEX_POINT('',#184);
#184 = CARTESIAN_POINT('',(-38.3,-1.2,-18.));
#185 = LINE('',#186,#187);
#186 = CARTESIAN_POINT('',(-89.,-1.2,-18.));
#187 = VECTOR('',#188,1.);
#188 = DIRECTION('',(-1.,0.,0.));
#189 = ORIENTED_EDGE('',*,*,#190,.T.);
#190 = EDGE_CURVE('',#181,#191,#193,.T.);
#191 = VERTEX_POINT('',#192);
#192 = CARTESIAN_POINT('',(37.8,-1.2,-18.));
#193 = LINE('',#194,#195);
#194 = CARTESIAN_POINT('',(-68.9,-1.2,-18.));
#195 = VECTOR('',#196,1.);
#196 = DIRECTION('',(1.,0.,0.));
#197 = ORIENTED_EDGE('',*,*,#198,.F.);
#198 = EDGE_CURVE('',#199,#191,#201,.T.);
#199 = VERTEX_POINT('',#200);
#200 = CARTESIAN_POINT('',(38.3,-1.2,-18.));
#201 = LINE('',#202,#203);
#202 = CARTESIAN_POINT('',(-89.,-1.2,-18.));
#203 = VECTOR('',#204,1.);
#204 = DIRECTION('',(-1.,0.,0.));
#205 = ORIENTED_EDGE('',*,*,#206,.F.);
#206 = EDGE_CURVE('',#207,#199,#209,.T.);
#207 = VERTEX_POINT('',#208);
#208 = CARTESIAN_POINT('',(38.3,-8.,-18.));
#209 = LINE('',#210,#211);
#210 = CARTESIAN_POINT('',(38.3,-61.15,-18.));
#211 = VECTOR('',#212,1.);
#212 = DIRECTION('',(0.,1.,0.));
#213 = ORIENTED_EDGE('',*,*,#214,.F.);
#214 = EDGE_CURVE('',#215,#207,#217,.T.);
#215 = VERTEX_POINT('',#216);
#216 = CARTESIAN_POINT('',(24.,-22.3,-18.));
#217 = CIRCLE('',#218,14.3);
#218 = AXIS2_PLACEMENT_3D('',#219,#220,#221);
#219 = CARTESIAN_POINT('',(24.,-8.,-18.));
#220 = DIRECTION('',(0.,0.,1.));
#221 = DIRECTION('',(1.,0.,0.));
#222 = ORIENTED_EDGE('',*,*,#223,.T.);
#223 = EDGE_CURVE('',#215,#224,#226,.T.);
#224 = VERTEX_POINT('',#225);
#225 = CARTESIAN_POINT('',(-24.,-22.3,-18.));
#226 = LINE('',#227,#228);
#227 = CARTESIAN_POINT('',(-69.15,-22.3,-18.));
#228 = VECTOR('',#229,1.);
#229 = DIRECTION('',(-1.,0.,0.));
#230 = ORIENTED_EDGE('',*,*,#231,.F.);
#231 = EDGE_CURVE('',#232,#224,#234,.T.);
#232 = VERTEX_POINT('',#233);
#233 = CARTESIAN_POINT('',(-38.3,-8.,-18.));
#234 = CIRCLE('',#235,14.3);
#235 = AXIS2_PLACEMENT_3D('',#236,#237,#238);
#236 = CARTESIAN_POINT('',(-24.,-8.,-18.));
#237 = DIRECTION('',(0.,0.,1.));
#238 = DIRECTION('',(-1.,0.,0.));
#239 = ORIENTED_EDGE('',*,*,#240,.T.);
#240 = EDGE_CURVE('',#232,#183,#241,.T.);
#241 = LINE('',#242,#243);
#242 = CARTESIAN_POINT('',(-38.3,-61.15,-18.));
#243 = VECTOR('',#244,1.);
#244 = DIRECTION('',(0.,1.,0.));
#245 = PLANE('',#246);
#246 = AXIS2_PLACEMENT_3D('',#247,#248,#249);
#247 = CARTESIAN_POINT('',(-100.,-100.,-18.));
#248 = DIRECTION('',(0.,0.,1.));
#249 = DIRECTION('',(1.,0.,0.));
#250 = ADVANCED_FACE('',(#251),#277,.F.);
#251 = FACE_BOUND('',#252,.F.);
#252 = EDGE_LOOP('',(#253,#261,#270,#276));
#253 = ORIENTED_EDGE('',*,*,#254,.T.);
#254 = EDGE_CURVE('',#40,#255,#257,.T.);
#255 = VERTEX_POINT('',#256);
#256 = CARTESIAN_POINT('',(37.001936102227,-9.398900568058,
    -1.492160605929));
#257 = ( BOUNDED_CURVE() B_SPLINE_CURVE(2,(#258,#259,#260),
.UNSPECIFIED.,.F.,.F.) B_SPLINE_CURVE_WITH_KNOTS((3,3),(0.,
27.322772965013),.PIECEWISE_BEZIER_KNOTS.) CURVE() 
GEOMETRIC_REPRESENTATION_ITEM() RATIONAL_B_SPLINE_CURVE((1.,
0.707106781187,1.)) REPRESENTATION_ITEM('') );
#258 = CARTESIAN_POINT('',(39.,-8.,-2.924228293262));
#259 = CARTESIAN_POINT('',(39.,-9.45907440828,-1.556346035499));
#260 = CARTESIAN_POINT('',(37.001936102227,-9.398900568058,
    -1.492160605929));
#261 = ORIENTED_EDGE('',*,*,#262,.T.);
#262 = EDGE_CURVE('',#255,#263,#265,.T.);
#263 = VERTEX_POINT('',#264);
#264 = CARTESIAN_POINT('',(37.000000326498,-8.592610383348,
    -0.632117742237));
#265 = ( BOUNDED_CURVE() B_SPLINE_CURVE(3,(#266,#267,#268,#269),
.UNSPECIFIED.,.F.,.F.) B_SPLINE_CURVE_WITH_KNOTS((4,4),(112.48726511233,
113.55907525696),.PIECEWISE_BEZIER_KNOTS.) CURVE() 
GEOMETRIC_REPRESENTATION_ITEM() RATIONAL_B_SPLINE_CURVE((1.,1.,1.,1.)) 
REPRESENTATION_ITEM('') );
#266 = CARTESIAN_POINT('',(37.001936102227,-9.398900568058,
    -1.492160605929));
#267 = CARTESIAN_POINT('',(37.000661994948,-9.130226532594,-1.2055749681
    ));
#268 = CARTESIAN_POINT('',(37.000016875602,-8.861570561779,
    -0.919008599231));
#269 = CARTESIAN_POINT('',(37.000000326498,-8.592610383348,
    -0.632117742237));
#270 = ORIENTED_EDGE('',*,*,#271,.F.);
#271 = EDGE_CURVE('',#32,#263,#272,.T.);
#272 = ( BOUNDED_CURVE() B_SPLINE_CURVE(2,(#273,#274,#275),
.UNSPECIFIED.,.F.,.F.) B_SPLINE_CURVE_WITH_KNOTS((3,3),(0.,
1.071810144631),.PIECEWISE_BEZIER_KNOTS.) CURVE() 
GEOMETRIC_REPRESENTATION_ITEM() RATIONAL_B_SPLINE_CURVE((1.,
0.707106781187,1.)) REPRESENTATION_ITEM('') );
#273 = CARTESIAN_POINT('',(39.,-7.134317583071,-2.000833715204));
#274 = CARTESIAN_POINT('',(39.,-8.593391991351,-0.632951457441));
#275 = CARTESIAN_POINT('',(37.000000326498,-8.592610383348,
    -0.632117742237));
#276 = ORIENTED_EDGE('',*,*,#39,.F.);
#277 = ( BOUNDED_SURFACE() B_SPLINE_SURFACE(2,3,(
    (#278,#279,#280,#281)
    ,(#282,#283,#284,#285)
    ,(#286,#287,#288,#289
)),.UNSPECIFIED.,.F.,.F.,.F.) B_SPLINE_SURFACE_WITH_KNOTS((3,3),(4,4),(
    0.,1.071810144631),(112.48726511233,113.55907525696),
.PIECEWISE_BEZIER_KNOTS.) GEOMETRIC_REPRESENTATION_ITEM() 
RATIONAL_B_SPLINE_SURFACE((
    (1.,1.,1.,1.)
    ,(0.707106781187,0.707106781187,0.707106781187,0.707106781187)
,(1.,1.,1.,1.))) REPRESENTATION_ITEM('') SURFACE() );
#278 = CARTESIAN_POINT('',(39.,-8.,-2.924228293262));
#279 = CARTESIAN_POINT('',(39.,-7.711535996952,-2.616533356677));
#280 = CARTESIAN_POINT('',(39.,-7.423086318552,-2.308853699717));
#281 = CARTESIAN_POINT('',(39.,-7.134317583071,-2.000833715204));
#282 = CARTESIAN_POINT('',(39.,-9.45907440828,-1.556346035499));
#283 = CARTESIAN_POINT('',(39.,-9.170610405232,-1.248651098915));
#284 = CARTESIAN_POINT('',(39.,-8.882160726832,-0.940971441954));
#285 = CARTESIAN_POINT('',(39.,-8.593391991351,-0.632951457441));
#286 = CARTESIAN_POINT('',(37.001936102227,-9.398900568058,
    -1.492160605929));
#287 = CARTESIAN_POINT('',(37.000661994948,-9.130226532594,-1.2055749681
    ));
#288 = CARTESIAN_POINT('',(37.000016875602,-8.861570561779,
    -0.919008599231));
#289 = CARTESIAN_POINT('',(37.000000326498,-8.592610383348,
    -0.632117742237));
#290 = ADVANCED_FACE('',(#291),#317,.T.);
#291 = FACE_BOUND('',#292,.F.);
#292 = EDGE_LOOP('',(#293,#294,#295,#303));
#293 = ORIENTED_EDGE('',*,*,#48,.F.);
#294 = ORIENTED_EDGE('',*,*,#170,.F.);
#295 = ORIENTED_EDGE('',*,*,#296,.T.);
#296 = EDGE_CURVE('',#163,#297,#299,.T.);
#297 = VERTEX_POINT('',#298);
#298 = CARTESIAN_POINT('',(24.,-23.,-16.79089495992));
#299 = LINE('',#300,#301);
#300 = CARTESIAN_POINT('',(24.,-23.,-26.01));
#301 = VECTOR('',#302,1.);
#302 = DIRECTION('',(0.,0.,1.));
#303 = ORIENTED_EDGE('',*,*,#304,.T.);
#304 = EDGE_CURVE('',#297,#40,#305,.T.);
#305 = ( BOUNDED_CURVE() B_SPLINE_CURVE(10,(#306,#307,#308,#309,#310,
    #311,#312,#313,#314,#315,#316),.UNSPECIFIED.,.F.,.F.) 
B_SPLINE_CURVE_WITH_KNOTS((11,11),(85.164492147324,112.48726511233),
.PIECEWISE_BEZIER_KNOTS.) CURVE() GEOMETRIC_REPRESENTATION_ITEM() 
RATIONAL_B_SPLINE_CURVE((1.,1.,1.,1.,1.000000000001,0.999999999999,1.,1.
,1.,1.,1.)) REPRESENTATION_ITEM('') );
#306 = CARTESIAN_POINT('',(24.,-23.,-16.79089495992));
#307 = CARTESIAN_POINT('',(26.334433293148,-23.,-16.79089495992));
#308 = CARTESIAN_POINT('',(28.685424710216,-22.59622546292,
    -16.41745850844));
#309 = CARTESIAN_POINT('',(30.974414751212,-21.77997872577,
    -15.66237531043));
#310 = CARTESIAN_POINT('',(33.0998997492,-20.55450619677,-14.52815508089
    ));
#311 = CARTESIAN_POINT('',(34.965682038521,-18.98479140358,
    -13.07707863783));
#312 = CARTESIAN_POINT('',(36.540361293749,-17.11356454332,
    -11.34742020967));
#313 = CARTESIAN_POINT('',(37.753701836998,-15.0078666256,-9.40137763739
    ));
#314 = CARTESIAN_POINT('',(38.582384229759,-12.73669496395,
    -7.302304166046));
#315 = CARTESIAN_POINT('',(39.,-10.37475632105,-5.119231311747));
#316 = CARTESIAN_POINT('',(39.,-8.,-2.924228293262));
#317 = CYLINDRICAL_SURFACE('',#318,15.);
#318 = AXIS2_PLACEMENT_3D('',#319,#320,#321);
#319 = CARTESIAN_POINT('',(24.,-8.,-26.01));
#320 = DIRECTION('',(0.,0.,1.));
#321 = DIRECTION('',(1.,0.,0.));
#322 = ADVANCED_FACE('',(#323),#341,.T.);
#323 = FACE_BOUND('',#324,.T.);
#324 = EDGE_LOOP('',(#325,#333,#334,#335));
#325 = ORIENTED_EDGE('',*,*,#326,.F.);
#326 = EDGE_CURVE('',#120,#327,#329,.T.);
#327 = VERTEX_POINT('',#328);
#328 = CARTESIAN_POINT('',(-37.,-7.133535975067,4.440892098501E-16));
#329 = LINE('',#330,#331);
#330 = CARTESIAN_POINT('',(39.,-7.133535975067,0.));
#331 = VECTOR('',#332,1.);
#332 = DIRECTION('',(-1.,0.,0.));
#333 = ORIENTED_EDGE('',*,*,#128,.T.);
#334 = ORIENTED_EDGE('',*,*,#96,.T.);
#335 = ORIENTED_EDGE('',*,*,#336,.T.);
#336 = EDGE_CURVE('',#88,#327,#337,.T.);
#337 = LINE('',#338,#339);
#338 = CARTESIAN_POINT('',(-37.,0.,4.440892098501E-16));
#339 = VECTOR('',#340,1.);
#340 = DIRECTION('',(0.,-1.,0.));
#341 = PLANE('',#342);
#342 = AXIS2_PLACEMENT_3D('',#343,#344,#345);
#343 = CARTESIAN_POINT('',(-39.,-23.,0.));
#344 = DIRECTION('',(0.,0.,1.));
#345 = DIRECTION('',(1.,0.,0.));
#346 = ADVANCED_FACE('',(#347),#374,.F.);
#347 = FACE_BOUND('',#348,.F.);
#348 = EDGE_LOOP('',(#349,#350,#358,#367,#373));
#349 = ORIENTED_EDGE('',*,*,#79,.T.);
#350 = ORIENTED_EDGE('',*,*,#351,.T.);
#351 = EDGE_CURVE('',#80,#352,#354,.T.);
#352 = VERTEX_POINT('',#353);
#353 = CARTESIAN_POINT('',(-39.,-7.133535975067,-2.));
#354 = LINE('',#355,#356);
#355 = CARTESIAN_POINT('',(-39.,0.,-2.));
#356 = VECTOR('',#357,1.);
#357 = DIRECTION('',(0.,-1.,0.));
#358 = ORIENTED_EDGE('',*,*,#359,.T.);
#359 = EDGE_CURVE('',#352,#360,#362,.T.);
#360 = VERTEX_POINT('',#361);
#361 = CARTESIAN_POINT('',(-39.,-8.,-2.924228293262));
#362 = ( BOUNDED_CURVE() B_SPLINE_CURVE(3,(#363,#364,#365,#366),
.UNSPECIFIED.,.F.,.F.) B_SPLINE_CURVE_WITH_KNOTS((4,4),(8.769909037681,
9.841719182312),.PIECEWISE_BEZIER_KNOTS.) CURVE() 
GEOMETRIC_REPRESENTATION_ITEM() RATIONAL_B_SPLINE_CURVE((1.,1.,1.,1.)) 
REPRESENTATION_ITEM('') );
#363 = CARTESIAN_POINT('',(-39.,-7.134317583071,-2.000833715204));
#364 = CARTESIAN_POINT('',(-39.,-7.423086318552,-2.308853699717));
#365 = CARTESIAN_POINT('',(-39.,-7.711535996952,-2.616533356677));
#366 = CARTESIAN_POINT('',(-39.,-8.,-2.924228293262));
#367 = ORIENTED_EDGE('',*,*,#368,.F.);
#368 = EDGE_CURVE('',#146,#360,#369,.T.);
#369 = LINE('',#370,#371);
#370 = CARTESIAN_POINT('',(-39.,-8.,-26.01));
#371 = VECTOR('',#372,1.);
#372 = DIRECTION('',(0.,0.,1.));
#373 = ORIENTED_EDGE('',*,*,#145,.F.);
#374 = PLANE('',#375);
#375 = AXIS2_PLACEMENT_3D('',#376,#377,#378);
#376 = CARTESIAN_POINT('',(-39.,-23.,-26.01));
#377 = DIRECTION('',(1.,0.,0.));
#378 = DIRECTION('',(0.,0.,1.));
#379 = ADVANCED_FACE('',(#380),#392,.T.);
#380 = FACE_BOUND('',#381,.F.);
#381 = EDGE_LOOP('',(#382,#383,#384,#391));
#382 = ORIENTED_EDGE('',*,*,#87,.T.);
#383 = ORIENTED_EDGE('',*,*,#336,.T.);
#384 = ORIENTED_EDGE('',*,*,#385,.F.);
#385 = EDGE_CURVE('',#352,#327,#386,.T.);
#386 = CIRCLE('',#387,2.);
#387 = AXIS2_PLACEMENT_3D('',#388,#389,#390);
#388 = CARTESIAN_POINT('',(-37.,-7.133535975067,-2.));
#389 = DIRECTION('',(0.,1.,-0.));
#390 = DIRECTION('',(-1.,0.,0.));
#391 = ORIENTED_EDGE('',*,*,#351,.F.);
#392 = CYLINDRICAL_SURFACE('',#393,2.);
#393 = AXIS2_PLACEMENT_3D('',#394,#395,#396);
#394 = CARTESIAN_POINT('',(-37.,0.,-2.));
#395 = DIRECTION('',(0.,-1.,0.));
#396 = DIRECTION('',(-1.,0.,0.));
#397 = ADVANCED_FACE('',(#398),#409,.T.);
#398 = FACE_BOUND('',#399,.T.);
#399 = EDGE_LOOP('',(#400,#401,#402));
#400 = ORIENTED_EDGE('',*,*,#271,.F.);
#401 = ORIENTED_EDGE('',*,*,#119,.T.);
#402 = ORIENTED_EDGE('',*,*,#403,.F.);
#403 = EDGE_CURVE('',#263,#120,#404,.T.);
#404 = CIRCLE('',#405,2.);
#405 = AXIS2_PLACEMENT_3D('',#406,#407,#408);
#406 = CARTESIAN_POINT('',(37.,-7.133535975067,-2.));
#407 = DIRECTION('',(-1.,0.,0.));
#408 = DIRECTION('',(0.,-0.433232012466,0.901282432634));
#409 = SPHERICAL_SURFACE('',#410,2.);
#410 = AXIS2_PLACEMENT_3D('',#411,#412,#413);
#411 = CARTESIAN_POINT('',(37.,-7.133535975067,-2.));
#412 = DIRECTION('',(-1.,0.,0.));
#413 = DIRECTION('',(0.,-0.433232012466,0.901282432634));
#414 = ADVANCED_FACE('',(#415),#441,.T.);
#415 = FACE_BOUND('',#416,.T.);
#416 = EDGE_LOOP('',(#417,#418,#419,#427));
#417 = ORIENTED_EDGE('',*,*,#368,.F.);
#418 = ORIENTED_EDGE('',*,*,#153,.T.);
#419 = ORIENTED_EDGE('',*,*,#420,.T.);
#420 = EDGE_CURVE('',#154,#421,#423,.T.);
#421 = VERTEX_POINT('',#422);
#422 = CARTESIAN_POINT('',(-24.,-23.,-16.79089495992));
#423 = LINE('',#424,#425);
#424 = CARTESIAN_POINT('',(-24.,-23.,-26.01));
#425 = VECTOR('',#426,1.);
#426 = DIRECTION('',(0.,0.,1.));
#427 = ORIENTED_EDGE('',*,*,#428,.F.);
#428 = EDGE_CURVE('',#360,#421,#429,.T.);
#429 = ( BOUNDED_CURVE() B_SPLINE_CURVE(10,(#430,#431,#432,#433,#434,
    #435,#436,#437,#438,#439,#440),.UNSPECIFIED.,.F.,.F.) 
B_SPLINE_CURVE_WITH_KNOTS((11,11),(9.841719182312,37.164492147324),
.PIECEWISE_BEZIER_KNOTS.) CURVE() GEOMETRIC_REPRESENTATION_ITEM() 
RATIONAL_B_SPLINE_CURVE((1.,1.,1.,1.,1.,1.,1.,1.,1.,1.,1.)) 
REPRESENTATION_ITEM('') );
#430 = CARTESIAN_POINT('',(-39.,-8.,-2.924228293262));
#431 = CARTESIAN_POINT('',(-39.,-10.37475632105,-5.119231311747));
#432 = CARTESIAN_POINT('',(-38.58238422976,-12.73669496395,
    -7.302304166045));
#433 = CARTESIAN_POINT('',(-37.75370183699,-15.0078666256,
    -9.401377637391));
#434 = CARTESIAN_POINT('',(-36.54036129375,-17.11356454332,
    -11.34742020967));
#435 = CARTESIAN_POINT('',(-34.96568203852,-18.98479140358,
    -13.07707863783));
#436 = CARTESIAN_POINT('',(-33.0998997492,-20.55450619677,
    -14.52815508089));
#437 = CARTESIAN_POINT('',(-30.97441475121,-21.77997872577,
    -15.66237531043));
#438 = CARTESIAN_POINT('',(-28.68542471021,-22.59622546292,
    -16.41745850844));
#439 = CARTESIAN_POINT('',(-26.33443329314,-23.,-16.79089495992));
#440 = CARTESIAN_POINT('',(-24.,-23.,-16.79089495992));
#441 = CYLINDRICAL_SURFACE('',#442,15.);
#442 = AXIS2_PLACEMENT_3D('',#443,#444,#445);
#443 = CARTESIAN_POINT('',(-24.,-8.,-26.01));
#444 = DIRECTION('',(0.,0.,1.));
#445 = DIRECTION('',(-1.,0.,0.));
#446 = ADVANCED_FACE('',(#447),#458,.F.);
#447 = FACE_BOUND('',#448,.F.);
#448 = EDGE_LOOP('',(#449,#450,#451,#452));
#449 = ORIENTED_EDGE('',*,*,#296,.F.);
#450 = ORIENTED_EDGE('',*,*,#162,.F.);
#451 = ORIENTED_EDGE('',*,*,#420,.T.);
#452 = ORIENTED_EDGE('',*,*,#453,.T.);
#453 = EDGE_CURVE('',#421,#297,#454,.T.);
#454 = LINE('',#455,#456);
#455 = CARTESIAN_POINT('',(-24.,-23.,-16.79089495992));
#456 = VECTOR('',#457,1.);
#457 = DIRECTION('',(1.,0.,0.));
#458 = PLANE('',#459);
#459 = AXIS2_PLACEMENT_3D('',#460,#461,#462);
#460 = CARTESIAN_POINT('',(-39.,-23.,-26.01));
#461 = DIRECTION('',(0.,1.,0.));
#462 = DIRECTION('',(0.,0.,1.));
#463 = ADVANCED_FACE('',(#464),#489,.T.);
#464 = FACE_BOUND('',#465,.T.);
#465 = EDGE_LOOP('',(#466,#476,#482,#483));
#466 = ORIENTED_EDGE('',*,*,#467,.F.);
#467 = EDGE_CURVE('',#468,#470,#472,.T.);
#468 = VERTEX_POINT('',#469);
#469 = CARTESIAN_POINT('',(-38.3,-1.2,-19.9));
#470 = VERTEX_POINT('',#471);
#471 = CARTESIAN_POINT('',(-37.8,-1.2,-19.9));
#472 = LINE('',#473,#474);
#473 = CARTESIAN_POINT('',(-78.,-1.2,-19.9));
#474 = VECTOR('',#475,1.);
#475 = DIRECTION('',(1.,0.,0.));
#476 = ORIENTED_EDGE('',*,*,#477,.T.);
#477 = EDGE_CURVE('',#468,#183,#478,.T.);
#478 = LINE('',#479,#480);
#479 = CARTESIAN_POINT('',(-38.3,-1.2,-59.95));
#480 = VECTOR('',#481,1.);
#481 = DIRECTION('',(0.,0.,1.));
#482 = ORIENTED_EDGE('',*,*,#180,.F.);
#483 = ORIENTED_EDGE('',*,*,#484,.F.);
#484 = EDGE_CURVE('',#470,#181,#485,.T.);
#485 = LINE('',#486,#487);
#486 = CARTESIAN_POINT('',(-37.8,-1.2,-60.45));
#487 = VECTOR('',#488,1.);
#488 = DIRECTION('',(0.,0.,1.));
#489 = PLANE('',#490);
#490 = AXIS2_PLACEMENT_3D('',#491,#492,#493);
#491 = CARTESIAN_POINT('',(-78.,-1.2,-19.9));
#492 = DIRECTION('',(0.,1.,0.));
#493 = DIRECTION('',(0.,0.,1.));
#494 = ADVANCED_FACE('',(#495),#513,.F.);
#495 = FACE_BOUND('',#496,.F.);
#496 = EDGE_LOOP('',(#497,#498,#499,#507));
#497 = ORIENTED_EDGE('',*,*,#477,.T.);
#498 = ORIENTED_EDGE('',*,*,#240,.F.);
#499 = ORIENTED_EDGE('',*,*,#500,.F.);
#500 = EDGE_CURVE('',#501,#232,#503,.T.);
#501 = VERTEX_POINT('',#502);
#502 = CARTESIAN_POINT('',(-38.3,-8.,-19.9));
#503 = LINE('',#504,#505);
#504 = CARTESIAN_POINT('',(-38.3,-8.,-100.));
#505 = VECTOR('',#506,1.);
#506 = DIRECTION('',(0.,0.,1.));
#507 = ORIENTED_EDGE('',*,*,#508,.F.);
#508 = EDGE_CURVE('',#468,#501,#509,.T.);
#509 = LINE('',#510,#511);
#510 = CARTESIAN_POINT('',(-38.3,-23.15,-19.9));
#511 = VECTOR('',#512,1.);
#512 = DIRECTION('',(0.,-1.,0.));
#513 = PLANE('',#514);
#514 = AXIS2_PLACEMENT_3D('',#515,#516,#517);
#515 = CARTESIAN_POINT('',(-38.3,-22.3,-100.));
#516 = DIRECTION('',(1.,0.,0.));
#517 = DIRECTION('',(0.,0.,1.));
#518 = ADVANCED_FACE('',(#519),#538,.T.);
#519 = FACE_BOUND('',#520,.T.);
#520 = EDGE_LOOP('',(#521,#522,#531,#537));
#521 = ORIENTED_EDGE('',*,*,#500,.F.);
#522 = ORIENTED_EDGE('',*,*,#523,.T.);
#523 = EDGE_CURVE('',#501,#524,#526,.T.);
#524 = VERTEX_POINT('',#525);
#525 = CARTESIAN_POINT('',(-24.,-22.3,-19.9));
#526 = CIRCLE('',#527,14.3);
#527 = AXIS2_PLACEMENT_3D('',#528,#529,#530);
#528 = CARTESIAN_POINT('',(-24.,-8.,-19.9));
#529 = DIRECTION('',(0.,0.,1.));
#530 = DIRECTION('',(-1.,0.,0.));
#531 = ORIENTED_EDGE('',*,*,#532,.T.);
#532 = EDGE_CURVE('',#524,#224,#533,.T.);
#533 = LINE('',#534,#535);
#534 = CARTESIAN_POINT('',(-24.,-22.3,-100.));
#535 = VECTOR('',#536,1.);
#536 = DIRECTION('',(0.,0.,1.));
#537 = ORIENTED_EDGE('',*,*,#231,.F.);
#538 = CYLINDRICAL_SURFACE('',#539,14.3);
#539 = AXIS2_PLACEMENT_3D('',#540,#541,#542);
#540 = CARTESIAN_POINT('',(-24.,-8.,-100.));
#541 = DIRECTION('',(0.,0.,1.));
#542 = DIRECTION('',(-1.,0.,0.));
#543 = ADVANCED_FACE('',(#544),#562,.F.);
#544 = FACE_BOUND('',#545,.F.);
#545 = EDGE_LOOP('',(#546,#554,#555,#556));
#546 = ORIENTED_EDGE('',*,*,#547,.F.);
#547 = EDGE_CURVE('',#524,#548,#550,.T.);
#548 = VERTEX_POINT('',#549);
#549 = CARTESIAN_POINT('',(24.,-22.3,-19.9));
#550 = LINE('',#551,#552);
#551 = CARTESIAN_POINT('',(-58.15,-22.3,-19.9));
#552 = VECTOR('',#553,1.);
#553 = DIRECTION('',(1.,0.,0.));
#554 = ORIENTED_EDGE('',*,*,#532,.T.);
#555 = ORIENTED_EDGE('',*,*,#223,.F.);
#556 = ORIENTED_EDGE('',*,*,#557,.F.);
#557 = EDGE_CURVE('',#548,#215,#558,.T.);
#558 = LINE('',#559,#560);
#559 = CARTESIAN_POINT('',(24.,-22.3,-100.));
#560 = VECTOR('',#561,1.);
#561 = DIRECTION('',(0.,0.,1.));
#562 = PLANE('',#563);
#563 = AXIS2_PLACEMENT_3D('',#564,#565,#566);
#564 = CARTESIAN_POINT('',(-38.3,-22.3,-100.));
#565 = DIRECTION('',(0.,1.,0.));
#566 = DIRECTION('',(0.,0.,1.));
#567 = ADVANCED_FACE('',(#568),#587,.T.);
#568 = FACE_BOUND('',#569,.F.);
#569 = EDGE_LOOP('',(#570,#578,#585,#586));
#570 = ORIENTED_EDGE('',*,*,#571,.F.);
#571 = EDGE_CURVE('',#572,#207,#574,.T.);
#572 = VERTEX_POINT('',#573);
#573 = CARTESIAN_POINT('',(38.3,-8.,-19.9));
#574 = LINE('',#575,#576);
#575 = CARTESIAN_POINT('',(38.3,-8.,-100.));
#576 = VECTOR('',#577,1.);
#577 = DIRECTION('',(0.,0.,1.));
#578 = ORIENTED_EDGE('',*,*,#579,.F.);
#579 = EDGE_CURVE('',#548,#572,#580,.T.);
#580 = CIRCLE('',#581,14.3);
#581 = AXIS2_PLACEMENT_3D('',#582,#583,#584);
#582 = CARTESIAN_POINT('',(24.,-8.,-19.9));
#583 = DIRECTION('',(0.,0.,1.));
#584 = DIRECTION('',(1.,0.,0.));
#585 = ORIENTED_EDGE('',*,*,#557,.T.);
#586 = ORIENTED_EDGE('',*,*,#214,.T.);
#587 = CYLINDRICAL_SURFACE('',#588,14.3);
#588 = AXIS2_PLACEMENT_3D('',#589,#590,#591);
#589 = CARTESIAN_POINT('',(24.,-8.,-100.));
#590 = DIRECTION('',(0.,0.,1.));
#591 = DIRECTION('',(1.,0.,0.));
#592 = ADVANCED_FACE('',(#593),#611,.T.);
#593 = FACE_BOUND('',#594,.T.);
#594 = EDGE_LOOP('',(#595,#603,#604,#605));
#595 = ORIENTED_EDGE('',*,*,#596,.T.);
#596 = EDGE_CURVE('',#597,#199,#599,.T.);
#597 = VERTEX_POINT('',#598);
#598 = CARTESIAN_POINT('',(38.3,-1.2,-19.9));
#599 = LINE('',#600,#601);
#600 = CARTESIAN_POINT('',(38.3,-1.2,-59.95));
#601 = VECTOR('',#602,1.);
#602 = DIRECTION('',(0.,0.,1.));
#603 = ORIENTED_EDGE('',*,*,#206,.F.);
#604 = ORIENTED_EDGE('',*,*,#571,.F.);
#605 = ORIENTED_EDGE('',*,*,#606,.F.);
#606 = EDGE_CURVE('',#597,#572,#607,.T.);
#607 = LINE('',#608,#609);
#608 = CARTESIAN_POINT('',(38.3,-23.15,-19.9));
#609 = VECTOR('',#610,1.);
#610 = DIRECTION('',(0.,-1.,0.));
#611 = PLANE('',#612);
#612 = AXIS2_PLACEMENT_3D('',#613,#614,#615);
#613 = CARTESIAN_POINT('',(38.3,-22.3,-100.));
#614 = DIRECTION('',(1.,0.,0.));
#615 = DIRECTION('',(0.,0.,1.));
#616 = ADVANCED_FACE('',(#617),#635,.T.);
#617 = FACE_BOUND('',#618,.T.);
#618 = EDGE_LOOP('',(#619,#627,#633,#634));
#619 = ORIENTED_EDGE('',*,*,#620,.F.);
#620 = EDGE_CURVE('',#621,#597,#623,.T.);
#621 = VERTEX_POINT('',#622);
#622 = CARTESIAN_POINT('',(37.8,-1.2,-19.9));
#623 = LINE('',#624,#625);
#624 = CARTESIAN_POINT('',(-78.,-1.2,-19.9));
#625 = VECTOR('',#626,1.);
#626 = DIRECTION('',(1.,0.,0.));
#627 = ORIENTED_EDGE('',*,*,#628,.T.);
#628 = EDGE_CURVE('',#621,#191,#629,.T.);
#629 = LINE('',#630,#631);
#630 = CARTESIAN_POINT('',(37.8,-1.2,-60.45));
#631 = VECTOR('',#632,1.);
#632 = DIRECTION('',(0.,0.,1.));
#633 = ORIENTED_EDGE('',*,*,#198,.F.);
#634 = ORIENTED_EDGE('',*,*,#596,.F.);
#635 = PLANE('',#636);
#636 = AXIS2_PLACEMENT_3D('',#637,#638,#639);
#637 = CARTESIAN_POINT('',(-78.,-1.2,-19.9));
#638 = DIRECTION('',(0.,1.,0.));
#639 = DIRECTION('',(0.,0.,1.));
#640 = ADVANCED_FACE('',(#641),#666,.F.);
#641 = FACE_BOUND('',#642,.F.);
#642 = EDGE_LOOP('',(#643,#651,#652,#660));
#643 = ORIENTED_EDGE('',*,*,#644,.F.);
#644 = EDGE_CURVE('',#191,#645,#647,.T.);
#645 = VERTEX_POINT('',#646);
#646 = CARTESIAN_POINT('',(37.8,-1.2,-1.2));
#647 = LINE('',#648,#649);
#648 = CARTESIAN_POINT('',(37.8,-1.2,-31.01));
#649 = VECTOR('',#650,1.);
#650 = DIRECTION('',(0.,0.,1.));
#651 = ORIENTED_EDGE('',*,*,#190,.F.);
#652 = ORIENTED_EDGE('',*,*,#653,.T.);
#653 = EDGE_CURVE('',#181,#654,#656,.T.);
#654 = VERTEX_POINT('',#655);
#655 = CARTESIAN_POINT('',(-37.8,-1.2,-1.2));
#656 = LINE('',#657,#658);
#657 = CARTESIAN_POINT('',(-37.8,-1.2,-31.01));
#658 = VECTOR('',#659,1.);
#659 = DIRECTION('',(0.,0.,1.));
#660 = ORIENTED_EDGE('',*,*,#661,.T.);
#661 = EDGE_CURVE('',#654,#645,#662,.T.);
#662 = LINE('',#663,#664);
#663 = CARTESIAN_POINT('',(-37.8,-1.2,-1.2));
#664 = VECTOR('',#665,1.);
#665 = DIRECTION('',(1.,0.,0.));
#666 = PLANE('',#667);
#667 = AXIS2_PLACEMENT_3D('',#668,#669,#670);
#668 = CARTESIAN_POINT('',(-37.8,-1.2,-31.01));
#669 = DIRECTION('',(0.,1.,0.));
#670 = DIRECTION('',(0.,0.,1.));
#671 = ADVANCED_FACE('',(#672),#699,.F.);
#672 = FACE_BOUND('',#673,.F.);
#673 = EDGE_LOOP('',(#674,#683,#697,#698));
#674 = ORIENTED_EDGE('',*,*,#675,.T.);
#675 = EDGE_CURVE('',#297,#676,#678,.T.);
#676 = VERTEX_POINT('',#677);
#677 = CARTESIAN_POINT('',(24.,-22.45907440828,-15.42301270216));
#678 = CIRCLE('',#679,2.);
#679 = AXIS2_PLACEMENT_3D('',#680,#681,#682);
#680 = CARTESIAN_POINT('',(24.,-21.,-16.79089495992));
#681 = DIRECTION('',(-1.,0.,0.));
#682 = DIRECTION('',(0.,-1.,0.));
#683 = ORIENTED_EDGE('',*,*,#684,.T.);
#684 = EDGE_CURVE('',#676,#255,#685,.T.);
#685 = ( BOUNDED_CURVE() B_SPLINE_CURVE(10,(#686,#687,#688,#689,#690,
    #691,#692,#693,#694,#695,#696),.UNSPECIFIED.,.F.,.F.) 
B_SPLINE_CURVE_WITH_KNOTS((11,11),(85.164492147324,112.48726511233),
.PIECEWISE_BEZIER_KNOTS.) CURVE() GEOMETRIC_REPRESENTATION_ITEM() 
RATIONAL_B_SPLINE_CURVE((1.,1.,1.,1.,1.000000000001,0.999999999999,1.,1.
,1.,1.,1.)) REPRESENTATION_ITEM('') );
#686 = CARTESIAN_POINT('',(24.,-22.45907440828,-15.42301270216));
#687 = CARTESIAN_POINT('',(26.039748984513,-22.45907440828,
    -15.42301270216));
#688 = CARTESIAN_POINT('',(28.100930424962,-22.10354800635,
    -15.04378454011));
#689 = CARTESIAN_POINT('',(30.109191290626,-21.38108251547,
    -14.27315468316));
#690 = CARTESIAN_POINT('',(31.954984675009,-20.29450272316,
    -13.11413623804));
#691 = CARTESIAN_POINT('',(33.56232458148,-18.92421783664,
    -11.65249902575));
#692 = CARTESIAN_POINT('',(34.918018711578,-17.29194572741,
    -9.911408775906));
#693 = CARTESIAN_POINT('',(35.954837651726,-15.46506405955,
    -7.962734996863));
#694 = CARTESIAN_POINT('',(36.660813069175,-13.49741765831,
    -5.863912168872));
#695 = CARTESIAN_POINT('',(37.011680032369,-11.45362631665,
    -3.683868071094));
#696 = CARTESIAN_POINT('',(37.001936102227,-9.398900568058,
    -1.492160605929));
#697 = ORIENTED_EDGE('',*,*,#254,.F.);
#698 = ORIENTED_EDGE('',*,*,#304,.F.);
#699 = ( BOUNDED_SURFACE() B_SPLINE_SURFACE(2,10,(
    (#700,#701,#702,#703,#704,#705,#706,#707,#708,#709,#710)
    ,(#711,#712,#713,#714,#715,#716,#717,#718,#719,#720,#721)
    ,(#722,#723,#724,#725,#726,#727,#728,#729,#730,#731,#732
)),.UNSPECIFIED.,.F.,.F.,.F.) B_SPLINE_SURFACE_WITH_KNOTS((3,3),(11,11),
  (0.,27.322772965013),(85.164492147324,112.48726511233),
.PIECEWISE_BEZIER_KNOTS.) GEOMETRIC_REPRESENTATION_ITEM() 
RATIONAL_B_SPLINE_SURFACE((
    (1.,1.,1.,1.,1.000000000001,0.999999999999,1.,1.,1.,1.,1.)
    ,(0.929929353268,0.929929353268,0.924665591136,0.91403918803
      ,0.897997882585,0.876876421077,0.850925170414,0.820498074604
      ,0.786019514805,0.747981131915,0.707106781187)
    ,(1.,1.,1.,1.,1.000000000001,0.999999999999,1.,1.,1.,1.,1.
))) REPRESENTATION_ITEM('') SURFACE() );
#700 = CARTESIAN_POINT('',(24.,-23.,-16.79089495992));
#701 = CARTESIAN_POINT('',(26.334433293148,-23.,-16.79089495992));
#702 = CARTESIAN_POINT('',(28.685424710216,-22.59622546292,
    -16.41745850844));
#703 = CARTESIAN_POINT('',(30.974414751212,-21.77997872577,
    -15.66237531043));
#704 = CARTESIAN_POINT('',(33.0998997492,-20.55450619677,-14.52815508089
    ));
#705 = CARTESIAN_POINT('',(34.965682038521,-18.98479140358,
    -13.07707863783));
#706 = CARTESIAN_POINT('',(36.540361293749,-17.11356454332,
    -11.34742020967));
#707 = CARTESIAN_POINT('',(37.753701836998,-15.0078666256,-9.40137763739
    ));
#708 = CARTESIAN_POINT('',(38.582384229759,-12.73669496395,
    -7.302304166046));
#709 = CARTESIAN_POINT('',(39.,-10.37475632105,-5.119231311747));
#710 = CARTESIAN_POINT('',(39.,-8.,-2.924228293262));
#711 = CARTESIAN_POINT('',(24.,-23.,-16.));
#712 = CARTESIAN_POINT('',(26.210132314764,-23.,-16.));
#713 = CARTESIAN_POINT('',(28.464111758853,-22.63715035101,
    -15.61296037441));
#714 = CARTESIAN_POINT('',(30.684198241862,-21.88937393477,
    -14.81533219709));
#715 = CARTESIAN_POINT('',(32.755844742169,-20.75113237242,
    -13.60120786392));
#716 = CARTESIAN_POINT('',(34.579016221043,-19.30111130328,
    -12.0545187235));
#717 = CARTESIAN_POINT('',(36.135082950714,-17.57825355443,
    -10.21680379139));
#718 = CARTESIAN_POINT('',(37.35499748234,-15.66309445336,
    -8.173967416919));
#719 = CARTESIAN_POINT('',(38.238810486433,-13.62576488385,
    -6.000815876116));
#720 = CARTESIAN_POINT('',(38.781626671984,-11.53801685806,
    -3.773884648602));
#721 = CARTESIAN_POINT('',(39.,-9.45907440828,-1.556346035499));
#722 = CARTESIAN_POINT('',(24.,-22.45907440828,-15.42301270216));
#723 = CARTESIAN_POINT('',(26.039748984513,-22.45907440828,
    -15.42301270216));
#724 = CARTESIAN_POINT('',(28.100930424962,-22.10354800635,
    -15.04378454011));
#725 = CARTESIAN_POINT('',(30.109191290626,-21.38108251547,
    -14.27315468316));
#726 = CARTESIAN_POINT('',(31.954984675009,-20.29450272316,
    -13.11413623804));
#727 = CARTESIAN_POINT('',(33.56232458148,-18.92421783664,
    -11.65249902575));
#728 = CARTESIAN_POINT('',(34.918018711578,-17.29194572741,
    -9.911408775906));
#729 = CARTESIAN_POINT('',(35.954837651726,-15.46506405955,
    -7.962734996863));
#730 = CARTESIAN_POINT('',(36.660813069175,-13.49741765831,
    -5.863912168872));
#731 = CARTESIAN_POINT('',(37.011680032369,-11.45362631665,
    -3.683868071094));
#732 = CARTESIAN_POINT('',(37.001936102227,-9.398900568058,
    -1.492160605929));
#733 = ADVANCED_FACE('',(#734,#777),#788,.F.);
#734 = FACE_BOUND('',#735,.F.);
#735 = EDGE_LOOP('',(#736,#744,#745,#746,#754,#770));
#736 = ORIENTED_EDGE('',*,*,#737,.F.);
#737 = EDGE_CURVE('',#263,#738,#740,.T.);
#738 = VERTEX_POINT('',#739);
#739 = CARTESIAN_POINT('',(-37.,-8.592610383348,-0.632117742237));
#740 = LINE('',#741,#742);
#741 = CARTESIAN_POINT('',(39.,-8.592610383348,-0.632117742237));
#742 = VECTOR('',#743,1.);
#743 = DIRECTION('',(-1.,0.,0.));
#744 = ORIENTED_EDGE('',*,*,#262,.F.);
#745 = ORIENTED_EDGE('',*,*,#684,.F.);
#746 = ORIENTED_EDGE('',*,*,#747,.F.);
#747 = EDGE_CURVE('',#748,#676,#750,.T.);
#748 = VERTEX_POINT('',#749);
#749 = CARTESIAN_POINT('',(-24.,-22.45907440828,-15.42301270216));
#750 = LINE('',#751,#752);
#751 = CARTESIAN_POINT('',(-24.,-22.45907440828,-15.42301270216));
#752 = VECTOR('',#753,1.);
#753 = DIRECTION('',(1.,0.,0.));
#754 = ORIENTED_EDGE('',*,*,#755,.F.);
#755 = EDGE_CURVE('',#756,#748,#758,.T.);
#756 = VERTEX_POINT('',#757);
#757 = CARTESIAN_POINT('',(-37.00193610222,-9.398900568058,
    -1.492160605929));
#758 = ( BOUNDED_CURVE() B_SPLINE_CURVE(10,(#759,#760,#761,#762,#763,
    #764,#765,#766,#767,#768,#769),.UNSPECIFIED.,.F.,.F.) 
B_SPLINE_CURVE_WITH_KNOTS((11,11),(9.841719182312,37.164492147324),
.PIECEWISE_BEZIER_KNOTS.) CURVE() GEOMETRIC_REPRESENTATION_ITEM() 
RATIONAL_B_SPLINE_CURVE((1.,1.,1.,1.,1.,1.,1.,1.,1.,1.,1.)) 
REPRESENTATION_ITEM('') );
#759 = CARTESIAN_POINT('',(-37.00193610222,-9.398900568058,
    -1.492160605929));
#760 = CARTESIAN_POINT('',(-37.01168003236,-11.45362631665,
    -3.683868071095));
#761 = CARTESIAN_POINT('',(-36.66081306917,-13.49741765831,
    -5.86391216887));
#762 = CARTESIAN_POINT('',(-35.95483765172,-15.46506405956,
    -7.962734996866));
#763 = CARTESIAN_POINT('',(-34.91801871157,-17.29194572741,
    -9.911408775902));
#764 = CARTESIAN_POINT('',(-33.56232458147,-18.92421783664,
    -11.65249902576));
#765 = CARTESIAN_POINT('',(-31.954984675,-20.29450272316,-13.11413623804
    ));
#766 = CARTESIAN_POINT('',(-30.10919129062,-21.38108251547,
    -14.27315468317));
#767 = CARTESIAN_POINT('',(-28.10093042496,-22.10354800635,
    -15.04378454011));
#768 = CARTESIAN_POINT('',(-26.03974898451,-22.45907440828,
    -15.42301270216));
#769 = CARTESIAN_POINT('',(-24.,-22.45907440828,-15.42301270216));
#770 = ORIENTED_EDGE('',*,*,#771,.F.);
#771 = EDGE_CURVE('',#738,#756,#772,.T.);
#772 = ( BOUNDED_CURVE() B_SPLINE_CURVE(3,(#773,#774,#775,#776),
.UNSPECIFIED.,.F.,.F.) B_SPLINE_CURVE_WITH_KNOTS((4,4),(8.769909037681,
9.841719182312),.PIECEWISE_BEZIER_KNOTS.) CURVE() 
GEOMETRIC_REPRESENTATION_ITEM() RATIONAL_B_SPLINE_CURVE((1.,1.,1.,1.)) 
REPRESENTATION_ITEM('') );
#773 = CARTESIAN_POINT('',(-37.00000032649,-8.592610383348,
    -0.632117742237));
#774 = CARTESIAN_POINT('',(-37.0000168756,-8.861570561779,
    -0.919008599231));
#775 = CARTESIAN_POINT('',(-37.00066199494,-9.130226532594,-1.2055749681
    ));
#776 = CARTESIAN_POINT('',(-37.00193610222,-9.398900568058,
    -1.492160605929));
#777 = FACE_BOUND('',#778,.F.);
#778 = EDGE_LOOP('',(#779));
#779 = ORIENTED_EDGE('',*,*,#780,.F.);
#780 = EDGE_CURVE('',#781,#781,#783,.T.);
#781 = VERTEX_POINT('',#782);
#782 = CARTESIAN_POINT('',(0.,-9.504670483539,-1.604981849108));
#783 = CIRCLE('',#784,5.);
#784 = AXIS2_PLACEMENT_3D('',#785,#786,#787);
#785 = CARTESIAN_POINT('',(0.,-12.92437612794,-5.252667869809));
#786 = DIRECTION('',(0.,0.72953720414,-0.683941128881));
#787 = DIRECTION('',(0.,0.683941128881,0.72953720414));
#788 = PLANE('',#789);
#789 = AXIS2_PLACEMENT_3D('',#790,#791,#792);
#790 = CARTESIAN_POINT('',(-200.,128.78822577626,145.90744082801));
#791 = DIRECTION('',(0.,0.72953720414,-0.683941128881));
#792 = DIRECTION('',(1.,0.,0.));
#793 = ADVANCED_FACE('',(#794),#806,.T.);
#794 = FACE_BOUND('',#795,.F.);
#795 = EDGE_LOOP('',(#796,#797,#798,#799));
#796 = ORIENTED_EDGE('',*,*,#326,.F.);
#797 = ORIENTED_EDGE('',*,*,#403,.F.);
#798 = ORIENTED_EDGE('',*,*,#737,.T.);
#799 = ORIENTED_EDGE('',*,*,#800,.F.);
#800 = EDGE_CURVE('',#327,#738,#801,.T.);
#801 = CIRCLE('',#802,2.);
#802 = AXIS2_PLACEMENT_3D('',#803,#804,#805);
#803 = CARTESIAN_POINT('',(-37.,-7.133535975067,-2.));
#804 = DIRECTION('',(1.,0.,0.));
#805 = DIRECTION('',(0.,-4.440892098501E-16,1.));
#806 = CYLINDRICAL_SURFACE('',#807,2.);
#807 = AXIS2_PLACEMENT_3D('',#808,#809,#810);
#808 = CARTESIAN_POINT('',(39.,-7.133535975067,-2.));
#809 = DIRECTION('',(-1.,0.,0.));
#810 = DIRECTION('',(0.,0.,1.));
#811 = ADVANCED_FACE('',(#812),#829,.F.);
#812 = FACE_BOUND('',#813,.F.);
#813 = EDGE_LOOP('',(#814,#821,#822,#828));
#814 = ORIENTED_EDGE('',*,*,#815,.T.);
#815 = EDGE_CURVE('',#352,#738,#816,.T.);
#816 = CIRCLE('',#817,2.);
#817 = AXIS2_PLACEMENT_3D('',#818,#819,#820);
#818 = CARTESIAN_POINT('',(-37.,-7.133535975067,-2.));
#819 = DIRECTION('',(-0.,0.683941128881,0.72953720414));
#820 = DIRECTION('',(0.,-0.72953720414,0.683941128881));
#821 = ORIENTED_EDGE('',*,*,#771,.T.);
#822 = ORIENTED_EDGE('',*,*,#823,.F.);
#823 = EDGE_CURVE('',#360,#756,#824,.T.);
#824 = ( BOUNDED_CURVE() B_SPLINE_CURVE(2,(#825,#826,#827),
.UNSPECIFIED.,.F.,.F.) B_SPLINE_CURVE_WITH_KNOTS((3,3),(0.,
1.071810144631),.PIECEWISE_BEZIER_KNOTS.) CURVE() 
GEOMETRIC_REPRESENTATION_ITEM() RATIONAL_B_SPLINE_CURVE((1.,
0.707106781187,1.)) REPRESENTATION_ITEM('') );
#825 = CARTESIAN_POINT('',(-39.,-8.,-2.924228293262));
#826 = CARTESIAN_POINT('',(-39.,-9.45907440828,-1.556346035499));
#827 = CARTESIAN_POINT('',(-37.00193610222,-9.398900568058,
    -1.492160605929));
#828 = ORIENTED_EDGE('',*,*,#359,.F.);
#829 = ( BOUNDED_SURFACE() B_SPLINE_SURFACE(2,3,(
    (#830,#831,#832,#833)
    ,(#834,#835,#836,#837)
    ,(#838,#839,#840,#841
)),.UNSPECIFIED.,.F.,.F.,.F.) B_SPLINE_SURFACE_WITH_KNOTS((3,3),(4,4),(
    0.,1.071810144631),(8.769909037681,9.841719182312),
.PIECEWISE_BEZIER_KNOTS.) GEOMETRIC_REPRESENTATION_ITEM() 
RATIONAL_B_SPLINE_SURFACE((
    (1.,1.,1.,1.)
    ,(0.707106781187,0.707106781187,0.707106781187,0.707106781187)
,(1.,1.,1.,1.))) REPRESENTATION_ITEM('') SURFACE() );
#830 = CARTESIAN_POINT('',(-39.,-7.134317583071,-2.000833715204));
#831 = CARTESIAN_POINT('',(-39.,-7.423086318552,-2.308853699717));
#832 = CARTESIAN_POINT('',(-39.,-7.711535996952,-2.616533356677));
#833 = CARTESIAN_POINT('',(-39.,-8.,-2.924228293262));
#834 = CARTESIAN_POINT('',(-39.,-8.593391991351,-0.632951457441));
#835 = CARTESIAN_POINT('',(-39.,-8.882160726832,-0.940971441954));
#836 = CARTESIAN_POINT('',(-39.,-9.170610405232,-1.248651098915));
#837 = CARTESIAN_POINT('',(-39.,-9.45907440828,-1.556346035499));
#838 = CARTESIAN_POINT('',(-37.00000032649,-8.592610383348,
    -0.632117742237));
#839 = CARTESIAN_POINT('',(-37.0000168756,-8.861570561779,
    -0.919008599231));
#840 = CARTESIAN_POINT('',(-37.00066199494,-9.130226532594,-1.2055749681
    ));
#841 = CARTESIAN_POINT('',(-37.00193610222,-9.398900568058,
    -1.492160605929));
#842 = ADVANCED_FACE('',(#843),#848,.T.);
#843 = FACE_BOUND('',#844,.T.);
#844 = EDGE_LOOP('',(#845,#846,#847));
#845 = ORIENTED_EDGE('',*,*,#385,.F.);
#846 = ORIENTED_EDGE('',*,*,#815,.T.);
#847 = ORIENTED_EDGE('',*,*,#800,.F.);
#848 = SPHERICAL_SURFACE('',#849,2.);
#849 = AXIS2_PLACEMENT_3D('',#850,#851,#852);
#850 = CARTESIAN_POINT('',(-37.,-7.133535975067,-2.));
#851 = DIRECTION('',(1.,0.,0.));
#852 = DIRECTION('',(0.,-4.440892098501E-16,1.));
#853 = ADVANCED_FACE('',(#854),#865,.F.);
#854 = FACE_BOUND('',#855,.F.);
#855 = EDGE_LOOP('',(#856,#857,#858,#864));
#856 = ORIENTED_EDGE('',*,*,#823,.T.);
#857 = ORIENTED_EDGE('',*,*,#755,.T.);
#858 = ORIENTED_EDGE('',*,*,#859,.F.);
#859 = EDGE_CURVE('',#421,#748,#860,.T.);
#860 = ( BOUNDED_CURVE() B_SPLINE_CURVE(2,(#861,#862,#863),
.UNSPECIFIED.,.F.,.F.) B_SPLINE_CURVE_WITH_KNOTS((3,3),(0.,
27.322772965013),.PIECEWISE_BEZIER_KNOTS.) CURVE() 
GEOMETRIC_REPRESENTATION_ITEM() RATIONAL_B_SPLINE_CURVE((1.,
0.929929353268,1.)) REPRESENTATION_ITEM('') );
#861 = CARTESIAN_POINT('',(-24.,-23.,-16.79089495992));
#862 = CARTESIAN_POINT('',(-24.,-23.,-16.));
#863 = CARTESIAN_POINT('',(-24.,-22.45907440828,-15.42301270216));
#864 = ORIENTED_EDGE('',*,*,#428,.F.);
#865 = ( BOUNDED_SURFACE() B_SPLINE_SURFACE(2,10,(
    (#866,#867,#868,#869,#870,#871,#872,#873,#874,#875,#876)
    ,(#877,#878,#879,#880,#881,#882,#883,#884,#885,#886,#887)
    ,(#888,#889,#890,#891,#892,#893,#894,#895,#896,#897,#898
)),.UNSPECIFIED.,.F.,.F.,.F.) B_SPLINE_SURFACE_WITH_KNOTS((3,3),(11,11),
  (0.,27.322772965013),(9.841719182312,37.164492147324),
.PIECEWISE_BEZIER_KNOTS.) GEOMETRIC_REPRESENTATION_ITEM() 
RATIONAL_B_SPLINE_SURFACE((
    (1.,1.,1.,1.,1.,1.,1.,1.,1.,1.,1.)
    ,(0.707106781187,0.747981131915,0.786019514805,0.820498074604
      ,0.850925170414,0.876876421078,0.897997882585,0.914039188031
      ,0.924665591136,0.929929353268,0.929929353268)
,(1.,1.,1.,1.,1.,1.,1.,1.,1.,1.,1.
  ))) REPRESENTATION_ITEM('') SURFACE() );
#866 = CARTESIAN_POINT('',(-39.,-8.,-2.924228293262));
#867 = CARTESIAN_POINT('',(-39.,-10.37475632105,-5.119231311747));
#868 = CARTESIAN_POINT('',(-38.58238422976,-12.73669496395,
    -7.302304166045));
#869 = CARTESIAN_POINT('',(-37.75370183699,-15.0078666256,
    -9.401377637391));
#870 = CARTESIAN_POINT('',(-36.54036129375,-17.11356454332,
    -11.34742020967));
#871 = CARTESIAN_POINT('',(-34.96568203852,-18.98479140358,
    -13.07707863783));
#872 = CARTESIAN_POINT('',(-33.0998997492,-20.55450619677,
    -14.52815508089));
#873 = CARTESIAN_POINT('',(-30.97441475121,-21.77997872577,
    -15.66237531043));
#874 = CARTESIAN_POINT('',(-28.68542471021,-22.59622546292,
    -16.41745850844));
#875 = CARTESIAN_POINT('',(-26.33443329314,-23.,-16.79089495992));
#876 = CARTESIAN_POINT('',(-24.,-23.,-16.79089495992));
#877 = CARTESIAN_POINT('',(-39.,-9.45907440828,-1.556346035499));
#878 = CARTESIAN_POINT('',(-38.78162667198,-11.53801685806,
    -3.773884648602));
#879 = CARTESIAN_POINT('',(-38.23881048643,-13.62576488385,
    -6.000815876115));
#880 = CARTESIAN_POINT('',(-37.35499748234,-15.66309445336,
    -8.173967416921));
#881 = CARTESIAN_POINT('',(-36.13508295071,-17.57825355442,
    -10.21680379139));
#882 = CARTESIAN_POINT('',(-34.57901622104,-19.30111130328,
    -12.0545187235));
#883 = CARTESIAN_POINT('',(-32.75584474216,-20.75113237242,
    -13.60120786392));
#884 = CARTESIAN_POINT('',(-30.68419824186,-21.88937393478,
    -14.81533219709));
#885 = CARTESIAN_POINT('',(-28.46411175885,-22.63715035101,
    -15.61296037441));
#886 = CARTESIAN_POINT('',(-26.21013231476,-23.,-16.));
#887 = CARTESIAN_POINT('',(-24.,-23.,-16.));
#888 = CARTESIAN_POINT('',(-37.00193610222,-9.398900568058,
    -1.492160605929));
#889 = CARTESIAN_POINT('',(-37.01168003236,-11.45362631665,
    -3.683868071095));
#890 = CARTESIAN_POINT('',(-36.66081306917,-13.49741765831,
    -5.86391216887));
#891 = CARTESIAN_POINT('',(-35.95483765172,-15.46506405956,
    -7.962734996866));
#892 = CARTESIAN_POINT('',(-34.91801871157,-17.29194572741,
    -9.911408775902));
#893 = CARTESIAN_POINT('',(-33.56232458147,-18.92421783664,
    -11.65249902576));
#894 = CARTESIAN_POINT('',(-31.954984675,-20.29450272316,-13.11413623804
    ));
#895 = CARTESIAN_POINT('',(-30.10919129062,-21.38108251547,
    -14.27315468317));
#896 = CARTESIAN_POINT('',(-28.10093042496,-22.10354800635,
    -15.04378454011));
#897 = CARTESIAN_POINT('',(-26.03974898451,-22.45907440828,
    -15.42301270216));
#898 = CARTESIAN_POINT('',(-24.,-22.45907440828,-15.42301270216));
#899 = ADVANCED_FACE('',(#900),#906,.T.);
#900 = FACE_BOUND('',#901,.F.);
#901 = EDGE_LOOP('',(#902,#903,#904,#905));
#902 = ORIENTED_EDGE('',*,*,#859,.T.);
#903 = ORIENTED_EDGE('',*,*,#747,.T.);
#904 = ORIENTED_EDGE('',*,*,#675,.F.);
#905 = ORIENTED_EDGE('',*,*,#453,.F.);
#906 = CYLINDRICAL_SURFACE('',#907,2.);
#907 = AXIS2_PLACEMENT_3D('',#908,#909,#910);
#908 = CARTESIAN_POINT('',(-24.,-21.,-16.79089495992));
#909 = DIRECTION('',(1.,0.,0.));
#910 = DIRECTION('',(0.,-1.,0.));
#911 = ADVANCED_FACE('',(#912),#961,.F.);
#912 = FACE_BOUND('',#913,.F.);
#913 = EDGE_LOOP('',(#914,#915,#916,#917,#918,#919,#920,#921,#929,#938,
    #946,#955));
#914 = ORIENTED_EDGE('',*,*,#467,.F.);
#915 = ORIENTED_EDGE('',*,*,#508,.T.);
#916 = ORIENTED_EDGE('',*,*,#523,.T.);
#917 = ORIENTED_EDGE('',*,*,#547,.T.);
#918 = ORIENTED_EDGE('',*,*,#579,.T.);
#919 = ORIENTED_EDGE('',*,*,#606,.F.);
#920 = ORIENTED_EDGE('',*,*,#620,.F.);
#921 = ORIENTED_EDGE('',*,*,#922,.T.);
#922 = EDGE_CURVE('',#621,#923,#925,.T.);
#923 = VERTEX_POINT('',#924);
#924 = CARTESIAN_POINT('',(37.8,-8.,-19.9));
#925 = LINE('',#926,#927);
#926 = CARTESIAN_POINT('',(37.8,-22.9,-19.9));
#927 = VECTOR('',#928,1.);
#928 = DIRECTION('',(0.,-1.,0.));
#929 = ORIENTED_EDGE('',*,*,#930,.F.);
#930 = EDGE_CURVE('',#931,#923,#933,.T.);
#931 = VERTEX_POINT('',#932);
#932 = CARTESIAN_POINT('',(24.,-21.8,-19.9));
#933 = CIRCLE('',#934,13.8);
#934 = AXIS2_PLACEMENT_3D('',#935,#936,#937);
#935 = CARTESIAN_POINT('',(24.,-8.,-19.9));
#936 = DIRECTION('',(0.,0.,1.));
#937 = DIRECTION('',(1.,0.,0.));
#938 = ORIENTED_EDGE('',*,*,#939,.F.);
#939 = EDGE_CURVE('',#940,#931,#942,.T.);
#940 = VERTEX_POINT('',#941);
#941 = CARTESIAN_POINT('',(-24.,-21.8,-19.9));
#942 = LINE('',#943,#944);
#943 = CARTESIAN_POINT('',(-57.9,-21.8,-19.9));
#944 = VECTOR('',#945,1.);
#945 = DIRECTION('',(1.,0.,0.));
#946 = ORIENTED_EDGE('',*,*,#947,.F.);
#947 = EDGE_CURVE('',#948,#940,#950,.T.);
#948 = VERTEX_POINT('',#949);
#949 = CARTESIAN_POINT('',(-37.8,-8.,-19.9));
#950 = CIRCLE('',#951,13.8);
#951 = AXIS2_PLACEMENT_3D('',#952,#953,#954);
#952 = CARTESIAN_POINT('',(-24.,-8.,-19.9));
#953 = DIRECTION('',(0.,0.,1.));
#954 = DIRECTION('',(-1.,0.,0.));
#955 = ORIENTED_EDGE('',*,*,#956,.F.);
#956 = EDGE_CURVE('',#470,#948,#957,.T.);
#957 = LINE('',#958,#959);
#958 = CARTESIAN_POINT('',(-37.8,-22.9,-19.9));
#959 = VECTOR('',#960,1.);
#960 = DIRECTION('',(0.,-1.,0.));
#961 = PLANE('',#962);
#962 = AXIS2_PLACEMENT_3D('',#963,#964,#965);
#963 = CARTESIAN_POINT('',(-78.,-24.,-19.9));
#964 = DIRECTION('',(0.,0.,1.));
#965 = DIRECTION('',(1.,0.,0.));
#966 = ADVANCED_FACE('',(#967),#992,.F.);
#967 = FACE_BOUND('',#968,.F.);
#968 = EDGE_LOOP('',(#969,#977,#985,#991));
#969 = ORIENTED_EDGE('',*,*,#970,.F.);
#970 = EDGE_CURVE('',#971,#654,#973,.T.);
#971 = VERTEX_POINT('',#972);
#972 = CARTESIAN_POINT('',(-37.8,-7.48012158504,-1.2));
#973 = LINE('',#974,#975);
#974 = CARTESIAN_POINT('',(-37.8,-21.8,-1.2));
#975 = VECTOR('',#976,1.);
#976 = DIRECTION('',(0.,1.,0.));
#977 = ORIENTED_EDGE('',*,*,#978,.F.);
#978 = EDGE_CURVE('',#979,#971,#981,.T.);
#979 = VERTEX_POINT('',#980);
#980 = CARTESIAN_POINT('',(37.8,-7.48012158504,-1.2));
#981 = LINE('',#982,#983);
#982 = CARTESIAN_POINT('',(-118.9,-7.48012158504,-1.2));
#983 = VECTOR('',#984,1.);
#984 = DIRECTION('',(-1.,0.,0.));
#985 = ORIENTED_EDGE('',*,*,#986,.T.);
#986 = EDGE_CURVE('',#979,#645,#987,.T.);
#987 = LINE('',#988,#989);
#988 = CARTESIAN_POINT('',(37.8,-21.8,-1.2));
#989 = VECTOR('',#990,1.);
#990 = DIRECTION('',(0.,1.,0.));
#991 = ORIENTED_EDGE('',*,*,#661,.F.);
#992 = PLANE('',#993);
#993 = AXIS2_PLACEMENT_3D('',#994,#995,#996);
#994 = CARTESIAN_POINT('',(-37.8,-21.8,-1.2));
#995 = DIRECTION('',(0.,0.,1.));
#996 = DIRECTION('',(1.,0.,0.));
#997 = ADVANCED_FACE('',(#998),#1001,.F.);
#998 = FACE_BOUND('',#999,.F.);
#999 = EDGE_LOOP('',(#1000));
#1000 = ORIENTED_EDGE('',*,*,#780,.T.);
#1001 = SPHERICAL_SURFACE('',#1002,41.816666666667);
#1002 = AXIS2_PLACEMENT_3D('',#1003,#1004,#1005);
#1003 = CARTESIAN_POINT('',(0.,-43.21232905316,23.142287997581));
#1004 = DIRECTION('',(0.,0.,1.));
#1005 = DIRECTION('',(1.,0.,0.));
#1006 = ADVANCED_FACE('',(#1007,#1050),#1086,.T.);
#1007 = FACE_BOUND('',#1008,.T.);
#1008 = EDGE_LOOP('',(#1009,#1020,#1026,#1027,#1035,#1044));
#1009 = ORIENTED_EDGE('',*,*,#1010,.T.);
#1010 = EDGE_CURVE('',#1011,#1013,#1015,.T.);
#1011 = VERTEX_POINT('',#1012);
#1012 = CARTESIAN_POINT('',(-24.,-21.8,-16.47453697595));
#1013 = VERTEX_POINT('',#1014);
#1014 = CARTESIAN_POINT('',(-37.8,-8.,-1.754536975957));
#1015 = ELLIPSE('',#1016,20.177175223504,13.8);
#1016 = AXIS2_PLACEMENT_3D('',#1017,#1018,#1019);
#1017 = CARTESIAN_POINT('',(-24.,-8.,-1.754536975957));
#1018 = DIRECTION('',(0.,0.72953720414,-0.683941128881));
#1019 = DIRECTION('',(0.,0.683941128881,0.72953720414));
#1020 = ORIENTED_EDGE('',*,*,#1021,.T.);
#1021 = EDGE_CURVE('',#1013,#971,#1022,.T.);
#1022 = LINE('',#1023,#1024);
#1023 = CARTESIAN_POINT('',(-37.8,50.305524269068,60.438022244382));
#1024 = VECTOR('',#1025,1.);
#1025 = DIRECTION('',(0.,0.683941128881,0.72953720414));
#1026 = ORIENTED_EDGE('',*,*,#978,.F.);
#1027 = ORIENTED_EDGE('',*,*,#1028,.F.);
#1028 = EDGE_CURVE('',#1029,#979,#1031,.T.);
#1029 = VERTEX_POINT('',#1030);
#1030 = CARTESIAN_POINT('',(37.8,-8.,-1.754536975957));
#1031 = LINE('',#1032,#1033);
#1032 = CARTESIAN_POINT('',(37.8,50.305524269068,60.438022244382));
#1033 = VECTOR('',#1034,1.);
#1034 = DIRECTION('',(0.,0.683941128881,0.72953720414));
#1035 = ORIENTED_EDGE('',*,*,#1036,.T.);
#1036 = EDGE_CURVE('',#1029,#1037,#1039,.T.);
#1037 = VERTEX_POINT('',#1038);
#1038 = CARTESIAN_POINT('',(24.,-21.8,-16.47453697595));
#1039 = ELLIPSE('',#1040,20.177175223504,13.8);
#1040 = AXIS2_PLACEMENT_3D('',#1041,#1042,#1043);
#1041 = CARTESIAN_POINT('',(24.,-8.,-1.754536975957));
#1042 = DIRECTION('',(0.,0.72953720414,-0.683941128881));
#1043 = DIRECTION('',(0.,0.683941128881,0.72953720414));
#1044 = ORIENTED_EDGE('',*,*,#1045,.T.);
#1045 = EDGE_CURVE('',#1037,#1011,#1046,.T.);
#1046 = LINE('',#1047,#1048);
#1047 = CARTESIAN_POINT('',(-118.9,-21.8,-16.47453697595));
#1048 = VECTOR('',#1049,1.);
#1049 = DIRECTION('',(-1.,0.,0.));
#1050 = FACE_BOUND('',#1051,.T.);
#1051 = EDGE_LOOP('',(#1052,#1063,#1071,#1080));
#1052 = ORIENTED_EDGE('',*,*,#1053,.F.);
#1053 = EDGE_CURVE('',#1054,#1056,#1058,.T.);
#1054 = VERTEX_POINT('',#1055);
#1055 = CARTESIAN_POINT('',(-18.5,-20.19867555541,-14.76645756839));
#1056 = VERTEX_POINT('',#1057);
#1057 = CARTESIAN_POINT('',(-18.5,-17.73648749144,-12.14012363349));
#1058 = CIRCLE('',#1059,1.8);
#1059 = AXIS2_PLACEMENT_3D('',#1060,#1061,#1062);
#1060 = CARTESIAN_POINT('',(-18.5,-18.96758152342,-13.45329060094));
#1061 = DIRECTION('',(0.,0.72953720414,-0.683941128881));
#1062 = DIRECTION('',(0.,0.683941128881,0.72953720414));
#1063 = ORIENTED_EDGE('',*,*,#1064,.F.);
#1064 = EDGE_CURVE('',#1065,#1054,#1067,.T.);
#1065 = VERTEX_POINT('',#1066);
#1066 = CARTESIAN_POINT('',(18.5,-20.19867555541,-14.76645756839));
#1067 = LINE('',#1068,#1069);
#1068 = CARTESIAN_POINT('',(-109.25,-20.19867555541,-14.76645756839));
#1069 = VECTOR('',#1070,1.);
#1070 = DIRECTION('',(-1.,0.,0.));
#1071 = ORIENTED_EDGE('',*,*,#1072,.F.);
#1072 = EDGE_CURVE('',#1073,#1065,#1075,.T.);
#1073 = VERTEX_POINT('',#1074);
#1074 = CARTESIAN_POINT('',(18.5,-17.73648749144,-12.14012363349));
#1075 = CIRCLE('',#1076,1.8);
#1076 = AXIS2_PLACEMENT_3D('',#1077,#1078,#1079);
#1077 = CARTESIAN_POINT('',(18.5,-18.96758152342,-13.45329060094));
#1078 = DIRECTION('',(0.,0.72953720414,-0.683941128881));
#1079 = DIRECTION('',(0.,0.683941128881,0.72953720414));
#1080 = ORIENTED_EDGE('',*,*,#1081,.T.);
#1081 = EDGE_CURVE('',#1073,#1056,#1082,.T.);
#1082 = LINE('',#1083,#1084);
#1083 = CARTESIAN_POINT('',(-109.25,-17.73648749144,-12.14012363349));
#1084 = VECTOR('',#1085,1.);
#1085 = DIRECTION('',(-1.,0.,0.));
#1086 = PLANE('',#1087);
#1087 = AXIS2_PLACEMENT_3D('',#1088,#1089,#1090);
#1088 = CARTESIAN_POINT('',(-200.,129.66367042123,145.08671147335));
#1089 = DIRECTION('',(0.,0.72953720414,-0.683941128881));
#1090 = DIRECTION('',(1.,0.,0.));
#1091 = ADVANCED_FACE('',(#1092),#1118,.F.);
#1092 = FACE_BOUND('',#1093,.F.);
#1093 = EDGE_LOOP('',(#1094,#1105,#1111,#1112));
#1094 = ORIENTED_EDGE('',*,*,#1095,.T.);
#1095 = EDGE_CURVE('',#1096,#1098,#1100,.T.);
#1096 = VERTEX_POINT('',#1097);
#1097 = CARTESIAN_POINT('',(-18.5,-20.49049043707,-14.49288111684));
#1098 = VERTEX_POINT('',#1099);
#1099 = CARTESIAN_POINT('',(-18.5,-18.02830237309,-11.86654718194));
#1100 = CIRCLE('',#1101,1.8);
#1101 = AXIS2_PLACEMENT_3D('',#1102,#1103,#1104);
#1102 = CARTESIAN_POINT('',(-18.5,-19.25939640508,-13.17971414939));
#1103 = DIRECTION('',(0.,0.72953720414,-0.683941128881));
#1104 = DIRECTION('',(0.,0.683941128881,0.72953720414));
#1105 = ORIENTED_EDGE('',*,*,#1106,.T.);
#1106 = EDGE_CURVE('',#1098,#1056,#1107,.T.);
#1107 = LINE('',#1108,#1109);
#1108 = CARTESIAN_POINT('',(-18.5,-18.02830237309,-11.86654718194));
#1109 = VECTOR('',#1110,1.);
#1110 = DIRECTION('',(0.,0.72953720414,-0.683941128881));
#1111 = ORIENTED_EDGE('',*,*,#1053,.F.);
#1112 = ORIENTED_EDGE('',*,*,#1113,.F.);
#1113 = EDGE_CURVE('',#1096,#1054,#1114,.T.);
#1114 = LINE('',#1115,#1116);
#1115 = CARTESIAN_POINT('',(-18.5,-20.49049043707,-14.49288111684));
#1116 = VECTOR('',#1117,1.);
#1117 = DIRECTION('',(0.,0.72953720414,-0.683941128881));
#1118 = CYLINDRICAL_SURFACE('',#1119,1.8);
#1119 = AXIS2_PLACEMENT_3D('',#1120,#1121,#1122);
#1120 = CARTESIAN_POINT('',(-18.5,-19.25939640508,-13.17971414939));
#1121 = DIRECTION('',(0.,0.72953720414,-0.683941128881));
#1122 = DIRECTION('',(0.,0.683941128881,0.72953720414));
#1123 = ADVANCED_FACE('',(#1124),#1142,.T.);
#1124 = FACE_BOUND('',#1125,.T.);
#1125 = EDGE_LOOP('',(#1126,#1134,#1135,#1136));
#1126 = ORIENTED_EDGE('',*,*,#1127,.F.);
#1127 = EDGE_CURVE('',#1098,#1128,#1130,.T.);
#1128 = VERTEX_POINT('',#1129);
#1129 = CARTESIAN_POINT('',(18.5,-18.02830237309,-11.86654718194));
#1130 = LINE('',#1131,#1132);
#1131 = CARTESIAN_POINT('',(-18.5,-18.02830237309,-11.86654718194));
#1132 = VECTOR('',#1133,1.);
#1133 = DIRECTION('',(1.,0.,0.));
#1134 = ORIENTED_EDGE('',*,*,#1106,.T.);
#1135 = ORIENTED_EDGE('',*,*,#1081,.F.);
#1136 = ORIENTED_EDGE('',*,*,#1137,.F.);
#1137 = EDGE_CURVE('',#1128,#1073,#1138,.T.);
#1138 = LINE('',#1139,#1140);
#1139 = CARTESIAN_POINT('',(18.5,-18.02830237309,-11.86654718194));
#1140 = VECTOR('',#1141,1.);
#1141 = DIRECTION('',(0.,0.72953720414,-0.683941128881));
#1142 = PLANE('',#1143);
#1143 = AXIS2_PLACEMENT_3D('',#1144,#1145,#1146);
#1144 = CARTESIAN_POINT('',(-18.5,-18.02830237309,-11.86654718194));
#1145 = DIRECTION('',(0.,-0.683941128881,-0.72953720414));
#1146 = DIRECTION('',(0.,0.72953720414,-0.683941128881));
#1147 = ADVANCED_FACE('',(#1148),#1167,.F.);
#1148 = FACE_BOUND('',#1149,.F.);
#1149 = EDGE_LOOP('',(#1150,#1151,#1152,#1161));
#1150 = ORIENTED_EDGE('',*,*,#1072,.F.);
#1151 = ORIENTED_EDGE('',*,*,#1137,.F.);
#1152 = ORIENTED_EDGE('',*,*,#1153,.T.);
#1153 = EDGE_CURVE('',#1128,#1154,#1156,.T.);
#1154 = VERTEX_POINT('',#1155);
#1155 = CARTESIAN_POINT('',(18.5,-20.49049043707,-14.49288111684));
#1156 = CIRCLE('',#1157,1.8);
#1157 = AXIS2_PLACEMENT_3D('',#1158,#1159,#1160);
#1158 = CARTESIAN_POINT('',(18.5,-19.25939640508,-13.17971414939));
#1159 = DIRECTION('',(0.,0.72953720414,-0.683941128881));
#1160 = DIRECTION('',(0.,0.683941128881,0.72953720414));
#1161 = ORIENTED_EDGE('',*,*,#1162,.T.);
#1162 = EDGE_CURVE('',#1154,#1065,#1163,.T.);
#1163 = LINE('',#1164,#1165);
#1164 = CARTESIAN_POINT('',(18.5,-20.49049043707,-14.49288111684));
#1165 = VECTOR('',#1166,1.);
#1166 = DIRECTION('',(0.,0.72953720414,-0.683941128881));
#1167 = CYLINDRICAL_SURFACE('',#1168,1.8);
#1168 = AXIS2_PLACEMENT_3D('',#1169,#1170,#1171);
#1169 = CARTESIAN_POINT('',(18.5,-19.25939640508,-13.17971414939));
#1170 = DIRECTION('',(0.,0.72953720414,-0.683941128881));
#1171 = DIRECTION('',(0.,0.683941128881,0.72953720414));
#1172 = ADVANCED_FACE('',(#1173),#1184,.F.);
#1173 = FACE_BOUND('',#1174,.F.);
#1174 = EDGE_LOOP('',(#1175,#1181,#1182,#1183));
#1175 = ORIENTED_EDGE('',*,*,#1176,.F.);
#1176 = EDGE_CURVE('',#1096,#1154,#1177,.T.);
#1177 = LINE('',#1178,#1179);
#1178 = CARTESIAN_POINT('',(-18.5,-20.49049043707,-14.49288111684));
#1179 = VECTOR('',#1180,1.);
#1180 = DIRECTION('',(1.,0.,0.));
#1181 = ORIENTED_EDGE('',*,*,#1113,.T.);
#1182 = ORIENTED_EDGE('',*,*,#1064,.F.);
#1183 = ORIENTED_EDGE('',*,*,#1162,.F.);
#1184 = PLANE('',#1185);
#1185 = AXIS2_PLACEMENT_3D('',#1186,#1187,#1188);
#1186 = CARTESIAN_POINT('',(-18.5,-20.49049043707,-14.49288111684));
#1187 = DIRECTION('',(0.,-0.683941128881,-0.72953720414));
#1188 = DIRECTION('',(0.,0.72953720414,-0.683941128881));
#1189 = ADVANCED_FACE('',(#1190),#1196,.T.);
#1190 = FACE_BOUND('',#1191,.T.);
#1191 = EDGE_LOOP('',(#1192,#1193,#1194,#1195));
#1192 = ORIENTED_EDGE('',*,*,#1095,.T.);
#1193 = ORIENTED_EDGE('',*,*,#1127,.T.);
#1194 = ORIENTED_EDGE('',*,*,#1153,.T.);
#1195 = ORIENTED_EDGE('',*,*,#1176,.F.);
#1196 = PLANE('',#1197);
#1197 = AXIS2_PLACEMENT_3D('',#1198,#1199,#1200);
#1198 = CARTESIAN_POINT('',(6.703233356227E-16,-19.25939640508,
    -13.17971414939));
#1199 = DIRECTION('',(0.,0.72953720414,-0.683941128881));
#1200 = DIRECTION('',(0.,0.683941128881,0.72953720414));
#1201 = ADVANCED_FACE('',(#1202),#1215,.T.);
#1202 = FACE_BOUND('',#1203,.T.);
#1203 = EDGE_LOOP('',(#1204,#1205,#1206,#1207,#1208,#1214));
#1204 = ORIENTED_EDGE('',*,*,#484,.T.);
#1205 = ORIENTED_EDGE('',*,*,#653,.T.);
#1206 = ORIENTED_EDGE('',*,*,#970,.F.);
#1207 = ORIENTED_EDGE('',*,*,#1021,.F.);
#1208 = ORIENTED_EDGE('',*,*,#1209,.F.);
#1209 = EDGE_CURVE('',#948,#1013,#1210,.T.);
#1210 = LINE('',#1211,#1212);
#1211 = CARTESIAN_POINT('',(-37.8,-8.,-31.01));
#1212 = VECTOR('',#1213,1.);
#1213 = DIRECTION('',(0.,0.,1.));
#1214 = ORIENTED_EDGE('',*,*,#956,.F.);
#1215 = PLANE('',#1216);
#1216 = AXIS2_PLACEMENT_3D('',#1217,#1218,#1219);
#1217 = CARTESIAN_POINT('',(-37.8,-4.577685078415,-10.6091024461));
#1218 = DIRECTION('',(1.,0.,0.));
#1219 = DIRECTION('',(0.,0.,1.));
#1220 = ADVANCED_FACE('',(#1221),#1234,.T.);
#1221 = FACE_BOUND('',#1222,.T.);
#1222 = EDGE_LOOP('',(#1223,#1224,#1225,#1231,#1232,#1233));
#1223 = ORIENTED_EDGE('',*,*,#628,.F.);
#1224 = ORIENTED_EDGE('',*,*,#922,.T.);
#1225 = ORIENTED_EDGE('',*,*,#1226,.T.);
#1226 = EDGE_CURVE('',#923,#1029,#1227,.T.);
#1227 = LINE('',#1228,#1229);
#1228 = CARTESIAN_POINT('',(37.8,-8.,-101.));
#1229 = VECTOR('',#1230,1.);
#1230 = DIRECTION('',(0.,0.,1.));
#1231 = ORIENTED_EDGE('',*,*,#1028,.T.);
#1232 = ORIENTED_EDGE('',*,*,#986,.T.);
#1233 = ORIENTED_EDGE('',*,*,#644,.F.);
#1234 = PLANE('',#1235);
#1235 = AXIS2_PLACEMENT_3D('',#1236,#1237,#1238);
#1236 = CARTESIAN_POINT('',(37.8,-4.577685078415,-10.6091024461));
#1237 = DIRECTION('',(-1.,-0.,-0.));
#1238 = DIRECTION('',(0.,0.,-1.));
#1239 = ADVANCED_FACE('',(#1240),#1256,.T.);
#1240 = FACE_BOUND('',#1241,.T.);
#1241 = EDGE_LOOP('',(#1242,#1243,#1249,#1250));
#1242 = ORIENTED_EDGE('',*,*,#939,.F.);
#1243 = ORIENTED_EDGE('',*,*,#1244,.T.);
#1244 = EDGE_CURVE('',#940,#1011,#1245,.T.);
#1245 = LINE('',#1246,#1247);
#1246 = CARTESIAN_POINT('',(-24.,-21.8,-101.));
#1247 = VECTOR('',#1248,1.);
#1248 = DIRECTION('',(0.,0.,1.));
#1249 = ORIENTED_EDGE('',*,*,#1045,.F.);
#1250 = ORIENTED_EDGE('',*,*,#1251,.F.);
#1251 = EDGE_CURVE('',#931,#1037,#1252,.T.);
#1252 = LINE('',#1253,#1254);
#1253 = CARTESIAN_POINT('',(24.,-21.8,-31.01));
#1254 = VECTOR('',#1255,1.);
#1255 = DIRECTION('',(0.,0.,1.));
#1256 = PLANE('',#1257);
#1257 = AXIS2_PLACEMENT_3D('',#1258,#1259,#1260);
#1258 = CARTESIAN_POINT('',(5.526777545419E-16,-21.8,-18.18726848797));
#1259 = DIRECTION('',(0.,1.,1.001083042056E-15));
#1260 = DIRECTION('',(0.,-1.001083042056E-15,1.));
#1261 = ADVANCED_FACE('',(#1262),#1268,.F.);
#1262 = FACE_BOUND('',#1263,.F.);
#1263 = EDGE_LOOP('',(#1264,#1265,#1266,#1267));
#1264 = ORIENTED_EDGE('',*,*,#1010,.T.);
#1265 = ORIENTED_EDGE('',*,*,#1209,.F.);
#1266 = ORIENTED_EDGE('',*,*,#947,.T.);
#1267 = ORIENTED_EDGE('',*,*,#1244,.T.);
#1268 = CYLINDRICAL_SURFACE('',#1269,13.8);
#1269 = AXIS2_PLACEMENT_3D('',#1270,#1271,#1272);
#1270 = CARTESIAN_POINT('',(-24.,-8.,-101.));
#1271 = DIRECTION('',(0.,0.,1.));
#1272 = DIRECTION('',(-1.,0.,0.));
#1273 = ADVANCED_FACE('',(#1274),#1280,.F.);
#1274 = FACE_BOUND('',#1275,.T.);
#1275 = EDGE_LOOP('',(#1276,#1277,#1278,#1279));
#1276 = ORIENTED_EDGE('',*,*,#1251,.T.);
#1277 = ORIENTED_EDGE('',*,*,#1036,.F.);
#1278 = ORIENTED_EDGE('',*,*,#1226,.F.);
#1279 = ORIENTED_EDGE('',*,*,#930,.F.);
#1280 = CYLINDRICAL_SURFACE('',#1281,13.8);
#1281 = AXIS2_PLACEMENT_3D('',#1282,#1283,#1284);
#1282 = CARTESIAN_POINT('',(24.,-8.,-101.));
#1283 = DIRECTION('',(0.,0.,1.));
#1284 = DIRECTION('',(1.,0.,0.));
#1285 = ( GEOMETRIC_REPRESENTATION_CONTEXT(3) 
GLOBAL_UNCERTAINTY_ASSIGNED_CONTEXT((#1289)) 
GLOBAL_UNIT_ASSIGNED_CONTEXT((#1286,#1287,#1288)) REPRESENTATION_CONTEXT
('Context #1','3D Context with UNIT and UNCERTAINTY') );
#1286 = ( LENGTH_UNIT() NAMED_UNIT(*) SI_UNIT(.MILLI.,.METRE.) );
#1287 = ( NAMED_UNIT(*) PLANE_ANGLE_UNIT() SI_UNIT($,.RADIAN.) );
#1288 = ( NAMED_UNIT(*) SI_UNIT($,.STERADIAN.) SOLID_ANGLE_UNIT() );
#1289 = UNCERTAINTY_MEASURE_WITH_UNIT(LENGTH_MEASURE(1.E-04),#1286,
  'distance_accuracy_value','confusion accuracy');
#1290 = PRODUCT_RELATED_PRODUCT_CATEGORY('part',$,(#7));
ENDSEC;
END-ISO-10303-21;
