ISO-10303-21;
HEADER;
FILE_DESCRIPTION(('FreeCAD Model'),'2;1');
FILE_NAME('Open CASCADE Shape Model','2026-09-14T21:43:46',('FreeCAD'),(
    'FreeCAD'),'Open CASCADE STEP processor 7.8','FreeCAD','Unknown');
FILE_SCHEMA(('AUTOMOTIVE_DESIGN { 1 0 10303 214 1 1 1 1 }'));
ENDSEC;
DATA;
#1 = APPLICATION_PROTOCOL_DEFINITION('international standard',
  'automotive_design',2000,#2);
#2 = APPLICATION_CONTEXT(
  'core data for automotive mechanical design processes');
#3 = SHAPE_DEFINITION_REPRESENTATION(#4,#10);
#4 = PRODUCT_DEFINITION_SHAPE('','',#5);
#5 = PRODUCT_DEFINITION('design','',#6,#9);
#6 = PRODUCT_DEFINITION_FORMATION('','',#7);
#7 = PRODUCT('Open CASCADE STEP translator 7.8 13',
  'Open CASCADE STEP translator 7.8 13','',(#8));
#8 = PRODUCT_CONTEXT('',#2,'mechanical');
#9 = PRODUCT_DEFINITION_CONTEXT('part definition',#2,'design');
#10 = ADVANCED_BREP_SHAPE_REPRESENTATION('',(#11,#15),#2142);
#11 = AXIS2_PLACEMENT_3D('',#12,#13,#14);
#12 = CARTESIAN_POINT('',(0.,0.,0.));
#13 = DIRECTION('',(0.,0.,1.));
#14 = DIRECTION('',(1.,0.,-0.));
#15 = MANIFOLD_SOLID_BREP('',#16);
#16 = CLOSED_SHELL('',(#17,#207,#233,#266,#292,#318,#343,#368,#394,#420,
    #437,#471,#496,#521,#547,#573,#598,#623,#641,#667,#693,#719,#744,
    #775,#800,#825,#849,#873,#898,#923,#940,#974,#999,#1024,#1050,#1076,
    #1101,#1126,#1144,#1169,#1194,#1219,#1239,#1433,#1460,#1480,#1500,
    #1520,#1545,#1570,#1595,#1620,#1652,#1699,#1723,#1739,#1764,#1781,
    #1828,#1839,#1855,#1872,#1897,#1908,#1932,#1950,#1975,#2000,#2025,
    #2050,#2075,#2087,#2099,#2111,#2130));
#17 = ADVANCED_FACE('',(#18,#29,#99,#169,#180,#191),#202,.T.);
#18 = FACE_BOUND('',#19,.T.);
#19 = EDGE_LOOP('',(#20));
#20 = ORIENTED_EDGE('',*,*,#21,.F.);
#21 = EDGE_CURVE('',#22,#22,#24,.T.);
#22 = VERTEX_POINT('',#23);
#23 = CARTESIAN_POINT('',(-12.75,-15.,5.1));
#24 = CIRCLE('',#25,4.75);
#25 = AXIS2_PLACEMENT_3D('',#26,#27,#28);
#26 = CARTESIAN_POINT('',(-17.5,-15.,5.1));
#27 = DIRECTION('',(0.,0.,1.));
#28 = DIRECTION('',(1.,0.,0.));
#29 = FACE_BOUND('',#30,.T.);
#30 = EDGE_LOOP('',(#31,#41,#50,#58,#67,#75,#84,#92));
#31 = ORIENTED_EDGE('',*,*,#32,.F.);
#32 = EDGE_CURVE('',#33,#35,#37,.T.);
#33 = VERTEX_POINT('',#34);
#34 = CARTESIAN_POINT('',(-26.5,-10.,5.1));
#35 = VERTEX_POINT('',#36);
#36 = CARTESIAN_POINT('',(-26.5,10.,5.1));
#37 = LINE('',#38,#39);
#38 = CARTESIAN_POINT('',(-26.5,-10.,5.1));
#39 = VECTOR('',#40,1.);
#40 = DIRECTION('',(0.,1.,0.));
#41 = ORIENTED_EDGE('',*,*,#42,.F.);
#42 = EDGE_CURVE('',#43,#33,#45,.T.);
#43 = VERTEX_POINT('',#44);
#44 = CARTESIAN_POINT('',(-12.5,-24.,5.1));
#45 = CIRCLE('',#46,14.);
#46 = AXIS2_PLACEMENT_3D('',#47,#48,#49);
#47 = CARTESIAN_POINT('',(-12.5,-10.,5.1));
#48 = DIRECTION('',(-0.,0.,-1.));
#49 = DIRECTION('',(-2.368475785867E-16,-1.,0.));
#50 = ORIENTED_EDGE('',*,*,#51,.F.);
#51 = EDGE_CURVE('',#52,#43,#54,.T.);
#52 = VERTEX_POINT('',#53);
#53 = CARTESIAN_POINT('',(12.5,-24.,5.1));
#54 = LINE('',#55,#56);
#55 = CARTESIAN_POINT('',(12.5,-24.,5.1));
#56 = VECTOR('',#57,1.);
#57 = DIRECTION('',(-1.,0.,0.));
#58 = ORIENTED_EDGE('',*,*,#59,.F.);
#59 = EDGE_CURVE('',#60,#52,#62,.T.);
#60 = VERTEX_POINT('',#61);
#61 = CARTESIAN_POINT('',(26.5,-10.,5.1));
#62 = CIRCLE('',#63,14.);
#63 = AXIS2_PLACEMENT_3D('',#64,#65,#66);
#64 = CARTESIAN_POINT('',(12.5,-10.,5.1));
#65 = DIRECTION('',(0.,0.,-1.));
#66 = DIRECTION('',(1.,0.,0.));
#67 = ORIENTED_EDGE('',*,*,#68,.F.);
#68 = EDGE_CURVE('',#69,#60,#71,.T.);
#69 = VERTEX_POINT('',#70);
#70 = CARTESIAN_POINT('',(26.5,10.,5.1));
#71 = LINE('',#72,#73);
#72 = CARTESIAN_POINT('',(26.5,10.,5.1));
#73 = VECTOR('',#74,1.);
#74 = DIRECTION('',(0.,-1.,0.));
#75 = ORIENTED_EDGE('',*,*,#76,.F.);
#76 = EDGE_CURVE('',#77,#69,#79,.T.);
#77 = VERTEX_POINT('',#78);
#78 = CARTESIAN_POINT('',(12.5,24.,5.1));
#79 = CIRCLE('',#80,14.);
#80 = AXIS2_PLACEMENT_3D('',#81,#82,#83);
#81 = CARTESIAN_POINT('',(12.5,10.,5.1));
#82 = DIRECTION('',(0.,0.,-1.));
#83 = DIRECTION('',(8.289665250535E-16,1.,0.));
#84 = ORIENTED_EDGE('',*,*,#85,.F.);
#85 = EDGE_CURVE('',#86,#77,#88,.T.);
#86 = VERTEX_POINT('',#87);
#87 = CARTESIAN_POINT('',(-12.5,24.,5.1));
#88 = LINE('',#89,#90);
#89 = CARTESIAN_POINT('',(-12.5,24.,5.1));
#90 = VECTOR('',#91,1.);
#91 = DIRECTION('',(1.,0.,0.));
#92 = ORIENTED_EDGE('',*,*,#93,.F.);
#93 = EDGE_CURVE('',#35,#86,#94,.T.);
#94 = CIRCLE('',#95,14.);
#95 = AXIS2_PLACEMENT_3D('',#96,#97,#98);
#96 = CARTESIAN_POINT('',(-12.5,10.,5.1));
#97 = DIRECTION('',(0.,0.,-1.));
#98 = DIRECTION('',(-1.,2.368475785867E-16,0.));
#99 = FACE_BOUND('',#100,.T.);
#100 = EDGE_LOOP('',(#101,#112,#120,#129,#137,#146,#154,#163));
#101 = ORIENTED_EDGE('',*,*,#102,.F.);
#102 = EDGE_CURVE('',#103,#105,#107,.T.);
#103 = VERTEX_POINT('',#104);
#104 = CARTESIAN_POINT('',(5.,-15.50473750965,5.1));
#105 = VERTEX_POINT('',#106);
#106 = CARTESIAN_POINT('',(15.504737509656,-5.,5.1));
#107 = CIRCLE('',#108,10.504737509656);
#108 = AXIS2_PLACEMENT_3D('',#109,#110,#111);
#109 = CARTESIAN_POINT('',(5.,-5.,5.1));
#110 = DIRECTION('',(0.,0.,1.));
#111 = DIRECTION('',(-1.691005451367E-16,-1.,0.));
#112 = ORIENTED_EDGE('',*,*,#113,.F.);
#113 = EDGE_CURVE('',#114,#103,#116,.T.);
#114 = VERTEX_POINT('',#115);
#115 = CARTESIAN_POINT('',(-5.,-15.50473750965,5.1));
#116 = LINE('',#117,#118);
#117 = CARTESIAN_POINT('',(0.,-15.50473750965,5.1));
#118 = VECTOR('',#119,1.);
#119 = DIRECTION('',(1.,0.,0.));
#120 = ORIENTED_EDGE('',*,*,#121,.F.);
#121 = EDGE_CURVE('',#122,#114,#124,.T.);
#122 = VERTEX_POINT('',#123);
#123 = CARTESIAN_POINT('',(-15.50473750965,-5.,5.1));
#124 = CIRCLE('',#125,10.504737509656);
#125 = AXIS2_PLACEMENT_3D('',#126,#127,#128);
#126 = CARTESIAN_POINT('',(-5.,-5.,5.1));
#127 = DIRECTION('',(0.,0.,1.));
#128 = DIRECTION('',(-1.,-8.455027256833E-17,0.));
#129 = ORIENTED_EDGE('',*,*,#130,.F.);
#130 = EDGE_CURVE('',#131,#122,#133,.T.);
#131 = VERTEX_POINT('',#132);
#132 = CARTESIAN_POINT('',(-15.50473750965,5.,5.1));
#133 = LINE('',#134,#135);
#134 = CARTESIAN_POINT('',(-15.50473750965,5.,5.1));
#135 = VECTOR('',#136,1.);
#136 = DIRECTION('',(0.,-1.,0.));
#137 = ORIENTED_EDGE('',*,*,#138,.F.);
#138 = EDGE_CURVE('',#139,#131,#141,.T.);
#139 = VERTEX_POINT('',#140);
#140 = CARTESIAN_POINT('',(-5.,15.504737509656,5.1));
#141 = CIRCLE('',#142,10.504737509656);
#142 = AXIS2_PLACEMENT_3D('',#143,#144,#145);
#143 = CARTESIAN_POINT('',(-5.,5.,5.1));
#144 = DIRECTION('',(0.,-0.,1.));
#145 = DIRECTION('',(8.455027256833E-17,1.,0.));
#146 = ORIENTED_EDGE('',*,*,#147,.F.);
#147 = EDGE_CURVE('',#148,#139,#150,.T.);
#148 = VERTEX_POINT('',#149);
#149 = CARTESIAN_POINT('',(5.,15.504737509656,5.1));
#150 = LINE('',#151,#152);
#151 = CARTESIAN_POINT('',(5.,15.504737509656,5.1));
#152 = VECTOR('',#153,1.);
#153 = DIRECTION('',(-1.,0.,0.));
#154 = ORIENTED_EDGE('',*,*,#155,.F.);
#155 = EDGE_CURVE('',#156,#148,#158,.T.);
#156 = VERTEX_POINT('',#157);
#157 = CARTESIAN_POINT('',(15.504737509656,5.,5.1));
#158 = CIRCLE('',#159,10.504737509656);
#159 = AXIS2_PLACEMENT_3D('',#160,#161,#162);
#160 = CARTESIAN_POINT('',(5.,5.,5.1));
#161 = DIRECTION('',(-0.,0.,1.));
#162 = DIRECTION('',(1.,-1.691005451367E-16,0.));
#163 = ORIENTED_EDGE('',*,*,#164,.F.);
#164 = EDGE_CURVE('',#105,#156,#165,.T.);
#165 = LINE('',#166,#167);
#166 = CARTESIAN_POINT('',(15.504737509656,-5.,5.1));
#167 = VECTOR('',#168,1.);
#168 = DIRECTION('',(0.,1.,0.));
#169 = FACE_BOUND('',#170,.T.);
#170 = EDGE_LOOP('',(#171));
#171 = ORIENTED_EDGE('',*,*,#172,.F.);
#172 = EDGE_CURVE('',#173,#173,#175,.T.);
#173 = VERTEX_POINT('',#174);
#174 = CARTESIAN_POINT('',(22.25,-15.,5.1));
#175 = CIRCLE('',#176,4.75);
#176 = AXIS2_PLACEMENT_3D('',#177,#178,#179);
#177 = CARTESIAN_POINT('',(17.5,-15.,5.1));
#178 = DIRECTION('',(0.,0.,1.));
#179 = DIRECTION('',(1.,0.,0.));
#180 = FACE_BOUND('',#181,.T.);
#181 = EDGE_LOOP('',(#182));
#182 = ORIENTED_EDGE('',*,*,#183,.F.);
#183 = EDGE_CURVE('',#184,#184,#186,.T.);
#184 = VERTEX_POINT('',#185);
#185 = CARTESIAN_POINT('',(-12.75,15.,5.1));
#186 = CIRCLE('',#187,4.75);
#187 = AXIS2_PLACEMENT_3D('',#188,#189,#190);
#188 = CARTESIAN_POINT('',(-17.5,15.,5.1));
#189 = DIRECTION('',(0.,0.,1.));
#190 = DIRECTION('',(1.,0.,0.));
#191 = FACE_BOUND('',#192,.T.);
#192 = EDGE_LOOP('',(#193));
#193 = ORIENTED_EDGE('',*,*,#194,.F.);
#194 = EDGE_CURVE('',#195,#195,#197,.T.);
#195 = VERTEX_POINT('',#196);
#196 = CARTESIAN_POINT('',(22.25,15.,5.1));
#197 = CIRCLE('',#198,4.75);
#198 = AXIS2_PLACEMENT_3D('',#199,#200,#201);
#199 = CARTESIAN_POINT('',(17.5,15.,5.1));
#200 = DIRECTION('',(0.,0.,1.));
#201 = DIRECTION('',(1.,0.,0.));
#202 = PLANE('',#203);
#203 = AXIS2_PLACEMENT_3D('',#204,#205,#206);
#204 = CARTESIAN_POINT('',(-27.5,-25.,5.1));
#205 = DIRECTION('',(0.,0.,1.));
#206 = DIRECTION('',(1.,0.,0.));
#207 = ADVANCED_FACE('',(#208),#228,.T.);
#208 = FACE_BOUND('',#209,.T.);
#209 = EDGE_LOOP('',(#210,#219,#220,#221));
#210 = ORIENTED_EDGE('',*,*,#211,.F.);
#211 = EDGE_CURVE('',#22,#212,#214,.T.);
#212 = VERTEX_POINT('',#213);
#213 = CARTESIAN_POINT('',(-13.75,-15.,4.1));
#214 = CIRCLE('',#215,1.);
#215 = AXIS2_PLACEMENT_3D('',#216,#217,#218);
#216 = CARTESIAN_POINT('',(-12.75,-15.,4.1));
#217 = DIRECTION('',(0.,-1.,0.));
#218 = DIRECTION('',(1.,0.,0.));
#219 = ORIENTED_EDGE('',*,*,#21,.T.);
#220 = ORIENTED_EDGE('',*,*,#211,.T.);
#221 = ORIENTED_EDGE('',*,*,#222,.F.);
#222 = EDGE_CURVE('',#212,#212,#223,.T.);
#223 = CIRCLE('',#224,3.75);
#224 = AXIS2_PLACEMENT_3D('',#225,#226,#227);
#225 = CARTESIAN_POINT('',(-17.5,-15.,4.1));
#226 = DIRECTION('',(0.,0.,1.));
#227 = DIRECTION('',(1.,0.,0.));
#228 = TOROIDAL_SURFACE('',#229,4.75,1.);
#229 = AXIS2_PLACEMENT_3D('',#230,#231,#232);
#230 = CARTESIAN_POINT('',(-17.5,-15.,4.1));
#231 = DIRECTION('',(0.,0.,1.));
#232 = DIRECTION('',(1.,0.,0.));
#233 = ADVANCED_FACE('',(#234),#261,.T.);
#234 = FACE_BOUND('',#235,.T.);
#235 = EDGE_LOOP('',(#236,#245,#246,#255));
#236 = ORIENTED_EDGE('',*,*,#237,.T.);
#237 = EDGE_CURVE('',#238,#33,#240,.T.);
#238 = VERTEX_POINT('',#239);
#239 = CARTESIAN_POINT('',(-27.5,-10.,4.1));
#240 = CIRCLE('',#241,1.);
#241 = AXIS2_PLACEMENT_3D('',#242,#243,#244);
#242 = CARTESIAN_POINT('',(-26.5,-10.,4.1));
#243 = DIRECTION('',(0.,1.,-0.));
#244 = DIRECTION('',(-1.,0.,0.));
#245 = ORIENTED_EDGE('',*,*,#32,.T.);
#246 = ORIENTED_EDGE('',*,*,#247,.F.);
#247 = EDGE_CURVE('',#248,#35,#250,.T.);
#248 = VERTEX_POINT('',#249);
#249 = CARTESIAN_POINT('',(-27.5,10.,4.1));
#250 = CIRCLE('',#251,1.);
#251 = AXIS2_PLACEMENT_3D('',#252,#253,#254);
#252 = CARTESIAN_POINT('',(-26.5,10.,4.1));
#253 = DIRECTION('',(0.,1.,-0.));
#254 = DIRECTION('',(-1.,0.,0.));
#255 = ORIENTED_EDGE('',*,*,#256,.F.);
#256 = EDGE_CURVE('',#238,#248,#257,.T.);
#257 = LINE('',#258,#259);
#258 = CARTESIAN_POINT('',(-27.5,-10.,4.1));
#259 = VECTOR('',#260,1.);
#260 = DIRECTION('',(0.,1.,0.));
#261 = CYLINDRICAL_SURFACE('',#262,1.);
#262 = AXIS2_PLACEMENT_3D('',#263,#264,#265);
#263 = CARTESIAN_POINT('',(-26.5,-10.,4.1));
#264 = DIRECTION('',(0.,1.,0.));
#265 = DIRECTION('',(-1.,0.,0.));
#266 = ADVANCED_FACE('',(#267),#287,.T.);
#267 = FACE_BOUND('',#268,.F.);
#268 = EDGE_LOOP('',(#269,#278,#285,#286));
#269 = ORIENTED_EDGE('',*,*,#270,.F.);
#270 = EDGE_CURVE('',#271,#43,#273,.T.);
#271 = VERTEX_POINT('',#272);
#272 = CARTESIAN_POINT('',(-12.5,-25.,4.1));
#273 = CIRCLE('',#274,1.);
#274 = AXIS2_PLACEMENT_3D('',#275,#276,#277);
#275 = CARTESIAN_POINT('',(-12.5,-24.,4.1));
#276 = DIRECTION('',(-1.,0.,0.));
#277 = DIRECTION('',(0.,-1.,0.));
#278 = ORIENTED_EDGE('',*,*,#279,.T.);
#279 = EDGE_CURVE('',#271,#238,#280,.T.);
#280 = CIRCLE('',#281,15.);
#281 = AXIS2_PLACEMENT_3D('',#282,#283,#284);
#282 = CARTESIAN_POINT('',(-12.5,-10.,4.1));
#283 = DIRECTION('',(-0.,0.,-1.));
#284 = DIRECTION('',(-2.368475785867E-16,-1.,0.));
#285 = ORIENTED_EDGE('',*,*,#237,.T.);
#286 = ORIENTED_EDGE('',*,*,#42,.F.);
#287 = TOROIDAL_SURFACE('',#288,14.,1.);
#288 = AXIS2_PLACEMENT_3D('',#289,#290,#291);
#289 = CARTESIAN_POINT('',(-12.5,-10.,4.1));
#290 = DIRECTION('',(0.,0.,1.));
#291 = DIRECTION('',(-2.368475785867E-16,-1.,0.));
#292 = ADVANCED_FACE('',(#293),#313,.T.);
#293 = FACE_BOUND('',#294,.F.);
#294 = EDGE_LOOP('',(#295,#296,#305,#312));
#295 = ORIENTED_EDGE('',*,*,#247,.F.);
#296 = ORIENTED_EDGE('',*,*,#297,.T.);
#297 = EDGE_CURVE('',#248,#298,#300,.T.);
#298 = VERTEX_POINT('',#299);
#299 = CARTESIAN_POINT('',(-12.5,25.,4.1));
#300 = CIRCLE('',#301,15.);
#301 = AXIS2_PLACEMENT_3D('',#302,#303,#304);
#302 = CARTESIAN_POINT('',(-12.5,10.,4.1));
#303 = DIRECTION('',(0.,0.,-1.));
#304 = DIRECTION('',(-1.,2.368475785867E-16,0.));
#305 = ORIENTED_EDGE('',*,*,#306,.T.);
#306 = EDGE_CURVE('',#298,#86,#307,.T.);
#307 = CIRCLE('',#308,1.);
#308 = AXIS2_PLACEMENT_3D('',#309,#310,#311);
#309 = CARTESIAN_POINT('',(-12.5,24.,4.1));
#310 = DIRECTION('',(1.,-1.756152386293E-16,0.));
#311 = DIRECTION('',(1.756152386293E-16,1.,0.));
#312 = ORIENTED_EDGE('',*,*,#93,.F.);
#313 = TOROIDAL_SURFACE('',#314,14.,1.);
#314 = AXIS2_PLACEMENT_3D('',#315,#316,#317);
#315 = CARTESIAN_POINT('',(-12.5,10.,4.1));
#316 = DIRECTION('',(0.,0.,1.));
#317 = DIRECTION('',(-1.,2.368475785867E-16,0.));
#318 = ADVANCED_FACE('',(#319),#338,.T.);
#319 = FACE_BOUND('',#320,.T.);
#320 = EDGE_LOOP('',(#321,#330,#331,#332));
#321 = ORIENTED_EDGE('',*,*,#322,.T.);
#322 = EDGE_CURVE('',#323,#52,#325,.T.);
#323 = VERTEX_POINT('',#324);
#324 = CARTESIAN_POINT('',(12.5,-25.,4.1));
#325 = CIRCLE('',#326,1.);
#326 = AXIS2_PLACEMENT_3D('',#327,#328,#329);
#327 = CARTESIAN_POINT('',(12.5,-24.,4.1));
#328 = DIRECTION('',(-1.,-6.123233995737E-17,0.));
#329 = DIRECTION('',(6.123233995737E-17,-1.,0.));
#330 = ORIENTED_EDGE('',*,*,#51,.T.);
#331 = ORIENTED_EDGE('',*,*,#270,.F.);
#332 = ORIENTED_EDGE('',*,*,#333,.F.);
#333 = EDGE_CURVE('',#323,#271,#334,.T.);
#334 = LINE('',#335,#336);
#335 = CARTESIAN_POINT('',(12.5,-25.,4.1));
#336 = VECTOR('',#337,1.);
#337 = DIRECTION('',(-1.,0.,0.));
#338 = CYLINDRICAL_SURFACE('',#339,1.);
#339 = AXIS2_PLACEMENT_3D('',#340,#341,#342);
#340 = CARTESIAN_POINT('',(12.5,-24.,4.1));
#341 = DIRECTION('',(-1.,0.,0.));
#342 = DIRECTION('',(0.,-1.,0.));
#343 = ADVANCED_FACE('',(#344),#363,.T.);
#344 = FACE_BOUND('',#345,.T.);
#345 = EDGE_LOOP('',(#346,#347,#348,#357));
#346 = ORIENTED_EDGE('',*,*,#306,.T.);
#347 = ORIENTED_EDGE('',*,*,#85,.T.);
#348 = ORIENTED_EDGE('',*,*,#349,.F.);
#349 = EDGE_CURVE('',#350,#77,#352,.T.);
#350 = VERTEX_POINT('',#351);
#351 = CARTESIAN_POINT('',(12.5,25.,4.1));
#352 = CIRCLE('',#353,1.);
#353 = AXIS2_PLACEMENT_3D('',#354,#355,#356);
#354 = CARTESIAN_POINT('',(12.5,24.,4.1));
#355 = DIRECTION('',(1.,0.,0.));
#356 = DIRECTION('',(0.,1.,0.));
#357 = ORIENTED_EDGE('',*,*,#358,.F.);
#358 = EDGE_CURVE('',#298,#350,#359,.T.);
#359 = LINE('',#360,#361);
#360 = CARTESIAN_POINT('',(-12.5,25.,4.1));
#361 = VECTOR('',#362,1.);
#362 = DIRECTION('',(1.,0.,0.));
#363 = CYLINDRICAL_SURFACE('',#364,1.);
#364 = AXIS2_PLACEMENT_3D('',#365,#366,#367);
#365 = CARTESIAN_POINT('',(-12.5,24.,4.1));
#366 = DIRECTION('',(1.,0.,0.));
#367 = DIRECTION('',(0.,1.,0.));
#368 = ADVANCED_FACE('',(#369),#389,.T.);
#369 = FACE_BOUND('',#370,.F.);
#370 = EDGE_LOOP('',(#371,#380,#387,#388));
#371 = ORIENTED_EDGE('',*,*,#372,.F.);
#372 = EDGE_CURVE('',#373,#60,#375,.T.);
#373 = VERTEX_POINT('',#374);
#374 = CARTESIAN_POINT('',(27.5,-10.,4.1));
#375 = CIRCLE('',#376,1.);
#376 = AXIS2_PLACEMENT_3D('',#377,#378,#379);
#377 = CARTESIAN_POINT('',(26.5,-10.,4.1));
#378 = DIRECTION('',(0.,-1.,0.));
#379 = DIRECTION('',(1.,0.,0.));
#380 = ORIENTED_EDGE('',*,*,#381,.T.);
#381 = EDGE_CURVE('',#373,#323,#382,.T.);
#382 = CIRCLE('',#383,15.);
#383 = AXIS2_PLACEMENT_3D('',#384,#385,#386);
#384 = CARTESIAN_POINT('',(12.5,-10.,4.1));
#385 = DIRECTION('',(0.,0.,-1.));
#386 = DIRECTION('',(1.,0.,0.));
#387 = ORIENTED_EDGE('',*,*,#322,.T.);
#388 = ORIENTED_EDGE('',*,*,#59,.F.);
#389 = TOROIDAL_SURFACE('',#390,14.,1.);
#390 = AXIS2_PLACEMENT_3D('',#391,#392,#393);
#391 = CARTESIAN_POINT('',(12.5,-10.,4.1));
#392 = DIRECTION('',(0.,0.,1.));
#393 = DIRECTION('',(1.,0.,0.));
#394 = ADVANCED_FACE('',(#395),#415,.T.);
#395 = FACE_BOUND('',#396,.F.);
#396 = EDGE_LOOP('',(#397,#398,#407,#414));
#397 = ORIENTED_EDGE('',*,*,#349,.F.);
#398 = ORIENTED_EDGE('',*,*,#399,.T.);
#399 = EDGE_CURVE('',#350,#400,#402,.T.);
#400 = VERTEX_POINT('',#401);
#401 = CARTESIAN_POINT('',(27.5,10.,4.1));
#402 = CIRCLE('',#403,15.);
#403 = AXIS2_PLACEMENT_3D('',#404,#405,#406);
#404 = CARTESIAN_POINT('',(12.5,10.,4.1));
#405 = DIRECTION('',(0.,0.,-1.));
#406 = DIRECTION('',(8.289665250535E-16,1.,0.));
#407 = ORIENTED_EDGE('',*,*,#408,.T.);
#408 = EDGE_CURVE('',#400,#69,#409,.T.);
#409 = CIRCLE('',#410,1.);
#410 = AXIS2_PLACEMENT_3D('',#411,#412,#413);
#411 = CARTESIAN_POINT('',(26.5,10.,4.1));
#412 = DIRECTION('',(-3.23644975246E-16,-1.,0.));
#413 = DIRECTION('',(1.,-3.23644975246E-16,0.));
#414 = ORIENTED_EDGE('',*,*,#76,.F.);
#415 = TOROIDAL_SURFACE('',#416,14.,1.);
#416 = AXIS2_PLACEMENT_3D('',#417,#418,#419);
#417 = CARTESIAN_POINT('',(12.5,10.,4.1));
#418 = DIRECTION('',(0.,0.,1.));
#419 = DIRECTION('',(8.289665250535E-16,1.,0.));
#420 = ADVANCED_FACE('',(#421),#432,.T.);
#421 = FACE_BOUND('',#422,.T.);
#422 = EDGE_LOOP('',(#423,#424,#425,#426));
#423 = ORIENTED_EDGE('',*,*,#408,.T.);
#424 = ORIENTED_EDGE('',*,*,#68,.T.);
#425 = ORIENTED_EDGE('',*,*,#372,.F.);
#426 = ORIENTED_EDGE('',*,*,#427,.F.);
#427 = EDGE_CURVE('',#400,#373,#428,.T.);
#428 = LINE('',#429,#430);
#429 = CARTESIAN_POINT('',(27.5,10.,4.1));
#430 = VECTOR('',#431,1.);
#431 = DIRECTION('',(0.,-1.,0.));
#432 = CYLINDRICAL_SURFACE('',#433,1.);
#433 = AXIS2_PLACEMENT_3D('',#434,#435,#436);
#434 = CARTESIAN_POINT('',(26.5,10.,4.1));
#435 = DIRECTION('',(0.,-1.,0.));
#436 = DIRECTION('',(1.,0.,0.));
#437 = ADVANCED_FACE('',(#438),#466,.F.);
#438 = FACE_BOUND('',#439,.F.);
#439 = EDGE_LOOP('',(#440,#451,#458,#459));
#440 = ORIENTED_EDGE('',*,*,#441,.T.);
#441 = EDGE_CURVE('',#442,#444,#446,.T.);
#442 = VERTEX_POINT('',#443);
#443 = CARTESIAN_POINT('',(5.,-12.6,7.35));
#444 = VERTEX_POINT('',#445);
#445 = CARTESIAN_POINT('',(12.6,-5.,7.35));
#446 = CIRCLE('',#447,7.6);
#447 = AXIS2_PLACEMENT_3D('',#448,#449,#450);
#448 = CARTESIAN_POINT('',(5.,-5.,7.35));
#449 = DIRECTION('',(0.,0.,1.));
#450 = DIRECTION('',(-3.783296126794E-16,-1.,0.));
#451 = ORIENTED_EDGE('',*,*,#452,.T.);
#452 = EDGE_CURVE('',#444,#105,#453,.T.);
#453 = CIRCLE('',#454,3.);
#454 = AXIS2_PLACEMENT_3D('',#455,#456,#457);
#455 = CARTESIAN_POINT('',(15.504737509656,-5.,8.1));
#456 = DIRECTION('',(2.13756324756E-16,-1.,0.));
#457 = DIRECTION('',(1.,2.13756324756E-16,0.));
#458 = ORIENTED_EDGE('',*,*,#102,.F.);
#459 = ORIENTED_EDGE('',*,*,#460,.T.);
#460 = EDGE_CURVE('',#103,#442,#461,.T.);
#461 = CIRCLE('',#462,3.);
#462 = AXIS2_PLACEMENT_3D('',#463,#464,#465);
#463 = CARTESIAN_POINT('',(5.,-15.50473750965,8.1));
#464 = DIRECTION('',(1.,-0.,0.));
#465 = DIRECTION('',(0.,0.968245836552,-0.25));
#466 = TOROIDAL_SURFACE('',#467,10.504737509656,3.);
#467 = AXIS2_PLACEMENT_3D('',#468,#469,#470);
#468 = CARTESIAN_POINT('',(5.,-5.,8.1));
#469 = DIRECTION('',(0.,0.,1.));
#470 = DIRECTION('',(-1.691005451367E-16,-1.,0.));
#471 = ADVANCED_FACE('',(#472),#491,.F.);
#472 = FACE_BOUND('',#473,.F.);
#473 = EDGE_LOOP('',(#474,#483,#489,#490));
#474 = ORIENTED_EDGE('',*,*,#475,.F.);
#475 = EDGE_CURVE('',#476,#114,#478,.T.);
#476 = VERTEX_POINT('',#477);
#477 = CARTESIAN_POINT('',(-5.,-12.6,7.35));
#478 = CIRCLE('',#479,3.);
#479 = AXIS2_PLACEMENT_3D('',#480,#481,#482);
#480 = CARTESIAN_POINT('',(-5.,-15.50473750965,8.1));
#481 = DIRECTION('',(-1.,-4.67407142461E-16,0.));
#482 = DIRECTION('',(4.67407142461E-16,-1.,0.));
#483 = ORIENTED_EDGE('',*,*,#484,.T.);
#484 = EDGE_CURVE('',#476,#442,#485,.T.);
#485 = LINE('',#486,#487);
#486 = CARTESIAN_POINT('',(-5.,-12.6,7.35));
#487 = VECTOR('',#488,1.);
#488 = DIRECTION('',(1.,0.,0.));
#489 = ORIENTED_EDGE('',*,*,#460,.F.);
#490 = ORIENTED_EDGE('',*,*,#113,.F.);
#491 = CYLINDRICAL_SURFACE('',#492,3.);
#492 = AXIS2_PLACEMENT_3D('',#493,#494,#495);
#493 = CARTESIAN_POINT('',(0.,-15.50473750965,8.1));
#494 = DIRECTION('',(1.,0.,0.));
#495 = DIRECTION('',(0.,0.968245836552,-0.25));
#496 = ADVANCED_FACE('',(#497),#516,.F.);
#497 = FACE_BOUND('',#498,.F.);
#498 = EDGE_LOOP('',(#499,#507,#514,#515));
#499 = ORIENTED_EDGE('',*,*,#500,.T.);
#500 = EDGE_CURVE('',#444,#501,#503,.T.);
#501 = VERTEX_POINT('',#502);
#502 = CARTESIAN_POINT('',(12.6,5.,7.35));
#503 = LINE('',#504,#505);
#504 = CARTESIAN_POINT('',(12.6,-5.,7.35));
#505 = VECTOR('',#506,1.);
#506 = DIRECTION('',(0.,1.,0.));
#507 = ORIENTED_EDGE('',*,*,#508,.F.);
#508 = EDGE_CURVE('',#156,#501,#509,.T.);
#509 = CIRCLE('',#510,3.);
#510 = AXIS2_PLACEMENT_3D('',#511,#512,#513);
#511 = CARTESIAN_POINT('',(15.504737509656,5.,8.1));
#512 = DIRECTION('',(0.,1.,0.));
#513 = DIRECTION('',(-0.968245836552,0.,-0.25));
#514 = ORIENTED_EDGE('',*,*,#164,.F.);
#515 = ORIENTED_EDGE('',*,*,#452,.F.);
#516 = CYLINDRICAL_SURFACE('',#517,3.);
#517 = AXIS2_PLACEMENT_3D('',#518,#519,#520);
#518 = CARTESIAN_POINT('',(15.504737509656,-5.,8.1));
#519 = DIRECTION('',(0.,1.,0.));
#520 = DIRECTION('',(-0.968245836552,0.,-0.25));
#521 = ADVANCED_FACE('',(#522),#542,.F.);
#522 = FACE_BOUND('',#523,.F.);
#523 = EDGE_LOOP('',(#524,#533,#534,#535));
#524 = ORIENTED_EDGE('',*,*,#525,.T.);
#525 = EDGE_CURVE('',#526,#476,#528,.T.);
#526 = VERTEX_POINT('',#527);
#527 = CARTESIAN_POINT('',(-12.6,-5.,7.35));
#528 = CIRCLE('',#529,7.6);
#529 = AXIS2_PLACEMENT_3D('',#530,#531,#532);
#530 = CARTESIAN_POINT('',(-5.,-5.,7.35));
#531 = DIRECTION('',(0.,0.,1.));
#532 = DIRECTION('',(-1.,9.458240316986E-16,0.));
#533 = ORIENTED_EDGE('',*,*,#475,.T.);
#534 = ORIENTED_EDGE('',*,*,#121,.F.);
#535 = ORIENTED_EDGE('',*,*,#536,.T.);
#536 = EDGE_CURVE('',#122,#526,#537,.T.);
#537 = CIRCLE('',#538,3.);
#538 = AXIS2_PLACEMENT_3D('',#539,#540,#541);
#539 = CARTESIAN_POINT('',(-15.50473750965,-5.,8.1));
#540 = DIRECTION('',(0.,-1.,0.));
#541 = DIRECTION('',(0.968245836552,0.,-0.25));
#542 = TOROIDAL_SURFACE('',#543,10.504737509656,3.);
#543 = AXIS2_PLACEMENT_3D('',#544,#545,#546);
#544 = CARTESIAN_POINT('',(-5.,-5.,8.1));
#545 = DIRECTION('',(0.,0.,1.));
#546 = DIRECTION('',(-1.,-8.455027256833E-17,0.));
#547 = ADVANCED_FACE('',(#548),#568,.F.);
#548 = FACE_BOUND('',#549,.F.);
#549 = EDGE_LOOP('',(#550,#559,#566,#567));
#550 = ORIENTED_EDGE('',*,*,#551,.T.);
#551 = EDGE_CURVE('',#501,#552,#554,.T.);
#552 = VERTEX_POINT('',#553);
#553 = CARTESIAN_POINT('',(5.,12.6,7.35));
#554 = CIRCLE('',#555,7.6);
#555 = AXIS2_PLACEMENT_3D('',#556,#557,#558);
#556 = CARTESIAN_POINT('',(5.,5.,7.35));
#557 = DIRECTION('',(-0.,0.,1.));
#558 = DIRECTION('',(1.,-3.783296126794E-16,0.));
#559 = ORIENTED_EDGE('',*,*,#560,.T.);
#560 = EDGE_CURVE('',#552,#148,#561,.T.);
#561 = CIRCLE('',#562,3.);
#562 = AXIS2_PLACEMENT_3D('',#563,#564,#565);
#563 = CARTESIAN_POINT('',(5.,15.504737509656,8.1));
#564 = DIRECTION('',(1.,2.13756324756E-16,-0.));
#565 = DIRECTION('',(-2.13756324756E-16,1.,0.));
#566 = ORIENTED_EDGE('',*,*,#155,.F.);
#567 = ORIENTED_EDGE('',*,*,#508,.T.);
#568 = TOROIDAL_SURFACE('',#569,10.504737509656,3.);
#569 = AXIS2_PLACEMENT_3D('',#570,#571,#572);
#570 = CARTESIAN_POINT('',(5.,5.,8.1));
#571 = DIRECTION('',(0.,0.,1.));
#572 = DIRECTION('',(1.,-1.691005451367E-16,0.));
#573 = ADVANCED_FACE('',(#574),#593,.F.);
#574 = FACE_BOUND('',#575,.F.);
#575 = EDGE_LOOP('',(#576,#584,#585,#586));
#576 = ORIENTED_EDGE('',*,*,#577,.T.);
#577 = EDGE_CURVE('',#578,#526,#580,.T.);
#578 = VERTEX_POINT('',#579);
#579 = CARTESIAN_POINT('',(-12.6,5.,7.35));
#580 = LINE('',#581,#582);
#581 = CARTESIAN_POINT('',(-12.6,5.,7.35));
#582 = VECTOR('',#583,1.);
#583 = DIRECTION('',(0.,-1.,0.));
#584 = ORIENTED_EDGE('',*,*,#536,.F.);
#585 = ORIENTED_EDGE('',*,*,#130,.F.);
#586 = ORIENTED_EDGE('',*,*,#587,.F.);
#587 = EDGE_CURVE('',#578,#131,#588,.T.);
#588 = CIRCLE('',#589,3.);
#589 = AXIS2_PLACEMENT_3D('',#590,#591,#592);
#590 = CARTESIAN_POINT('',(-15.50473750965,5.,8.1));
#591 = DIRECTION('',(-2.983065973244E-16,1.,0.));
#592 = DIRECTION('',(-1.,-2.983065973244E-16,0.));
#593 = CYLINDRICAL_SURFACE('',#594,3.);
#594 = AXIS2_PLACEMENT_3D('',#595,#596,#597);
#595 = CARTESIAN_POINT('',(-15.50473750965,5.,8.1));
#596 = DIRECTION('',(0.,-1.,0.));
#597 = DIRECTION('',(0.968245836552,0.,-0.25));
#598 = ADVANCED_FACE('',(#599),#618,.F.);
#599 = FACE_BOUND('',#600,.F.);
#600 = EDGE_LOOP('',(#601,#609,#616,#617));
#601 = ORIENTED_EDGE('',*,*,#602,.T.);
#602 = EDGE_CURVE('',#552,#603,#605,.T.);
#603 = VERTEX_POINT('',#604);
#604 = CARTESIAN_POINT('',(-5.,12.6,7.35));
#605 = LINE('',#606,#607);
#606 = CARTESIAN_POINT('',(5.,12.6,7.35));
#607 = VECTOR('',#608,1.);
#608 = DIRECTION('',(-1.,0.,0.));
#609 = ORIENTED_EDGE('',*,*,#610,.F.);
#610 = EDGE_CURVE('',#139,#603,#611,.T.);
#611 = CIRCLE('',#612,3.);
#612 = AXIS2_PLACEMENT_3D('',#613,#614,#615);
#613 = CARTESIAN_POINT('',(-5.,15.504737509656,8.1));
#614 = DIRECTION('',(-1.,0.,0.));
#615 = DIRECTION('',(-0.,-0.968245836552,-0.25));
#616 = ORIENTED_EDGE('',*,*,#147,.F.);
#617 = ORIENTED_EDGE('',*,*,#560,.F.);
#618 = CYLINDRICAL_SURFACE('',#619,3.);
#619 = AXIS2_PLACEMENT_3D('',#620,#621,#622);
#620 = CARTESIAN_POINT('',(5.,15.504737509656,8.1));
#621 = DIRECTION('',(-1.,0.,0.));
#622 = DIRECTION('',(-0.,-0.968245836552,-0.25));
#623 = ADVANCED_FACE('',(#624),#636,.F.);
#624 = FACE_BOUND('',#625,.F.);
#625 = EDGE_LOOP('',(#626,#633,#634,#635));
#626 = ORIENTED_EDGE('',*,*,#627,.T.);
#627 = EDGE_CURVE('',#603,#578,#628,.T.);
#628 = CIRCLE('',#629,7.6);
#629 = AXIS2_PLACEMENT_3D('',#630,#631,#632);
#630 = CARTESIAN_POINT('',(-5.,5.,7.35));
#631 = DIRECTION('',(0.,-0.,1.));
#632 = DIRECTION('',(5.674944190191E-16,1.,0.));
#633 = ORIENTED_EDGE('',*,*,#587,.T.);
#634 = ORIENTED_EDGE('',*,*,#138,.F.);
#635 = ORIENTED_EDGE('',*,*,#610,.T.);
#636 = TOROIDAL_SURFACE('',#637,10.504737509656,3.);
#637 = AXIS2_PLACEMENT_3D('',#638,#639,#640);
#638 = CARTESIAN_POINT('',(-5.,5.,8.1));
#639 = DIRECTION('',(0.,0.,1.));
#640 = DIRECTION('',(8.455027256833E-17,1.,0.));
#641 = ADVANCED_FACE('',(#642),#662,.T.);
#642 = FACE_BOUND('',#643,.T.);
#643 = EDGE_LOOP('',(#644,#653,#654,#655));
#644 = ORIENTED_EDGE('',*,*,#645,.F.);
#645 = EDGE_CURVE('',#173,#646,#648,.T.);
#646 = VERTEX_POINT('',#647);
#647 = CARTESIAN_POINT('',(21.25,-15.,4.1));
#648 = CIRCLE('',#649,1.);
#649 = AXIS2_PLACEMENT_3D('',#650,#651,#652);
#650 = CARTESIAN_POINT('',(22.25,-15.,4.1));
#651 = DIRECTION('',(0.,-1.,0.));
#652 = DIRECTION('',(1.,0.,0.));
#653 = ORIENTED_EDGE('',*,*,#172,.T.);
#654 = ORIENTED_EDGE('',*,*,#645,.T.);
#655 = ORIENTED_EDGE('',*,*,#656,.F.);
#656 = EDGE_CURVE('',#646,#646,#657,.T.);
#657 = CIRCLE('',#658,3.75);
#658 = AXIS2_PLACEMENT_3D('',#659,#660,#661);
#659 = CARTESIAN_POINT('',(17.5,-15.,4.1));
#660 = DIRECTION('',(0.,0.,1.));
#661 = DIRECTION('',(1.,0.,0.));
#662 = TOROIDAL_SURFACE('',#663,4.75,1.);
#663 = AXIS2_PLACEMENT_3D('',#664,#665,#666);
#664 = CARTESIAN_POINT('',(17.5,-15.,4.1));
#665 = DIRECTION('',(0.,0.,1.));
#666 = DIRECTION('',(1.,0.,0.));
#667 = ADVANCED_FACE('',(#668),#688,.T.);
#668 = FACE_BOUND('',#669,.T.);
#669 = EDGE_LOOP('',(#670,#679,#680,#681));
#670 = ORIENTED_EDGE('',*,*,#671,.F.);
#671 = EDGE_CURVE('',#184,#672,#674,.T.);
#672 = VERTEX_POINT('',#673);
#673 = CARTESIAN_POINT('',(-13.75,15.,4.1));
#674 = CIRCLE('',#675,1.);
#675 = AXIS2_PLACEMENT_3D('',#676,#677,#678);
#676 = CARTESIAN_POINT('',(-12.75,15.,4.1));
#677 = DIRECTION('',(0.,-1.,0.));
#678 = DIRECTION('',(1.,0.,0.));
#679 = ORIENTED_EDGE('',*,*,#183,.T.);
#680 = ORIENTED_EDGE('',*,*,#671,.T.);
#681 = ORIENTED_EDGE('',*,*,#682,.F.);
#682 = EDGE_CURVE('',#672,#672,#683,.T.);
#683 = CIRCLE('',#684,3.75);
#684 = AXIS2_PLACEMENT_3D('',#685,#686,#687);
#685 = CARTESIAN_POINT('',(-17.5,15.,4.1));
#686 = DIRECTION('',(0.,0.,1.));
#687 = DIRECTION('',(1.,0.,0.));
#688 = TOROIDAL_SURFACE('',#689,4.75,1.);
#689 = AXIS2_PLACEMENT_3D('',#690,#691,#692);
#690 = CARTESIAN_POINT('',(-17.5,15.,4.1));
#691 = DIRECTION('',(0.,0.,1.));
#692 = DIRECTION('',(1.,0.,0.));
#693 = ADVANCED_FACE('',(#694),#714,.T.);
#694 = FACE_BOUND('',#695,.T.);
#695 = EDGE_LOOP('',(#696,#705,#706,#707));
#696 = ORIENTED_EDGE('',*,*,#697,.F.);
#697 = EDGE_CURVE('',#195,#698,#700,.T.);
#698 = VERTEX_POINT('',#699);
#699 = CARTESIAN_POINT('',(21.25,15.,4.1));
#700 = CIRCLE('',#701,1.);
#701 = AXIS2_PLACEMENT_3D('',#702,#703,#704);
#702 = CARTESIAN_POINT('',(22.25,15.,4.1));
#703 = DIRECTION('',(0.,-1.,0.));
#704 = DIRECTION('',(1.,0.,0.));
#705 = ORIENTED_EDGE('',*,*,#194,.T.);
#706 = ORIENTED_EDGE('',*,*,#697,.T.);
#707 = ORIENTED_EDGE('',*,*,#708,.F.);
#708 = EDGE_CURVE('',#698,#698,#709,.T.);
#709 = CIRCLE('',#710,3.75);
#710 = AXIS2_PLACEMENT_3D('',#711,#712,#713);
#711 = CARTESIAN_POINT('',(17.5,15.,4.1));
#712 = DIRECTION('',(0.,0.,1.));
#713 = DIRECTION('',(1.,0.,0.));
#714 = TOROIDAL_SURFACE('',#715,4.75,1.);
#715 = AXIS2_PLACEMENT_3D('',#716,#717,#718);
#716 = CARTESIAN_POINT('',(17.5,15.,4.1));
#717 = DIRECTION('',(0.,0.,1.));
#718 = DIRECTION('',(1.,0.,0.));
#719 = ADVANCED_FACE('',(#720),#739,.F.);
#720 = FACE_BOUND('',#721,.F.);
#721 = EDGE_LOOP('',(#722,#730,#731,#732));
#722 = ORIENTED_EDGE('',*,*,#723,.T.);
#723 = EDGE_CURVE('',#724,#212,#726,.T.);
#724 = VERTEX_POINT('',#725);
#725 = CARTESIAN_POINT('',(-13.75,-15.,1.5));
#726 = LINE('',#727,#728);
#727 = CARTESIAN_POINT('',(-13.75,-15.,1.5));
#728 = VECTOR('',#729,1.);
#729 = DIRECTION('',(0.,0.,1.));
#730 = ORIENTED_EDGE('',*,*,#222,.F.);
#731 = ORIENTED_EDGE('',*,*,#723,.F.);
#732 = ORIENTED_EDGE('',*,*,#733,.T.);
#733 = EDGE_CURVE('',#724,#724,#734,.T.);
#734 = CIRCLE('',#735,3.75);
#735 = AXIS2_PLACEMENT_3D('',#736,#737,#738);
#736 = CARTESIAN_POINT('',(-17.5,-15.,1.5));
#737 = DIRECTION('',(0.,0.,1.));
#738 = DIRECTION('',(1.,0.,0.));
#739 = CYLINDRICAL_SURFACE('',#740,3.75);
#740 = AXIS2_PLACEMENT_3D('',#741,#742,#743);
#741 = CARTESIAN_POINT('',(-17.5,-15.,1.5));
#742 = DIRECTION('',(0.,0.,1.));
#743 = DIRECTION('',(1.,0.,0.));
#744 = ADVANCED_FACE('',(#745),#770,.F.);
#745 = FACE_BOUND('',#746,.F.);
#746 = EDGE_LOOP('',(#747,#755,#763,#769));
#747 = ORIENTED_EDGE('',*,*,#748,.F.);
#748 = EDGE_CURVE('',#749,#238,#751,.T.);
#749 = VERTEX_POINT('',#750);
#750 = CARTESIAN_POINT('',(-27.5,-10.,3.6));
#751 = LINE('',#752,#753);
#752 = CARTESIAN_POINT('',(-27.5,-10.,3.6));
#753 = VECTOR('',#754,1.);
#754 = DIRECTION('',(0.,0.,1.));
#755 = ORIENTED_EDGE('',*,*,#756,.T.);
#756 = EDGE_CURVE('',#749,#757,#759,.T.);
#757 = VERTEX_POINT('',#758);
#758 = CARTESIAN_POINT('',(-27.5,10.,3.6));
#759 = LINE('',#760,#761);
#760 = CARTESIAN_POINT('',(-27.5,-25.,3.6));
#761 = VECTOR('',#762,1.);
#762 = DIRECTION('',(0.,1.,0.));
#763 = ORIENTED_EDGE('',*,*,#764,.T.);
#764 = EDGE_CURVE('',#757,#248,#765,.T.);
#765 = LINE('',#766,#767);
#766 = CARTESIAN_POINT('',(-27.5,10.,3.6));
#767 = VECTOR('',#768,1.);
#768 = DIRECTION('',(0.,0.,1.));
#769 = ORIENTED_EDGE('',*,*,#256,.F.);
#770 = PLANE('',#771);
#771 = AXIS2_PLACEMENT_3D('',#772,#773,#774);
#772 = CARTESIAN_POINT('',(-27.5,-25.,3.6));
#773 = DIRECTION('',(1.,0.,0.));
#774 = DIRECTION('',(0.,0.,1.));
#775 = ADVANCED_FACE('',(#776),#795,.T.);
#776 = FACE_BOUND('',#777,.T.);
#777 = EDGE_LOOP('',(#778,#779,#788,#794));
#778 = ORIENTED_EDGE('',*,*,#748,.F.);
#779 = ORIENTED_EDGE('',*,*,#780,.T.);
#780 = EDGE_CURVE('',#749,#781,#783,.T.);
#781 = VERTEX_POINT('',#782);
#782 = CARTESIAN_POINT('',(-12.5,-25.,3.6));
#783 = CIRCLE('',#784,15.);
#784 = AXIS2_PLACEMENT_3D('',#785,#786,#787);
#785 = CARTESIAN_POINT('',(-12.5,-10.,3.6));
#786 = DIRECTION('',(-0.,0.,1.));
#787 = DIRECTION('',(0.,-1.,0.));
#788 = ORIENTED_EDGE('',*,*,#789,.T.);
#789 = EDGE_CURVE('',#781,#271,#790,.T.);
#790 = LINE('',#791,#792);
#791 = CARTESIAN_POINT('',(-12.5,-25.,3.6));
#792 = VECTOR('',#793,1.);
#793 = DIRECTION('',(0.,0.,1.));
#794 = ORIENTED_EDGE('',*,*,#279,.T.);
#795 = CYLINDRICAL_SURFACE('',#796,15.);
#796 = AXIS2_PLACEMENT_3D('',#797,#798,#799);
#797 = CARTESIAN_POINT('',(-12.5,-10.,3.6));
#798 = DIRECTION('',(0.,0.,1.));
#799 = DIRECTION('',(-1.,0.,0.));
#800 = ADVANCED_FACE('',(#801),#820,.T.);
#801 = FACE_BOUND('',#802,.F.);
#802 = EDGE_LOOP('',(#803,#804,#813,#819));
#803 = ORIENTED_EDGE('',*,*,#764,.F.);
#804 = ORIENTED_EDGE('',*,*,#805,.T.);
#805 = EDGE_CURVE('',#757,#806,#808,.T.);
#806 = VERTEX_POINT('',#807);
#807 = CARTESIAN_POINT('',(-12.5,25.,3.6));
#808 = CIRCLE('',#809,15.);
#809 = AXIS2_PLACEMENT_3D('',#810,#811,#812);
#810 = CARTESIAN_POINT('',(-12.5,10.,3.6));
#811 = DIRECTION('',(-0.,-0.,-1.));
#812 = DIRECTION('',(0.,-1.,0.));
#813 = ORIENTED_EDGE('',*,*,#814,.T.);
#814 = EDGE_CURVE('',#806,#298,#815,.T.);
#815 = LINE('',#816,#817);
#816 = CARTESIAN_POINT('',(-12.5,25.,3.6));
#817 = VECTOR('',#818,1.);
#818 = DIRECTION('',(0.,0.,1.));
#819 = ORIENTED_EDGE('',*,*,#297,.F.);
#820 = CYLINDRICAL_SURFACE('',#821,15.);
#821 = AXIS2_PLACEMENT_3D('',#822,#823,#824);
#822 = CARTESIAN_POINT('',(-12.5,10.,3.6));
#823 = DIRECTION('',(0.,0.,1.));
#824 = DIRECTION('',(-1.,0.,0.));
#825 = ADVANCED_FACE('',(#826),#844,.F.);
#826 = FACE_BOUND('',#827,.F.);
#827 = EDGE_LOOP('',(#828,#829,#830,#838));
#828 = ORIENTED_EDGE('',*,*,#789,.T.);
#829 = ORIENTED_EDGE('',*,*,#333,.F.);
#830 = ORIENTED_EDGE('',*,*,#831,.F.);
#831 = EDGE_CURVE('',#832,#323,#834,.T.);
#832 = VERTEX_POINT('',#833);
#833 = CARTESIAN_POINT('',(12.5,-25.,3.6));
#834 = LINE('',#835,#836);
#835 = CARTESIAN_POINT('',(12.5,-25.,3.6));
#836 = VECTOR('',#837,1.);
#837 = DIRECTION('',(0.,0.,1.));
#838 = ORIENTED_EDGE('',*,*,#839,.F.);
#839 = EDGE_CURVE('',#781,#832,#840,.T.);
#840 = LINE('',#841,#842);
#841 = CARTESIAN_POINT('',(-27.5,-25.,3.6));
#842 = VECTOR('',#843,1.);
#843 = DIRECTION('',(1.,0.,0.));
#844 = PLANE('',#845);
#845 = AXIS2_PLACEMENT_3D('',#846,#847,#848);
#846 = CARTESIAN_POINT('',(-27.5,-25.,3.6));
#847 = DIRECTION('',(0.,1.,0.));
#848 = DIRECTION('',(0.,0.,1.));
#849 = ADVANCED_FACE('',(#850),#868,.T.);
#850 = FACE_BOUND('',#851,.T.);
#851 = EDGE_LOOP('',(#852,#853,#854,#862));
#852 = ORIENTED_EDGE('',*,*,#814,.T.);
#853 = ORIENTED_EDGE('',*,*,#358,.T.);
#854 = ORIENTED_EDGE('',*,*,#855,.F.);
#855 = EDGE_CURVE('',#856,#350,#858,.T.);
#856 = VERTEX_POINT('',#857);
#857 = CARTESIAN_POINT('',(12.5,25.,3.6));
#858 = LINE('',#859,#860);
#859 = CARTESIAN_POINT('',(12.5,25.,3.6));
#860 = VECTOR('',#861,1.);
#861 = DIRECTION('',(0.,0.,1.));
#862 = ORIENTED_EDGE('',*,*,#863,.F.);
#863 = EDGE_CURVE('',#806,#856,#864,.T.);
#864 = LINE('',#865,#866);
#865 = CARTESIAN_POINT('',(-27.5,25.,3.6));
#866 = VECTOR('',#867,1.);
#867 = DIRECTION('',(1.,0.,0.));
#868 = PLANE('',#869);
#869 = AXIS2_PLACEMENT_3D('',#870,#871,#872);
#870 = CARTESIAN_POINT('',(-27.5,25.,3.6));
#871 = DIRECTION('',(0.,1.,0.));
#872 = DIRECTION('',(0.,0.,1.));
#873 = ADVANCED_FACE('',(#874),#893,.T.);
#874 = FACE_BOUND('',#875,.F.);
#875 = EDGE_LOOP('',(#876,#884,#891,#892));
#876 = ORIENTED_EDGE('',*,*,#877,.F.);
#877 = EDGE_CURVE('',#878,#373,#880,.T.);
#878 = VERTEX_POINT('',#879);
#879 = CARTESIAN_POINT('',(27.5,-10.,3.6));
#880 = LINE('',#881,#882);
#881 = CARTESIAN_POINT('',(27.5,-10.,3.6));
#882 = VECTOR('',#883,1.);
#883 = DIRECTION('',(0.,0.,1.));
#884 = ORIENTED_EDGE('',*,*,#885,.T.);
#885 = EDGE_CURVE('',#878,#832,#886,.T.);
#886 = CIRCLE('',#887,15.);
#887 = AXIS2_PLACEMENT_3D('',#888,#889,#890);
#888 = CARTESIAN_POINT('',(12.5,-10.,3.6));
#889 = DIRECTION('',(-0.,-0.,-1.));
#890 = DIRECTION('',(0.,-1.,0.));
#891 = ORIENTED_EDGE('',*,*,#831,.T.);
#892 = ORIENTED_EDGE('',*,*,#381,.F.);
#893 = CYLINDRICAL_SURFACE('',#894,15.);
#894 = AXIS2_PLACEMENT_3D('',#895,#896,#897);
#895 = CARTESIAN_POINT('',(12.5,-10.,3.6));
#896 = DIRECTION('',(0.,0.,1.));
#897 = DIRECTION('',(1.,0.,0.));
#898 = ADVANCED_FACE('',(#899),#918,.T.);
#899 = FACE_BOUND('',#900,.T.);
#900 = EDGE_LOOP('',(#901,#909,#916,#917));
#901 = ORIENTED_EDGE('',*,*,#902,.F.);
#902 = EDGE_CURVE('',#903,#400,#905,.T.);
#903 = VERTEX_POINT('',#904);
#904 = CARTESIAN_POINT('',(27.5,10.,3.6));
#905 = LINE('',#906,#907);
#906 = CARTESIAN_POINT('',(27.5,10.,3.6));
#907 = VECTOR('',#908,1.);
#908 = DIRECTION('',(0.,0.,1.));
#909 = ORIENTED_EDGE('',*,*,#910,.T.);
#910 = EDGE_CURVE('',#903,#856,#911,.T.);
#911 = CIRCLE('',#912,15.);
#912 = AXIS2_PLACEMENT_3D('',#913,#914,#915);
#913 = CARTESIAN_POINT('',(12.5,10.,3.6));
#914 = DIRECTION('',(-0.,0.,1.));
#915 = DIRECTION('',(0.,-1.,0.));
#916 = ORIENTED_EDGE('',*,*,#855,.T.);
#917 = ORIENTED_EDGE('',*,*,#399,.T.);
#918 = CYLINDRICAL_SURFACE('',#919,15.);
#919 = AXIS2_PLACEMENT_3D('',#920,#921,#922);
#920 = CARTESIAN_POINT('',(12.5,10.,3.6));
#921 = DIRECTION('',(0.,0.,1.));
#922 = DIRECTION('',(1.,0.,0.));
#923 = ADVANCED_FACE('',(#924),#935,.T.);
#924 = FACE_BOUND('',#925,.T.);
#925 = EDGE_LOOP('',(#926,#927,#933,#934));
#926 = ORIENTED_EDGE('',*,*,#877,.F.);
#927 = ORIENTED_EDGE('',*,*,#928,.T.);
#928 = EDGE_CURVE('',#878,#903,#929,.T.);
#929 = LINE('',#930,#931);
#930 = CARTESIAN_POINT('',(27.5,-25.,3.6));
#931 = VECTOR('',#932,1.);
#932 = DIRECTION('',(0.,1.,0.));
#933 = ORIENTED_EDGE('',*,*,#902,.T.);
#934 = ORIENTED_EDGE('',*,*,#427,.T.);
#935 = PLANE('',#936);
#936 = AXIS2_PLACEMENT_3D('',#937,#938,#939);
#937 = CARTESIAN_POINT('',(27.5,-25.,3.6));
#938 = DIRECTION('',(1.,0.,0.));
#939 = DIRECTION('',(0.,0.,1.));
#940 = ADVANCED_FACE('',(#941),#969,.T.);
#941 = FACE_BOUND('',#942,.T.);
#942 = EDGE_LOOP('',(#943,#954,#961,#962));
#943 = ORIENTED_EDGE('',*,*,#944,.F.);
#944 = EDGE_CURVE('',#945,#947,#949,.T.);
#945 = VERTEX_POINT('',#946);
#946 = CARTESIAN_POINT('',(5.,-9.695262490344,9.6));
#947 = VERTEX_POINT('',#948);
#948 = CARTESIAN_POINT('',(9.695262490344,-5.,9.6));
#949 = CIRCLE('',#950,4.695262490344);
#950 = AXIS2_PLACEMENT_3D('',#951,#952,#953);
#951 = CARTESIAN_POINT('',(5.,-5.,9.6));
#952 = DIRECTION('',(0.,0.,1.));
#953 = DIRECTION('',(-3.783296126794E-16,-1.,0.));
#954 = ORIENTED_EDGE('',*,*,#955,.T.);
#955 = EDGE_CURVE('',#945,#442,#956,.T.);
#956 = CIRCLE('',#957,3.);
#957 = AXIS2_PLACEMENT_3D('',#958,#959,#960);
#958 = CARTESIAN_POINT('',(5.,-9.695262490344,6.6));
#959 = DIRECTION('',(1.,0.,0.));
#960 = DIRECTION('',(0.,-1.184237892933E-15,1.));
#961 = ORIENTED_EDGE('',*,*,#441,.T.);
#962 = ORIENTED_EDGE('',*,*,#963,.T.);
#963 = EDGE_CURVE('',#444,#947,#964,.T.);
#964 = CIRCLE('',#965,3.);
#965 = AXIS2_PLACEMENT_3D('',#966,#967,#968);
#966 = CARTESIAN_POINT('',(9.695262490344,-5.,6.6));
#967 = DIRECTION('',(4.527257213268E-18,-1.,0.));
#968 = DIRECTION('',(1.,4.527257213268E-18,0.));
#969 = TOROIDAL_SURFACE('',#970,4.695262490344,3.);
#970 = AXIS2_PLACEMENT_3D('',#971,#972,#973);
#971 = CARTESIAN_POINT('',(5.,-5.,6.6));
#972 = DIRECTION('',(0.,0.,1.));
#973 = DIRECTION('',(-3.783296126794E-16,-1.,0.));
#974 = ADVANCED_FACE('',(#975),#994,.T.);
#975 = FACE_BOUND('',#976,.T.);
#976 = EDGE_LOOP('',(#977,#978,#979,#987));
#977 = ORIENTED_EDGE('',*,*,#484,.T.);
#978 = ORIENTED_EDGE('',*,*,#955,.F.);
#979 = ORIENTED_EDGE('',*,*,#980,.F.);
#980 = EDGE_CURVE('',#981,#945,#983,.T.);
#981 = VERTEX_POINT('',#982);
#982 = CARTESIAN_POINT('',(-5.,-9.695262490344,9.6));
#983 = LINE('',#984,#985);
#984 = CARTESIAN_POINT('',(-5.,-9.695262490344,9.6));
#985 = VECTOR('',#986,1.);
#986 = DIRECTION('',(1.,0.,0.));
#987 = ORIENTED_EDGE('',*,*,#988,.F.);
#988 = EDGE_CURVE('',#476,#981,#989,.T.);
#989 = CIRCLE('',#990,3.);
#990 = AXIS2_PLACEMENT_3D('',#991,#992,#993);
#991 = CARTESIAN_POINT('',(-5.,-9.695262490344,6.6));
#992 = DIRECTION('',(-1.,5.629671618059E-16,0.));
#993 = DIRECTION('',(-5.629671618059E-16,-1.,0.));
#994 = CYLINDRICAL_SURFACE('',#995,3.);
#995 = AXIS2_PLACEMENT_3D('',#996,#997,#998);
#996 = CARTESIAN_POINT('',(0.,-9.695262490344,6.6));
#997 = DIRECTION('',(1.,0.,0.));
#998 = DIRECTION('',(0.,-1.184237892933E-15,1.));
#999 = ADVANCED_FACE('',(#1000),#1019,.T.);
#1000 = FACE_BOUND('',#1001,.T.);
#1001 = EDGE_LOOP('',(#1002,#1010,#1011,#1012));
#1002 = ORIENTED_EDGE('',*,*,#1003,.F.);
#1003 = EDGE_CURVE('',#947,#1004,#1006,.T.);
#1004 = VERTEX_POINT('',#1005);
#1005 = CARTESIAN_POINT('',(9.695262490344,5.,9.6));
#1006 = LINE('',#1007,#1008);
#1007 = CARTESIAN_POINT('',(9.695262490344,-5.,9.6));
#1008 = VECTOR('',#1009,1.);
#1009 = DIRECTION('',(0.,1.,0.));
#1010 = ORIENTED_EDGE('',*,*,#963,.F.);
#1011 = ORIENTED_EDGE('',*,*,#500,.T.);
#1012 = ORIENTED_EDGE('',*,*,#1013,.F.);
#1013 = EDGE_CURVE('',#1004,#501,#1014,.T.);
#1014 = CIRCLE('',#1015,3.);
#1015 = AXIS2_PLACEMENT_3D('',#1016,#1017,#1018);
#1016 = CARTESIAN_POINT('',(9.695262490344,5.,6.6));
#1017 = DIRECTION('',(-0.,1.,0.));
#1018 = DIRECTION('',(1.184237892933E-15,0.,1.));
#1019 = CYLINDRICAL_SURFACE('',#1020,3.);
#1020 = AXIS2_PLACEMENT_3D('',#1021,#1022,#1023);
#1021 = CARTESIAN_POINT('',(9.695262490344,-5.,6.6));
#1022 = DIRECTION('',(0.,1.,0.));
#1023 = DIRECTION('',(1.184237892933E-15,0.,1.));
#1024 = ADVANCED_FACE('',(#1025),#1045,.T.);
#1025 = FACE_BOUND('',#1026,.T.);
#1026 = EDGE_LOOP('',(#1027,#1036,#1043,#1044));
#1027 = ORIENTED_EDGE('',*,*,#1028,.F.);
#1028 = EDGE_CURVE('',#1029,#981,#1031,.T.);
#1029 = VERTEX_POINT('',#1030);
#1030 = CARTESIAN_POINT('',(-9.695262490344,-5.,9.6));
#1031 = CIRCLE('',#1032,4.695262490344);
#1032 = AXIS2_PLACEMENT_3D('',#1033,#1034,#1035);
#1033 = CARTESIAN_POINT('',(-5.,-5.,9.6));
#1034 = DIRECTION('',(0.,0.,1.));
#1035 = DIRECTION('',(-1.,9.458240316986E-16,0.));
#1036 = ORIENTED_EDGE('',*,*,#1037,.T.);
#1037 = EDGE_CURVE('',#1029,#526,#1038,.T.);
#1038 = CIRCLE('',#1039,3.);
#1039 = AXIS2_PLACEMENT_3D('',#1040,#1041,#1042);
#1040 = CARTESIAN_POINT('',(-9.695262490344,-5.,6.6));
#1041 = DIRECTION('',(0.,-1.,0.));
#1042 = DIRECTION('',(-1.184237892933E-15,0.,1.));
#1043 = ORIENTED_EDGE('',*,*,#525,.T.);
#1044 = ORIENTED_EDGE('',*,*,#988,.T.);
#1045 = TOROIDAL_SURFACE('',#1046,4.695262490344,3.);
#1046 = AXIS2_PLACEMENT_3D('',#1047,#1048,#1049);
#1047 = CARTESIAN_POINT('',(-5.,-5.,6.6));
#1048 = DIRECTION('',(0.,0.,1.));
#1049 = DIRECTION('',(-1.,9.458240316986E-16,0.));
#1050 = ADVANCED_FACE('',(#1051),#1071,.T.);
#1051 = FACE_BOUND('',#1052,.T.);
#1052 = EDGE_LOOP('',(#1053,#1062,#1063,#1064));
#1053 = ORIENTED_EDGE('',*,*,#1054,.F.);
#1054 = EDGE_CURVE('',#1004,#1055,#1057,.T.);
#1055 = VERTEX_POINT('',#1056);
#1056 = CARTESIAN_POINT('',(5.,9.695262490344,9.6));
#1057 = CIRCLE('',#1058,4.695262490344);
#1058 = AXIS2_PLACEMENT_3D('',#1059,#1060,#1061);
#1059 = CARTESIAN_POINT('',(5.,5.,9.6));
#1060 = DIRECTION('',(-0.,0.,1.));
#1061 = DIRECTION('',(1.,-3.783296126794E-16,0.));
#1062 = ORIENTED_EDGE('',*,*,#1013,.T.);
#1063 = ORIENTED_EDGE('',*,*,#551,.T.);
#1064 = ORIENTED_EDGE('',*,*,#1065,.T.);
#1065 = EDGE_CURVE('',#552,#1055,#1066,.T.);
#1066 = CIRCLE('',#1067,3.);
#1067 = AXIS2_PLACEMENT_3D('',#1068,#1069,#1070);
#1068 = CARTESIAN_POINT('',(5.,9.695262490344,6.6));
#1069 = DIRECTION('',(1.,4.527257213268E-18,-0.));
#1070 = DIRECTION('',(-4.527257213268E-18,1.,0.));
#1071 = TOROIDAL_SURFACE('',#1072,4.695262490344,3.);
#1072 = AXIS2_PLACEMENT_3D('',#1073,#1074,#1075);
#1073 = CARTESIAN_POINT('',(5.,5.,6.6));
#1074 = DIRECTION('',(0.,0.,1.));
#1075 = DIRECTION('',(1.,-3.783296126794E-16,0.));
#1076 = ADVANCED_FACE('',(#1077),#1096,.T.);
#1077 = FACE_BOUND('',#1078,.T.);
#1078 = EDGE_LOOP('',(#1079,#1087,#1094,#1095));
#1079 = ORIENTED_EDGE('',*,*,#1080,.F.);
#1080 = EDGE_CURVE('',#1081,#1029,#1083,.T.);
#1081 = VERTEX_POINT('',#1082);
#1082 = CARTESIAN_POINT('',(-9.695262490344,5.,9.6));
#1083 = LINE('',#1084,#1085);
#1084 = CARTESIAN_POINT('',(-9.695262490344,5.,9.6));
#1085 = VECTOR('',#1086,1.);
#1086 = DIRECTION('',(0.,-1.,0.));
#1087 = ORIENTED_EDGE('',*,*,#1088,.F.);
#1088 = EDGE_CURVE('',#578,#1081,#1089,.T.);
#1089 = CIRCLE('',#1090,3.);
#1090 = AXIS2_PLACEMENT_3D('',#1091,#1092,#1093);
#1091 = CARTESIAN_POINT('',(-9.695262490344,5.,6.6));
#1092 = DIRECTION('',(1.846375491264E-16,1.,-0.));
#1093 = DIRECTION('',(-1.,1.846375491264E-16,0.));
#1094 = ORIENTED_EDGE('',*,*,#577,.T.);
#1095 = ORIENTED_EDGE('',*,*,#1037,.F.);
#1096 = CYLINDRICAL_SURFACE('',#1097,3.);
#1097 = AXIS2_PLACEMENT_3D('',#1098,#1099,#1100);
#1098 = CARTESIAN_POINT('',(-9.695262490344,5.,6.6));
#1099 = DIRECTION('',(0.,-1.,0.));
#1100 = DIRECTION('',(-1.184237892933E-15,0.,1.));
#1101 = ADVANCED_FACE('',(#1102),#1121,.T.);
#1102 = FACE_BOUND('',#1103,.T.);
#1103 = EDGE_LOOP('',(#1104,#1112,#1113,#1114));
#1104 = ORIENTED_EDGE('',*,*,#1105,.F.);
#1105 = EDGE_CURVE('',#1055,#1106,#1108,.T.);
#1106 = VERTEX_POINT('',#1107);
#1107 = CARTESIAN_POINT('',(-5.,9.695262490344,9.6));
#1108 = LINE('',#1109,#1110);
#1109 = CARTESIAN_POINT('',(5.,9.695262490344,9.6));
#1110 = VECTOR('',#1111,1.);
#1111 = DIRECTION('',(-1.,0.,0.));
#1112 = ORIENTED_EDGE('',*,*,#1065,.F.);
#1113 = ORIENTED_EDGE('',*,*,#602,.T.);
#1114 = ORIENTED_EDGE('',*,*,#1115,.F.);
#1115 = EDGE_CURVE('',#1106,#603,#1116,.T.);
#1116 = CIRCLE('',#1117,3.);
#1117 = AXIS2_PLACEMENT_3D('',#1118,#1119,#1120);
#1118 = CARTESIAN_POINT('',(-5.,9.695262490344,6.6));
#1119 = DIRECTION('',(-1.,0.,0.));
#1120 = DIRECTION('',(0.,1.184237892933E-15,1.));
#1121 = CYLINDRICAL_SURFACE('',#1122,3.);
#1122 = AXIS2_PLACEMENT_3D('',#1123,#1124,#1125);
#1123 = CARTESIAN_POINT('',(5.,9.695262490344,6.6));
#1124 = DIRECTION('',(-1.,0.,0.));
#1125 = DIRECTION('',(0.,1.184237892933E-15,1.));
#1126 = ADVANCED_FACE('',(#1127),#1139,.T.);
#1127 = FACE_BOUND('',#1128,.T.);
#1128 = EDGE_LOOP('',(#1129,#1136,#1137,#1138));
#1129 = ORIENTED_EDGE('',*,*,#1130,.F.);
#1130 = EDGE_CURVE('',#1106,#1081,#1131,.T.);
#1131 = CIRCLE('',#1132,4.695262490344);
#1132 = AXIS2_PLACEMENT_3D('',#1133,#1134,#1135);
#1133 = CARTESIAN_POINT('',(-5.,5.,9.6));
#1134 = DIRECTION('',(0.,-0.,1.));
#1135 = DIRECTION('',(5.674944190191E-16,1.,0.));
#1136 = ORIENTED_EDGE('',*,*,#1115,.T.);
#1137 = ORIENTED_EDGE('',*,*,#627,.T.);
#1138 = ORIENTED_EDGE('',*,*,#1088,.T.);
#1139 = TOROIDAL_SURFACE('',#1140,4.695262490344,3.);
#1140 = AXIS2_PLACEMENT_3D('',#1141,#1142,#1143);
#1141 = CARTESIAN_POINT('',(-5.,5.,6.6));
#1142 = DIRECTION('',(0.,0.,1.));
#1143 = DIRECTION('',(5.674944190191E-16,1.,0.));
#1144 = ADVANCED_FACE('',(#1145),#1164,.F.);
#1145 = FACE_BOUND('',#1146,.F.);
#1146 = EDGE_LOOP('',(#1147,#1155,#1156,#1157));
#1147 = ORIENTED_EDGE('',*,*,#1148,.T.);
#1148 = EDGE_CURVE('',#1149,#646,#1151,.T.);
#1149 = VERTEX_POINT('',#1150);
#1150 = CARTESIAN_POINT('',(21.25,-15.,1.5));
#1151 = LINE('',#1152,#1153);
#1152 = CARTESIAN_POINT('',(21.25,-15.,1.5));
#1153 = VECTOR('',#1154,1.);
#1154 = DIRECTION('',(0.,0.,1.));
#1155 = ORIENTED_EDGE('',*,*,#656,.F.);
#1156 = ORIENTED_EDGE('',*,*,#1148,.F.);
#1157 = ORIENTED_EDGE('',*,*,#1158,.T.);
#1158 = EDGE_CURVE('',#1149,#1149,#1159,.T.);
#1159 = CIRCLE('',#1160,3.75);
#1160 = AXIS2_PLACEMENT_3D('',#1161,#1162,#1163);
#1161 = CARTESIAN_POINT('',(17.5,-15.,1.5));
#1162 = DIRECTION('',(0.,0.,1.));
#1163 = DIRECTION('',(1.,0.,0.));
#1164 = CYLINDRICAL_SURFACE('',#1165,3.75);
#1165 = AXIS2_PLACEMENT_3D('',#1166,#1167,#1168);
#1166 = CARTESIAN_POINT('',(17.5,-15.,1.5));
#1167 = DIRECTION('',(0.,0.,1.));
#1168 = DIRECTION('',(1.,0.,0.));
#1169 = ADVANCED_FACE('',(#1170),#1189,.F.);
#1170 = FACE_BOUND('',#1171,.F.);
#1171 = EDGE_LOOP('',(#1172,#1180,#1181,#1182));
#1172 = ORIENTED_EDGE('',*,*,#1173,.T.);
#1173 = EDGE_CURVE('',#1174,#672,#1176,.T.);
#1174 = VERTEX_POINT('',#1175);
#1175 = CARTESIAN_POINT('',(-13.75,15.,1.5));
#1176 = LINE('',#1177,#1178);
#1177 = CARTESIAN_POINT('',(-13.75,15.,1.5));
#1178 = VECTOR('',#1179,1.);
#1179 = DIRECTION('',(0.,0.,1.));
#1180 = ORIENTED_EDGE('',*,*,#682,.F.);
#1181 = ORIENTED_EDGE('',*,*,#1173,.F.);
#1182 = ORIENTED_EDGE('',*,*,#1183,.T.);
#1183 = EDGE_CURVE('',#1174,#1174,#1184,.T.);
#1184 = CIRCLE('',#1185,3.75);
#1185 = AXIS2_PLACEMENT_3D('',#1186,#1187,#1188);
#1186 = CARTESIAN_POINT('',(-17.5,15.,1.5));
#1187 = DIRECTION('',(0.,0.,1.));
#1188 = DIRECTION('',(1.,0.,0.));
#1189 = CYLINDRICAL_SURFACE('',#1190,3.75);
#1190 = AXIS2_PLACEMENT_3D('',#1191,#1192,#1193);
#1191 = CARTESIAN_POINT('',(-17.5,15.,1.5));
#1192 = DIRECTION('',(0.,0.,1.));
#1193 = DIRECTION('',(1.,0.,0.));
#1194 = ADVANCED_FACE('',(#1195),#1214,.F.);
#1195 = FACE_BOUND('',#1196,.F.);
#1196 = EDGE_LOOP('',(#1197,#1205,#1206,#1207));
#1197 = ORIENTED_EDGE('',*,*,#1198,.T.);
#1198 = EDGE_CURVE('',#1199,#698,#1201,.T.);
#1199 = VERTEX_POINT('',#1200);
#1200 = CARTESIAN_POINT('',(21.25,15.,1.5));
#1201 = LINE('',#1202,#1203);
#1202 = CARTESIAN_POINT('',(21.25,15.,1.5));
#1203 = VECTOR('',#1204,1.);
#1204 = DIRECTION('',(0.,0.,1.));
#1205 = ORIENTED_EDGE('',*,*,#708,.F.);
#1206 = ORIENTED_EDGE('',*,*,#1198,.F.);
#1207 = ORIENTED_EDGE('',*,*,#1208,.T.);
#1208 = EDGE_CURVE('',#1199,#1199,#1209,.T.);
#1209 = CIRCLE('',#1210,3.75);
#1210 = AXIS2_PLACEMENT_3D('',#1211,#1212,#1213);
#1211 = CARTESIAN_POINT('',(17.5,15.,1.5));
#1212 = DIRECTION('',(0.,0.,1.));
#1213 = DIRECTION('',(1.,0.,0.));
#1214 = CYLINDRICAL_SURFACE('',#1215,3.75);
#1215 = AXIS2_PLACEMENT_3D('',#1216,#1217,#1218);
#1216 = CARTESIAN_POINT('',(17.5,15.,1.5));
#1217 = DIRECTION('',(0.,0.,1.));
#1218 = DIRECTION('',(1.,0.,0.));
#1219 = ADVANCED_FACE('',(#1220,#1223),#1234,.T.);
#1220 = FACE_BOUND('',#1221,.T.);
#1221 = EDGE_LOOP('',(#1222));
#1222 = ORIENTED_EDGE('',*,*,#733,.T.);
#1223 = FACE_BOUND('',#1224,.T.);
#1224 = EDGE_LOOP('',(#1225));
#1225 = ORIENTED_EDGE('',*,*,#1226,.F.);
#1226 = EDGE_CURVE('',#1227,#1227,#1229,.T.);
#1227 = VERTEX_POINT('',#1228);
#1228 = CARTESIAN_POINT('',(-15.6,-15.,1.5));
#1229 = CIRCLE('',#1230,1.9);
#1230 = AXIS2_PLACEMENT_3D('',#1231,#1232,#1233);
#1231 = CARTESIAN_POINT('',(-17.5,-15.,1.5));
#1232 = DIRECTION('',(0.,0.,1.));
#1233 = DIRECTION('',(1.,0.,0.));
#1234 = PLANE('',#1235);
#1235 = AXIS2_PLACEMENT_3D('',#1236,#1237,#1238);
#1236 = CARTESIAN_POINT('',(-17.5,-15.,1.5));
#1237 = DIRECTION('',(0.,0.,1.));
#1238 = DIRECTION('',(1.,0.,0.));
#1239 = ADVANCED_FACE('',(#1240,#1250,#1261,#1272,#1283,#1417),#1428,.F.
  );
#1240 = FACE_BOUND('',#1241,.F.);
#1241 = EDGE_LOOP('',(#1242,#1243,#1244,#1245,#1246,#1247,#1248,#1249));
#1242 = ORIENTED_EDGE('',*,*,#756,.F.);
#1243 = ORIENTED_EDGE('',*,*,#780,.T.);
#1244 = ORIENTED_EDGE('',*,*,#839,.T.);
#1245 = ORIENTED_EDGE('',*,*,#885,.F.);
#1246 = ORIENTED_EDGE('',*,*,#928,.T.);
#1247 = ORIENTED_EDGE('',*,*,#910,.T.);
#1248 = ORIENTED_EDGE('',*,*,#863,.F.);
#1249 = ORIENTED_EDGE('',*,*,#805,.F.);
#1250 = FACE_BOUND('',#1251,.F.);
#1251 = EDGE_LOOP('',(#1252));
#1252 = ORIENTED_EDGE('',*,*,#1253,.F.);
#1253 = EDGE_CURVE('',#1254,#1254,#1256,.T.);
#1254 = VERTEX_POINT('',#1255);
#1255 = CARTESIAN_POINT('',(-12.75,-15.,3.6));
#1256 = CIRCLE('',#1257,4.75);
#1257 = AXIS2_PLACEMENT_3D('',#1258,#1259,#1260);
#1258 = CARTESIAN_POINT('',(-17.5,-15.,3.6));
#1259 = DIRECTION('',(0.,0.,1.));
#1260 = DIRECTION('',(1.,0.,0.));
#1261 = FACE_BOUND('',#1262,.F.);
#1262 = EDGE_LOOP('',(#1263));
#1263 = ORIENTED_EDGE('',*,*,#1264,.F.);
#1264 = EDGE_CURVE('',#1265,#1265,#1267,.T.);
#1265 = VERTEX_POINT('',#1266);
#1266 = CARTESIAN_POINT('',(22.25,-15.,3.6));
#1267 = CIRCLE('',#1268,4.75);
#1268 = AXIS2_PLACEMENT_3D('',#1269,#1270,#1271);
#1269 = CARTESIAN_POINT('',(17.5,-15.,3.6));
#1270 = DIRECTION('',(0.,0.,1.));
#1271 = DIRECTION('',(1.,0.,0.));
#1272 = FACE_BOUND('',#1273,.F.);
#1273 = EDGE_LOOP('',(#1274));
#1274 = ORIENTED_EDGE('',*,*,#1275,.F.);
#1275 = EDGE_CURVE('',#1276,#1276,#1278,.T.);
#1276 = VERTEX_POINT('',#1277);
#1277 = CARTESIAN_POINT('',(-12.75,15.,3.6));
#1278 = CIRCLE('',#1279,4.75);
#1279 = AXIS2_PLACEMENT_3D('',#1280,#1281,#1282);
#1280 = CARTESIAN_POINT('',(-17.5,15.,3.6));
#1281 = DIRECTION('',(0.,0.,1.));
#1282 = DIRECTION('',(1.,0.,0.));
#1283 = FACE_BOUND('',#1284,.F.);
#1284 = EDGE_LOOP('',(#1285,#1296,#1304,#1312,#1320,#1328,#1336,#1345,
    #1353,#1362,#1370,#1378,#1386,#1394,#1402,#1411));
#1285 = ORIENTED_EDGE('',*,*,#1286,.F.);
#1286 = EDGE_CURVE('',#1287,#1289,#1291,.T.);
#1287 = VERTEX_POINT('',#1288);
#1288 = CARTESIAN_POINT('',(-11.,-5.,3.6));
#1289 = VERTEX_POINT('',#1290);
#1290 = CARTESIAN_POINT('',(-5.,-11.,3.6));
#1291 = CIRCLE('',#1292,6.);
#1292 = AXIS2_PLACEMENT_3D('',#1293,#1294,#1295);
#1293 = CARTESIAN_POINT('',(-5.,-5.,3.6));
#1294 = DIRECTION('',(0.,0.,1.));
#1295 = DIRECTION('',(-1.,0.,0.));
#1296 = ORIENTED_EDGE('',*,*,#1297,.T.);
#1297 = EDGE_CURVE('',#1287,#1298,#1300,.T.);
#1298 = VERTEX_POINT('',#1299);
#1299 = CARTESIAN_POINT('',(-11.,-4.,3.6));
#1300 = LINE('',#1301,#1302);
#1301 = CARTESIAN_POINT('',(-11.,-18.,3.6));
#1302 = VECTOR('',#1303,1.);
#1303 = DIRECTION('',(0.,1.,0.));
#1304 = ORIENTED_EDGE('',*,*,#1305,.T.);
#1305 = EDGE_CURVE('',#1298,#1306,#1308,.T.);
#1306 = VERTEX_POINT('',#1307);
#1307 = CARTESIAN_POINT('',(-15.47680412371,-4.,3.6));
#1308 = LINE('',#1309,#1310);
#1309 = CARTESIAN_POINT('',(-20.18254591664,-4.,3.6));
#1310 = VECTOR('',#1311,1.);
#1311 = DIRECTION('',(-1.,0.,0.));
#1312 = ORIENTED_EDGE('',*,*,#1313,.T.);
#1313 = EDGE_CURVE('',#1306,#1314,#1316,.T.);
#1314 = VERTEX_POINT('',#1315);
#1315 = CARTESIAN_POINT('',(-15.47680412371,4.,3.6));
#1316 = LINE('',#1317,#1318);
#1317 = CARTESIAN_POINT('',(-15.47680412371,-14.5,3.6));
#1318 = VECTOR('',#1319,1.);
#1319 = DIRECTION('',(0.,1.,0.));
#1320 = ORIENTED_EDGE('',*,*,#1321,.F.);
#1321 = EDGE_CURVE('',#1322,#1314,#1324,.T.);
#1322 = VERTEX_POINT('',#1323);
#1323 = CARTESIAN_POINT('',(-11.,4.,3.6));
#1324 = LINE('',#1325,#1326);
#1325 = CARTESIAN_POINT('',(-20.18254591664,4.,3.6));
#1326 = VECTOR('',#1327,1.);
#1327 = DIRECTION('',(-1.,0.,0.));
#1328 = ORIENTED_EDGE('',*,*,#1329,.T.);
#1329 = EDGE_CURVE('',#1322,#1330,#1332,.T.);
#1330 = VERTEX_POINT('',#1331);
#1331 = CARTESIAN_POINT('',(-11.,5.,3.6));
#1332 = LINE('',#1333,#1334);
#1333 = CARTESIAN_POINT('',(-11.,-18.,3.6));
#1334 = VECTOR('',#1335,1.);
#1335 = DIRECTION('',(0.,1.,0.));
#1336 = ORIENTED_EDGE('',*,*,#1337,.F.);
#1337 = EDGE_CURVE('',#1338,#1330,#1340,.T.);
#1338 = VERTEX_POINT('',#1339);
#1339 = CARTESIAN_POINT('',(-5.,11.,3.6));
#1340 = CIRCLE('',#1341,6.);
#1341 = AXIS2_PLACEMENT_3D('',#1342,#1343,#1344);
#1342 = CARTESIAN_POINT('',(-5.,5.,3.6));
#1343 = DIRECTION('',(0.,0.,1.));
#1344 = DIRECTION('',(-1.,0.,0.));
#1345 = ORIENTED_EDGE('',*,*,#1346,.F.);
#1346 = EDGE_CURVE('',#1347,#1338,#1349,.T.);
#1347 = VERTEX_POINT('',#1348);
#1348 = CARTESIAN_POINT('',(5.,11.,3.6));
#1349 = LINE('',#1350,#1351);
#1350 = CARTESIAN_POINT('',(-19.25,11.,3.6));
#1351 = VECTOR('',#1352,1.);
#1352 = DIRECTION('',(-1.,0.,0.));
#1353 = ORIENTED_EDGE('',*,*,#1354,.F.);
#1354 = EDGE_CURVE('',#1355,#1347,#1357,.T.);
#1355 = VERTEX_POINT('',#1356);
#1356 = CARTESIAN_POINT('',(11.,5.,3.6));
#1357 = CIRCLE('',#1358,6.);
#1358 = AXIS2_PLACEMENT_3D('',#1359,#1360,#1361);
#1359 = CARTESIAN_POINT('',(5.,5.,3.6));
#1360 = DIRECTION('',(0.,0.,1.));
#1361 = DIRECTION('',(1.,0.,0.));
#1362 = ORIENTED_EDGE('',*,*,#1363,.F.);
#1363 = EDGE_CURVE('',#1364,#1355,#1366,.T.);
#1364 = VERTEX_POINT('',#1365);
#1365 = CARTESIAN_POINT('',(11.,4.,3.6));
#1366 = LINE('',#1367,#1368);
#1367 = CARTESIAN_POINT('',(11.,-18.,3.6));
#1368 = VECTOR('',#1369,1.);
#1369 = DIRECTION('',(0.,1.,0.));
#1370 = ORIENTED_EDGE('',*,*,#1371,.T.);
#1371 = EDGE_CURVE('',#1364,#1372,#1374,.T.);
#1372 = VERTEX_POINT('',#1373);
#1373 = CARTESIAN_POINT('',(15.476804123711,4.,3.6));
#1374 = LINE('',#1375,#1376);
#1375 = CARTESIAN_POINT('',(-7.317454083354,4.,3.6));
#1376 = VECTOR('',#1377,1.);
#1377 = DIRECTION('',(1.,0.,0.));
#1378 = ORIENTED_EDGE('',*,*,#1379,.F.);
#1379 = EDGE_CURVE('',#1380,#1372,#1382,.T.);
#1380 = VERTEX_POINT('',#1381);
#1381 = CARTESIAN_POINT('',(15.476804123711,-4.,3.6));
#1382 = LINE('',#1383,#1384);
#1383 = CARTESIAN_POINT('',(15.476804123711,-14.5,3.6));
#1384 = VECTOR('',#1385,1.);
#1385 = DIRECTION('',(0.,1.,0.));
#1386 = ORIENTED_EDGE('',*,*,#1387,.F.);
#1387 = EDGE_CURVE('',#1388,#1380,#1390,.T.);
#1388 = VERTEX_POINT('',#1389);
#1389 = CARTESIAN_POINT('',(11.,-4.,3.6));
#1390 = LINE('',#1391,#1392);
#1391 = CARTESIAN_POINT('',(-7.317454083354,-4.,3.6));
#1392 = VECTOR('',#1393,1.);
#1393 = DIRECTION('',(1.,0.,0.));
#1394 = ORIENTED_EDGE('',*,*,#1395,.F.);
#1395 = EDGE_CURVE('',#1396,#1388,#1398,.T.);
#1396 = VERTEX_POINT('',#1397);
#1397 = CARTESIAN_POINT('',(11.,-5.,3.6));
#1398 = LINE('',#1399,#1400);
#1399 = CARTESIAN_POINT('',(11.,-18.,3.6));
#1400 = VECTOR('',#1401,1.);
#1401 = DIRECTION('',(0.,1.,0.));
#1402 = ORIENTED_EDGE('',*,*,#1403,.F.);
#1403 = EDGE_CURVE('',#1404,#1396,#1406,.T.);
#1404 = VERTEX_POINT('',#1405);
#1405 = CARTESIAN_POINT('',(5.,-11.,3.6));
#1406 = CIRCLE('',#1407,6.);
#1407 = AXIS2_PLACEMENT_3D('',#1408,#1409,#1410);
#1408 = CARTESIAN_POINT('',(5.,-5.,3.6));
#1409 = DIRECTION('',(0.,0.,1.));
#1410 = DIRECTION('',(1.,0.,0.));
#1411 = ORIENTED_EDGE('',*,*,#1412,.T.);
#1412 = EDGE_CURVE('',#1404,#1289,#1413,.T.);
#1413 = LINE('',#1414,#1415);
#1414 = CARTESIAN_POINT('',(-19.25,-11.,3.6));
#1415 = VECTOR('',#1416,1.);
#1416 = DIRECTION('',(-1.,0.,0.));
#1417 = FACE_BOUND('',#1418,.F.);
#1418 = EDGE_LOOP('',(#1419));
#1419 = ORIENTED_EDGE('',*,*,#1420,.F.);
#1420 = EDGE_CURVE('',#1421,#1421,#1423,.T.);
#1421 = VERTEX_POINT('',#1422);
#1422 = CARTESIAN_POINT('',(22.25,15.,3.6));
#1423 = CIRCLE('',#1424,4.75);
#1424 = AXIS2_PLACEMENT_3D('',#1425,#1426,#1427);
#1425 = CARTESIAN_POINT('',(17.5,15.,3.6));
#1426 = DIRECTION('',(0.,0.,1.));
#1427 = DIRECTION('',(1.,0.,0.));
#1428 = PLANE('',#1429);
#1429 = AXIS2_PLACEMENT_3D('',#1430,#1431,#1432);
#1430 = CARTESIAN_POINT('',(-27.5,-25.,3.6));
#1431 = DIRECTION('',(0.,0.,1.));
#1432 = DIRECTION('',(1.,0.,0.));
#1433 = ADVANCED_FACE('',(#1434,#1444),#1455,.T.);
#1434 = FACE_BOUND('',#1435,.T.);
#1435 = EDGE_LOOP('',(#1436,#1437,#1438,#1439,#1440,#1441,#1442,#1443));
#1436 = ORIENTED_EDGE('',*,*,#944,.T.);
#1437 = ORIENTED_EDGE('',*,*,#1003,.T.);
#1438 = ORIENTED_EDGE('',*,*,#1054,.T.);
#1439 = ORIENTED_EDGE('',*,*,#1105,.T.);
#1440 = ORIENTED_EDGE('',*,*,#1130,.T.);
#1441 = ORIENTED_EDGE('',*,*,#1080,.T.);
#1442 = ORIENTED_EDGE('',*,*,#1028,.T.);
#1443 = ORIENTED_EDGE('',*,*,#980,.T.);
#1444 = FACE_BOUND('',#1445,.T.);
#1445 = EDGE_LOOP('',(#1446));
#1446 = ORIENTED_EDGE('',*,*,#1447,.F.);
#1447 = EDGE_CURVE('',#1448,#1448,#1450,.T.);
#1448 = VERTEX_POINT('',#1449);
#1449 = CARTESIAN_POINT('',(5.75,-1.408343819019E-15,9.6));
#1450 = CIRCLE('',#1451,5.75);
#1451 = AXIS2_PLACEMENT_3D('',#1452,#1453,#1454);
#1452 = CARTESIAN_POINT('',(0.,0.,9.6));
#1453 = DIRECTION('',(0.,0.,1.));
#1454 = DIRECTION('',(1.,0.,0.));
#1455 = PLANE('',#1456);
#1456 = AXIS2_PLACEMENT_3D('',#1457,#1458,#1459);
#1457 = CARTESIAN_POINT('',(-4.62289546054E-16,5.136550511711E-16,9.6));
#1458 = DIRECTION('',(0.,0.,1.));
#1459 = DIRECTION('',(1.,0.,0.));
#1460 = ADVANCED_FACE('',(#1461,#1464),#1475,.T.);
#1461 = FACE_BOUND('',#1462,.T.);
#1462 = EDGE_LOOP('',(#1463));
#1463 = ORIENTED_EDGE('',*,*,#1158,.T.);
#1464 = FACE_BOUND('',#1465,.T.);
#1465 = EDGE_LOOP('',(#1466));
#1466 = ORIENTED_EDGE('',*,*,#1467,.F.);
#1467 = EDGE_CURVE('',#1468,#1468,#1470,.T.);
#1468 = VERTEX_POINT('',#1469);
#1469 = CARTESIAN_POINT('',(19.4,-15.,1.5));
#1470 = CIRCLE('',#1471,1.9);
#1471 = AXIS2_PLACEMENT_3D('',#1472,#1473,#1474);
#1472 = CARTESIAN_POINT('',(17.5,-15.,1.5));
#1473 = DIRECTION('',(0.,0.,1.));
#1474 = DIRECTION('',(1.,0.,0.));
#1475 = PLANE('',#1476);
#1476 = AXIS2_PLACEMENT_3D('',#1477,#1478,#1479);
#1477 = CARTESIAN_POINT('',(17.5,-15.,1.5));
#1478 = DIRECTION('',(0.,0.,1.));
#1479 = DIRECTION('',(1.,0.,0.));
#1480 = ADVANCED_FACE('',(#1481,#1484),#1495,.T.);
#1481 = FACE_BOUND('',#1482,.T.);
#1482 = EDGE_LOOP('',(#1483));
#1483 = ORIENTED_EDGE('',*,*,#1183,.T.);
#1484 = FACE_BOUND('',#1485,.T.);
#1485 = EDGE_LOOP('',(#1486));
#1486 = ORIENTED_EDGE('',*,*,#1487,.F.);
#1487 = EDGE_CURVE('',#1488,#1488,#1490,.T.);
#1488 = VERTEX_POINT('',#1489);
#1489 = CARTESIAN_POINT('',(-15.6,15.,1.5));
#1490 = CIRCLE('',#1491,1.9);
#1491 = AXIS2_PLACEMENT_3D('',#1492,#1493,#1494);
#1492 = CARTESIAN_POINT('',(-17.5,15.,1.5));
#1493 = DIRECTION('',(0.,0.,1.));
#1494 = DIRECTION('',(1.,0.,0.));
#1495 = PLANE('',#1496);
#1496 = AXIS2_PLACEMENT_3D('',#1497,#1498,#1499);
#1497 = CARTESIAN_POINT('',(-17.5,15.,1.5));
#1498 = DIRECTION('',(0.,0.,1.));
#1499 = DIRECTION('',(1.,0.,0.));
#1500 = ADVANCED_FACE('',(#1501,#1504),#1515,.T.);
#1501 = FACE_BOUND('',#1502,.T.);
#1502 = EDGE_LOOP('',(#1503));
#1503 = ORIENTED_EDGE('',*,*,#1208,.T.);
#1504 = FACE_BOUND('',#1505,.T.);
#1505 = EDGE_LOOP('',(#1506));
#1506 = ORIENTED_EDGE('',*,*,#1507,.F.);
#1507 = EDGE_CURVE('',#1508,#1508,#1510,.T.);
#1508 = VERTEX_POINT('',#1509);
#1509 = CARTESIAN_POINT('',(19.4,15.,1.5));
#1510 = CIRCLE('',#1511,1.9);
#1511 = AXIS2_PLACEMENT_3D('',#1512,#1513,#1514);
#1512 = CARTESIAN_POINT('',(17.5,15.,1.5));
#1513 = DIRECTION('',(0.,0.,1.));
#1514 = DIRECTION('',(1.,0.,0.));
#1515 = PLANE('',#1516);
#1516 = AXIS2_PLACEMENT_3D('',#1517,#1518,#1519);
#1517 = CARTESIAN_POINT('',(17.5,15.,1.5));
#1518 = DIRECTION('',(0.,0.,1.));
#1519 = DIRECTION('',(1.,0.,0.));
#1520 = ADVANCED_FACE('',(#1521),#1540,.F.);
#1521 = FACE_BOUND('',#1522,.F.);
#1522 = EDGE_LOOP('',(#1523,#1524,#1532,#1539));
#1523 = ORIENTED_EDGE('',*,*,#1226,.F.);
#1524 = ORIENTED_EDGE('',*,*,#1525,.F.);
#1525 = EDGE_CURVE('',#1526,#1227,#1528,.T.);
#1526 = VERTEX_POINT('',#1527);
#1527 = CARTESIAN_POINT('',(-15.6,-15.,0.2));
#1528 = LINE('',#1529,#1530);
#1529 = CARTESIAN_POINT('',(-15.6,-15.,-1.));
#1530 = VECTOR('',#1531,1.);
#1531 = DIRECTION('',(0.,0.,1.));
#1532 = ORIENTED_EDGE('',*,*,#1533,.T.);
#1533 = EDGE_CURVE('',#1526,#1526,#1534,.T.);
#1534 = CIRCLE('',#1535,1.9);
#1535 = AXIS2_PLACEMENT_3D('',#1536,#1537,#1538);
#1536 = CARTESIAN_POINT('',(-17.5,-15.,0.2));
#1537 = DIRECTION('',(0.,0.,1.));
#1538 = DIRECTION('',(1.,0.,0.));
#1539 = ORIENTED_EDGE('',*,*,#1525,.T.);
#1540 = CYLINDRICAL_SURFACE('',#1541,1.9);
#1541 = AXIS2_PLACEMENT_3D('',#1542,#1543,#1544);
#1542 = CARTESIAN_POINT('',(-17.5,-15.,-1.));
#1543 = DIRECTION('',(0.,0.,1.));
#1544 = DIRECTION('',(1.,0.,0.));
#1545 = ADVANCED_FACE('',(#1546),#1565,.T.);
#1546 = FACE_BOUND('',#1547,.T.);
#1547 = EDGE_LOOP('',(#1548,#1549,#1557,#1564));
#1548 = ORIENTED_EDGE('',*,*,#1253,.F.);
#1549 = ORIENTED_EDGE('',*,*,#1550,.F.);
#1550 = EDGE_CURVE('',#1551,#1254,#1553,.T.);
#1551 = VERTEX_POINT('',#1552);
#1552 = CARTESIAN_POINT('',(-12.75,-15.,0.2));
#1553 = LINE('',#1554,#1555);
#1554 = CARTESIAN_POINT('',(-12.75,-15.,0.2));
#1555 = VECTOR('',#1556,1.);
#1556 = DIRECTION('',(0.,0.,1.));
#1557 = ORIENTED_EDGE('',*,*,#1558,.T.);
#1558 = EDGE_CURVE('',#1551,#1551,#1559,.T.);
#1559 = CIRCLE('',#1560,4.75);
#1560 = AXIS2_PLACEMENT_3D('',#1561,#1562,#1563);
#1561 = CARTESIAN_POINT('',(-17.5,-15.,0.2));
#1562 = DIRECTION('',(0.,0.,1.));
#1563 = DIRECTION('',(1.,0.,0.));
#1564 = ORIENTED_EDGE('',*,*,#1550,.T.);
#1565 = CYLINDRICAL_SURFACE('',#1566,4.75);
#1566 = AXIS2_PLACEMENT_3D('',#1567,#1568,#1569);
#1567 = CARTESIAN_POINT('',(-17.5,-15.,0.2));
#1568 = DIRECTION('',(0.,0.,1.));
#1569 = DIRECTION('',(1.,0.,0.));
#1570 = ADVANCED_FACE('',(#1571),#1590,.T.);
#1571 = FACE_BOUND('',#1572,.T.);
#1572 = EDGE_LOOP('',(#1573,#1574,#1582,#1589));
#1573 = ORIENTED_EDGE('',*,*,#1264,.F.);
#1574 = ORIENTED_EDGE('',*,*,#1575,.F.);
#1575 = EDGE_CURVE('',#1576,#1265,#1578,.T.);
#1576 = VERTEX_POINT('',#1577);
#1577 = CARTESIAN_POINT('',(22.25,-15.,0.2));
#1578 = LINE('',#1579,#1580);
#1579 = CARTESIAN_POINT('',(22.25,-15.,0.2));
#1580 = VECTOR('',#1581,1.);
#1581 = DIRECTION('',(0.,0.,1.));
#1582 = ORIENTED_EDGE('',*,*,#1583,.T.);
#1583 = EDGE_CURVE('',#1576,#1576,#1584,.T.);
#1584 = CIRCLE('',#1585,4.75);
#1585 = AXIS2_PLACEMENT_3D('',#1586,#1587,#1588);
#1586 = CARTESIAN_POINT('',(17.5,-15.,0.2));
#1587 = DIRECTION('',(0.,0.,1.));
#1588 = DIRECTION('',(1.,0.,0.));
#1589 = ORIENTED_EDGE('',*,*,#1575,.T.);
#1590 = CYLINDRICAL_SURFACE('',#1591,4.75);
#1591 = AXIS2_PLACEMENT_3D('',#1592,#1593,#1594);
#1592 = CARTESIAN_POINT('',(17.5,-15.,0.2));
#1593 = DIRECTION('',(0.,0.,1.));
#1594 = DIRECTION('',(1.,0.,0.));
#1595 = ADVANCED_FACE('',(#1596),#1615,.T.);
#1596 = FACE_BOUND('',#1597,.T.);
#1597 = EDGE_LOOP('',(#1598,#1599,#1607,#1614));
#1598 = ORIENTED_EDGE('',*,*,#1275,.F.);
#1599 = ORIENTED_EDGE('',*,*,#1600,.F.);
#1600 = EDGE_CURVE('',#1601,#1276,#1603,.T.);
#1601 = VERTEX_POINT('',#1602);
#1602 = CARTESIAN_POINT('',(-12.75,15.,0.2));
#1603 = LINE('',#1604,#1605);
#1604 = CARTESIAN_POINT('',(-12.75,15.,0.2));
#1605 = VECTOR('',#1606,1.);
#1606 = DIRECTION('',(0.,0.,1.));
#1607 = ORIENTED_EDGE('',*,*,#1608,.T.);
#1608 = EDGE_CURVE('',#1601,#1601,#1609,.T.);
#1609 = CIRCLE('',#1610,4.75);
#1610 = AXIS2_PLACEMENT_3D('',#1611,#1612,#1613);
#1611 = CARTESIAN_POINT('',(-17.5,15.,0.2));
#1612 = DIRECTION('',(0.,0.,1.));
#1613 = DIRECTION('',(1.,0.,0.));
#1614 = ORIENTED_EDGE('',*,*,#1600,.T.);
#1615 = CYLINDRICAL_SURFACE('',#1616,4.75);
#1616 = AXIS2_PLACEMENT_3D('',#1617,#1618,#1619);
#1617 = CARTESIAN_POINT('',(-17.5,15.,0.2));
#1618 = DIRECTION('',(0.,0.,1.));
#1619 = DIRECTION('',(1.,0.,0.));
#1620 = ADVANCED_FACE('',(#1621),#1647,.F.);
#1621 = FACE_BOUND('',#1622,.F.);
#1622 = EDGE_LOOP('',(#1623,#1631,#1632,#1640));
#1623 = ORIENTED_EDGE('',*,*,#1624,.F.);
#1624 = EDGE_CURVE('',#1287,#1625,#1627,.T.);
#1625 = VERTEX_POINT('',#1626);
#1626 = CARTESIAN_POINT('',(-11.,-5.,8.1));
#1627 = LINE('',#1628,#1629);
#1628 = CARTESIAN_POINT('',(-11.,-5.,2.6));
#1629 = VECTOR('',#1630,1.);
#1630 = DIRECTION('',(0.,0.,1.));
#1631 = ORIENTED_EDGE('',*,*,#1286,.T.);
#1632 = ORIENTED_EDGE('',*,*,#1633,.T.);
#1633 = EDGE_CURVE('',#1289,#1634,#1636,.T.);
#1634 = VERTEX_POINT('',#1635);
#1635 = CARTESIAN_POINT('',(-5.,-11.,8.1));
#1636 = LINE('',#1637,#1638);
#1637 = CARTESIAN_POINT('',(-5.,-11.,2.6));
#1638 = VECTOR('',#1639,1.);
#1639 = DIRECTION('',(0.,0.,1.));
#1640 = ORIENTED_EDGE('',*,*,#1641,.F.);
#1641 = EDGE_CURVE('',#1625,#1634,#1642,.T.);
#1642 = CIRCLE('',#1643,6.);
#1643 = AXIS2_PLACEMENT_3D('',#1644,#1645,#1646);
#1644 = CARTESIAN_POINT('',(-5.,-5.,8.1));
#1645 = DIRECTION('',(-0.,0.,1.));
#1646 = DIRECTION('',(0.,-1.,0.));
#1647 = CYLINDRICAL_SURFACE('',#1648,6.);
#1648 = AXIS2_PLACEMENT_3D('',#1649,#1650,#1651);
#1649 = CARTESIAN_POINT('',(-5.,-5.,2.6));
#1650 = DIRECTION('',(0.,0.,1.));
#1651 = DIRECTION('',(-1.,0.,0.));
#1652 = ADVANCED_FACE('',(#1653),#1694,.T.);
#1653 = FACE_BOUND('',#1654,.T.);
#1654 = EDGE_LOOP('',(#1655,#1663,#1664,#1665,#1673,#1681,#1687,#1688));
#1655 = ORIENTED_EDGE('',*,*,#1656,.F.);
#1656 = EDGE_CURVE('',#1625,#1657,#1659,.T.);
#1657 = VERTEX_POINT('',#1658);
#1658 = CARTESIAN_POINT('',(-11.,5.,8.1));
#1659 = LINE('',#1660,#1661);
#1660 = CARTESIAN_POINT('',(-11.,-11.,8.1));
#1661 = VECTOR('',#1662,1.);
#1662 = DIRECTION('',(0.,1.,0.));
#1663 = ORIENTED_EDGE('',*,*,#1624,.F.);
#1664 = ORIENTED_EDGE('',*,*,#1297,.T.);
#1665 = ORIENTED_EDGE('',*,*,#1666,.F.);
#1666 = EDGE_CURVE('',#1667,#1298,#1669,.T.);
#1667 = VERTEX_POINT('',#1668);
#1668 = CARTESIAN_POINT('',(-11.,-4.,5.53));
#1669 = LINE('',#1670,#1671);
#1670 = CARTESIAN_POINT('',(-11.,-4.,5.53));
#1671 = VECTOR('',#1672,1.);
#1672 = DIRECTION('',(0.,0.,-1.));
#1673 = ORIENTED_EDGE('',*,*,#1674,.T.);
#1674 = EDGE_CURVE('',#1667,#1675,#1677,.T.);
#1675 = VERTEX_POINT('',#1676);
#1676 = CARTESIAN_POINT('',(-11.,4.,5.53));
#1677 = LINE('',#1678,#1679);
#1678 = CARTESIAN_POINT('',(-11.,-4.,5.53));
#1679 = VECTOR('',#1680,1.);
#1680 = DIRECTION('',(0.,1.,0.));
#1681 = ORIENTED_EDGE('',*,*,#1682,.T.);
#1682 = EDGE_CURVE('',#1675,#1322,#1683,.T.);
#1683 = LINE('',#1684,#1685);
#1684 = CARTESIAN_POINT('',(-11.,4.,5.53));
#1685 = VECTOR('',#1686,1.);
#1686 = DIRECTION('',(0.,0.,-1.));
#1687 = ORIENTED_EDGE('',*,*,#1329,.T.);
#1688 = ORIENTED_EDGE('',*,*,#1689,.T.);
#1689 = EDGE_CURVE('',#1330,#1657,#1690,.T.);
#1690 = LINE('',#1691,#1692);
#1691 = CARTESIAN_POINT('',(-11.,5.,2.6));
#1692 = VECTOR('',#1693,1.);
#1693 = DIRECTION('',(0.,0.,1.));
#1694 = PLANE('',#1695);
#1695 = AXIS2_PLACEMENT_3D('',#1696,#1697,#1698);
#1696 = CARTESIAN_POINT('',(-11.,-11.,2.6));
#1697 = DIRECTION('',(1.,0.,0.));
#1698 = DIRECTION('',(0.,0.,1.));
#1699 = ADVANCED_FACE('',(#1700),#1718,.T.);
#1700 = FACE_BOUND('',#1701,.T.);
#1701 = EDGE_LOOP('',(#1702,#1703,#1704,#1712));
#1702 = ORIENTED_EDGE('',*,*,#1412,.T.);
#1703 = ORIENTED_EDGE('',*,*,#1633,.T.);
#1704 = ORIENTED_EDGE('',*,*,#1705,.T.);
#1705 = EDGE_CURVE('',#1634,#1706,#1708,.T.);
#1706 = VERTEX_POINT('',#1707);
#1707 = CARTESIAN_POINT('',(5.,-11.,8.1));
#1708 = LINE('',#1709,#1710);
#1709 = CARTESIAN_POINT('',(-11.,-11.,8.1));
#1710 = VECTOR('',#1711,1.);
#1711 = DIRECTION('',(1.,0.,0.));
#1712 = ORIENTED_EDGE('',*,*,#1713,.F.);
#1713 = EDGE_CURVE('',#1404,#1706,#1714,.T.);
#1714 = LINE('',#1715,#1716);
#1715 = CARTESIAN_POINT('',(5.,-11.,2.6));
#1716 = VECTOR('',#1717,1.);
#1717 = DIRECTION('',(0.,0.,1.));
#1718 = PLANE('',#1719);
#1719 = AXIS2_PLACEMENT_3D('',#1720,#1721,#1722);
#1720 = CARTESIAN_POINT('',(-11.,-11.,2.6));
#1721 = DIRECTION('',(0.,1.,0.));
#1722 = DIRECTION('',(0.,0.,1.));
#1723 = ADVANCED_FACE('',(#1724),#1734,.T.);
#1724 = FACE_BOUND('',#1725,.T.);
#1725 = EDGE_LOOP('',(#1726,#1727,#1728));
#1726 = ORIENTED_EDGE('',*,*,#1666,.T.);
#1727 = ORIENTED_EDGE('',*,*,#1305,.T.);
#1728 = ORIENTED_EDGE('',*,*,#1729,.T.);
#1729 = EDGE_CURVE('',#1306,#1667,#1730,.T.);
#1730 = LINE('',#1731,#1732);
#1731 = CARTESIAN_POINT('',(-15.5,-4.,3.59));
#1732 = VECTOR('',#1733,1.);
#1733 = DIRECTION('',(0.918298505816,0.,0.395888689174));
#1734 = PLANE('',#1735);
#1735 = AXIS2_PLACEMENT_3D('',#1736,#1737,#1738);
#1736 = CARTESIAN_POINT('',(-12.86509183329,-4.,4.175091833293));
#1737 = DIRECTION('',(0.,1.,0.));
#1738 = DIRECTION('',(0.,0.,1.));
#1739 = ADVANCED_FACE('',(#1740),#1759,.F.);
#1740 = FACE_BOUND('',#1741,.T.);
#1741 = EDGE_LOOP('',(#1742,#1750,#1751,#1752));
#1742 = ORIENTED_EDGE('',*,*,#1743,.F.);
#1743 = EDGE_CURVE('',#1396,#1744,#1746,.T.);
#1744 = VERTEX_POINT('',#1745);
#1745 = CARTESIAN_POINT('',(11.,-5.,8.1));
#1746 = LINE('',#1747,#1748);
#1747 = CARTESIAN_POINT('',(11.,-5.,2.6));
#1748 = VECTOR('',#1749,1.);
#1749 = DIRECTION('',(0.,0.,1.));
#1750 = ORIENTED_EDGE('',*,*,#1403,.F.);
#1751 = ORIENTED_EDGE('',*,*,#1713,.T.);
#1752 = ORIENTED_EDGE('',*,*,#1753,.F.);
#1753 = EDGE_CURVE('',#1744,#1706,#1754,.T.);
#1754 = CIRCLE('',#1755,6.);
#1755 = AXIS2_PLACEMENT_3D('',#1756,#1757,#1758);
#1756 = CARTESIAN_POINT('',(5.,-5.,8.1));
#1757 = DIRECTION('',(-0.,-0.,-1.));
#1758 = DIRECTION('',(0.,-1.,0.));
#1759 = CYLINDRICAL_SURFACE('',#1760,6.);
#1760 = AXIS2_PLACEMENT_3D('',#1761,#1762,#1763);
#1761 = CARTESIAN_POINT('',(5.,-5.,2.6));
#1762 = DIRECTION('',(0.,0.,1.));
#1763 = DIRECTION('',(1.,0.,0.));
#1764 = ADVANCED_FACE('',(#1765),#1776,.T.);
#1765 = FACE_BOUND('',#1766,.T.);
#1766 = EDGE_LOOP('',(#1767,#1768,#1769,#1775));
#1767 = ORIENTED_EDGE('',*,*,#1729,.F.);
#1768 = ORIENTED_EDGE('',*,*,#1313,.T.);
#1769 = ORIENTED_EDGE('',*,*,#1770,.T.);
#1770 = EDGE_CURVE('',#1314,#1675,#1771,.T.);
#1771 = LINE('',#1772,#1773);
#1772 = CARTESIAN_POINT('',(-15.5,4.,3.59));
#1773 = VECTOR('',#1774,1.);
#1774 = DIRECTION('',(0.918298505816,0.,0.395888689174));
#1775 = ORIENTED_EDGE('',*,*,#1674,.F.);
#1776 = PLANE('',#1777);
#1777 = AXIS2_PLACEMENT_3D('',#1778,#1779,#1780);
#1778 = CARTESIAN_POINT('',(-15.5,-4.,3.59));
#1779 = DIRECTION('',(0.395888689174,0.,-0.918298505816));
#1780 = DIRECTION('',(0.918298505816,0.,0.395888689174));
#1781 = ADVANCED_FACE('',(#1782),#1823,.F.);
#1782 = FACE_BOUND('',#1783,.F.);
#1783 = EDGE_LOOP('',(#1784,#1792,#1793,#1794,#1802,#1810,#1816,#1817));
#1784 = ORIENTED_EDGE('',*,*,#1785,.F.);
#1785 = EDGE_CURVE('',#1744,#1786,#1788,.T.);
#1786 = VERTEX_POINT('',#1787);
#1787 = CARTESIAN_POINT('',(11.,5.,8.1));
#1788 = LINE('',#1789,#1790);
#1789 = CARTESIAN_POINT('',(11.,-11.,8.1));
#1790 = VECTOR('',#1791,1.);
#1791 = DIRECTION('',(0.,1.,0.));
#1792 = ORIENTED_EDGE('',*,*,#1743,.F.);
#1793 = ORIENTED_EDGE('',*,*,#1395,.T.);
#1794 = ORIENTED_EDGE('',*,*,#1795,.F.);
#1795 = EDGE_CURVE('',#1796,#1388,#1798,.T.);
#1796 = VERTEX_POINT('',#1797);
#1797 = CARTESIAN_POINT('',(11.,-4.,5.53));
#1798 = LINE('',#1799,#1800);
#1799 = CARTESIAN_POINT('',(11.,-4.,5.53));
#1800 = VECTOR('',#1801,1.);
#1801 = DIRECTION('',(0.,0.,-1.));
#1802 = ORIENTED_EDGE('',*,*,#1803,.T.);
#1803 = EDGE_CURVE('',#1796,#1804,#1806,.T.);
#1804 = VERTEX_POINT('',#1805);
#1805 = CARTESIAN_POINT('',(11.,4.,5.53));
#1806 = LINE('',#1807,#1808);
#1807 = CARTESIAN_POINT('',(11.,-4.,5.53));
#1808 = VECTOR('',#1809,1.);
#1809 = DIRECTION('',(0.,1.,0.));
#1810 = ORIENTED_EDGE('',*,*,#1811,.T.);
#1811 = EDGE_CURVE('',#1804,#1364,#1812,.T.);
#1812 = LINE('',#1813,#1814);
#1813 = CARTESIAN_POINT('',(11.,4.,5.53));
#1814 = VECTOR('',#1815,1.);
#1815 = DIRECTION('',(0.,0.,-1.));
#1816 = ORIENTED_EDGE('',*,*,#1363,.T.);
#1817 = ORIENTED_EDGE('',*,*,#1818,.T.);
#1818 = EDGE_CURVE('',#1355,#1786,#1819,.T.);
#1819 = LINE('',#1820,#1821);
#1820 = CARTESIAN_POINT('',(11.,5.,2.6));
#1821 = VECTOR('',#1822,1.);
#1822 = DIRECTION('',(0.,0.,1.));
#1823 = PLANE('',#1824);
#1824 = AXIS2_PLACEMENT_3D('',#1825,#1826,#1827);
#1825 = CARTESIAN_POINT('',(11.,-11.,2.6));
#1826 = DIRECTION('',(1.,0.,0.));
#1827 = DIRECTION('',(0.,0.,1.));
#1828 = ADVANCED_FACE('',(#1829),#1834,.F.);
#1829 = FACE_BOUND('',#1830,.F.);
#1830 = EDGE_LOOP('',(#1831,#1832,#1833));
#1831 = ORIENTED_EDGE('',*,*,#1682,.T.);
#1832 = ORIENTED_EDGE('',*,*,#1321,.T.);
#1833 = ORIENTED_EDGE('',*,*,#1770,.T.);
#1834 = PLANE('',#1835);
#1835 = AXIS2_PLACEMENT_3D('',#1836,#1837,#1838);
#1836 = CARTESIAN_POINT('',(-12.86509183329,4.,4.175091833293));
#1837 = DIRECTION('',(0.,1.,0.));
#1838 = DIRECTION('',(0.,0.,1.));
#1839 = ADVANCED_FACE('',(#1840),#1850,.F.);
#1840 = FACE_BOUND('',#1841,.F.);
#1841 = EDGE_LOOP('',(#1842,#1843,#1844));
#1842 = ORIENTED_EDGE('',*,*,#1795,.T.);
#1843 = ORIENTED_EDGE('',*,*,#1387,.T.);
#1844 = ORIENTED_EDGE('',*,*,#1845,.T.);
#1845 = EDGE_CURVE('',#1380,#1796,#1846,.T.);
#1846 = LINE('',#1847,#1848);
#1847 = CARTESIAN_POINT('',(15.5,-4.,3.59));
#1848 = VECTOR('',#1849,1.);
#1849 = DIRECTION('',(-0.918298505816,0.,0.395888689174));
#1850 = PLANE('',#1851);
#1851 = AXIS2_PLACEMENT_3D('',#1852,#1853,#1854);
#1852 = CARTESIAN_POINT('',(12.865091833293,-4.,4.175091833293));
#1853 = DIRECTION('',(-0.,-1.,-0.));
#1854 = DIRECTION('',(0.,0.,-1.));
#1855 = ADVANCED_FACE('',(#1856),#1867,.F.);
#1856 = FACE_BOUND('',#1857,.F.);
#1857 = EDGE_LOOP('',(#1858,#1859,#1860,#1866));
#1858 = ORIENTED_EDGE('',*,*,#1845,.F.);
#1859 = ORIENTED_EDGE('',*,*,#1379,.T.);
#1860 = ORIENTED_EDGE('',*,*,#1861,.T.);
#1861 = EDGE_CURVE('',#1372,#1804,#1862,.T.);
#1862 = LINE('',#1863,#1864);
#1863 = CARTESIAN_POINT('',(15.5,4.,3.59));
#1864 = VECTOR('',#1865,1.);
#1865 = DIRECTION('',(-0.918298505816,0.,0.395888689174));
#1866 = ORIENTED_EDGE('',*,*,#1803,.F.);
#1867 = PLANE('',#1868);
#1868 = AXIS2_PLACEMENT_3D('',#1869,#1870,#1871);
#1869 = CARTESIAN_POINT('',(15.5,-4.,3.59));
#1870 = DIRECTION('',(0.395888689174,0.,0.918298505816));
#1871 = DIRECTION('',(-0.918298505816,0.,0.395888689174));
#1872 = ADVANCED_FACE('',(#1873),#1892,.F.);
#1873 = FACE_BOUND('',#1874,.T.);
#1874 = EDGE_LOOP('',(#1875,#1876,#1877,#1885));
#1875 = ORIENTED_EDGE('',*,*,#1689,.F.);
#1876 = ORIENTED_EDGE('',*,*,#1337,.F.);
#1877 = ORIENTED_EDGE('',*,*,#1878,.T.);
#1878 = EDGE_CURVE('',#1338,#1879,#1881,.T.);
#1879 = VERTEX_POINT('',#1880);
#1880 = CARTESIAN_POINT('',(-5.,11.,8.1));
#1881 = LINE('',#1882,#1883);
#1882 = CARTESIAN_POINT('',(-5.,11.,2.6));
#1883 = VECTOR('',#1884,1.);
#1884 = DIRECTION('',(0.,0.,1.));
#1885 = ORIENTED_EDGE('',*,*,#1886,.F.);
#1886 = EDGE_CURVE('',#1657,#1879,#1887,.T.);
#1887 = CIRCLE('',#1888,6.);
#1888 = AXIS2_PLACEMENT_3D('',#1889,#1890,#1891);
#1889 = CARTESIAN_POINT('',(-5.,5.,8.1));
#1890 = DIRECTION('',(-0.,-0.,-1.));
#1891 = DIRECTION('',(0.,-1.,0.));
#1892 = CYLINDRICAL_SURFACE('',#1893,6.);
#1893 = AXIS2_PLACEMENT_3D('',#1894,#1895,#1896);
#1894 = CARTESIAN_POINT('',(-5.,5.,2.6));
#1895 = DIRECTION('',(0.,0.,1.));
#1896 = DIRECTION('',(-1.,0.,0.));
#1897 = ADVANCED_FACE('',(#1898),#1903,.T.);
#1898 = FACE_BOUND('',#1899,.T.);
#1899 = EDGE_LOOP('',(#1900,#1901,#1902));
#1900 = ORIENTED_EDGE('',*,*,#1811,.T.);
#1901 = ORIENTED_EDGE('',*,*,#1371,.T.);
#1902 = ORIENTED_EDGE('',*,*,#1861,.T.);
#1903 = PLANE('',#1904);
#1904 = AXIS2_PLACEMENT_3D('',#1905,#1906,#1907);
#1905 = CARTESIAN_POINT('',(12.865091833293,4.,4.175091833293));
#1906 = DIRECTION('',(-0.,-1.,-0.));
#1907 = DIRECTION('',(0.,0.,-1.));
#1908 = ADVANCED_FACE('',(#1909),#1927,.F.);
#1909 = FACE_BOUND('',#1910,.F.);
#1910 = EDGE_LOOP('',(#1911,#1912,#1913,#1921));
#1911 = ORIENTED_EDGE('',*,*,#1346,.T.);
#1912 = ORIENTED_EDGE('',*,*,#1878,.T.);
#1913 = ORIENTED_EDGE('',*,*,#1914,.T.);
#1914 = EDGE_CURVE('',#1879,#1915,#1917,.T.);
#1915 = VERTEX_POINT('',#1916);
#1916 = CARTESIAN_POINT('',(5.,11.,8.1));
#1917 = LINE('',#1918,#1919);
#1918 = CARTESIAN_POINT('',(-11.,11.,8.1));
#1919 = VECTOR('',#1920,1.);
#1920 = DIRECTION('',(1.,0.,0.));
#1921 = ORIENTED_EDGE('',*,*,#1922,.F.);
#1922 = EDGE_CURVE('',#1347,#1915,#1923,.T.);
#1923 = LINE('',#1924,#1925);
#1924 = CARTESIAN_POINT('',(5.,11.,2.6));
#1925 = VECTOR('',#1926,1.);
#1926 = DIRECTION('',(0.,0.,1.));
#1927 = PLANE('',#1928);
#1928 = AXIS2_PLACEMENT_3D('',#1929,#1930,#1931);
#1929 = CARTESIAN_POINT('',(-11.,11.,2.6));
#1930 = DIRECTION('',(0.,1.,0.));
#1931 = DIRECTION('',(0.,0.,1.));
#1932 = ADVANCED_FACE('',(#1933),#1945,.F.);
#1933 = FACE_BOUND('',#1934,.F.);
#1934 = EDGE_LOOP('',(#1935,#1936,#1937,#1938));
#1935 = ORIENTED_EDGE('',*,*,#1818,.F.);
#1936 = ORIENTED_EDGE('',*,*,#1354,.T.);
#1937 = ORIENTED_EDGE('',*,*,#1922,.T.);
#1938 = ORIENTED_EDGE('',*,*,#1939,.F.);
#1939 = EDGE_CURVE('',#1786,#1915,#1940,.T.);
#1940 = CIRCLE('',#1941,6.);
#1941 = AXIS2_PLACEMENT_3D('',#1942,#1943,#1944);
#1942 = CARTESIAN_POINT('',(5.,5.,8.1));
#1943 = DIRECTION('',(-0.,0.,1.));
#1944 = DIRECTION('',(0.,-1.,0.));
#1945 = CYLINDRICAL_SURFACE('',#1946,6.);
#1946 = AXIS2_PLACEMENT_3D('',#1947,#1948,#1949);
#1947 = CARTESIAN_POINT('',(5.,5.,2.6));
#1948 = DIRECTION('',(0.,0.,1.));
#1949 = DIRECTION('',(1.,0.,0.));
#1950 = ADVANCED_FACE('',(#1951),#1970,.T.);
#1951 = FACE_BOUND('',#1952,.T.);
#1952 = EDGE_LOOP('',(#1953,#1954,#1962,#1969));
#1953 = ORIENTED_EDGE('',*,*,#1420,.F.);
#1954 = ORIENTED_EDGE('',*,*,#1955,.F.);
#1955 = EDGE_CURVE('',#1956,#1421,#1958,.T.);
#1956 = VERTEX_POINT('',#1957);
#1957 = CARTESIAN_POINT('',(22.25,15.,0.2));
#1958 = LINE('',#1959,#1960);
#1959 = CARTESIAN_POINT('',(22.25,15.,0.2));
#1960 = VECTOR('',#1961,1.);
#1961 = DIRECTION('',(0.,0.,1.));
#1962 = ORIENTED_EDGE('',*,*,#1963,.T.);
#1963 = EDGE_CURVE('',#1956,#1956,#1964,.T.);
#1964 = CIRCLE('',#1965,4.75);
#1965 = AXIS2_PLACEMENT_3D('',#1966,#1967,#1968);
#1966 = CARTESIAN_POINT('',(17.5,15.,0.2));
#1967 = DIRECTION('',(0.,0.,1.));
#1968 = DIRECTION('',(1.,0.,0.));
#1969 = ORIENTED_EDGE('',*,*,#1955,.T.);
#1970 = CYLINDRICAL_SURFACE('',#1971,4.75);
#1971 = AXIS2_PLACEMENT_3D('',#1972,#1973,#1974);
#1972 = CARTESIAN_POINT('',(17.5,15.,0.2));
#1973 = DIRECTION('',(0.,0.,1.));
#1974 = DIRECTION('',(1.,0.,0.));
#1975 = ADVANCED_FACE('',(#1976),#1995,.F.);
#1976 = FACE_BOUND('',#1977,.F.);
#1977 = EDGE_LOOP('',(#1978,#1979,#1987,#1994));
#1978 = ORIENTED_EDGE('',*,*,#1447,.F.);
#1979 = ORIENTED_EDGE('',*,*,#1980,.F.);
#1980 = EDGE_CURVE('',#1981,#1448,#1983,.T.);
#1981 = VERTEX_POINT('',#1982);
#1982 = CARTESIAN_POINT('',(5.75,-1.408343819019E-15,8.1));
#1983 = LINE('',#1984,#1985);
#1984 = CARTESIAN_POINT('',(5.75,-1.408343819019E-15,3.6));
#1985 = VECTOR('',#1986,1.);
#1986 = DIRECTION('',(0.,0.,1.));
#1987 = ORIENTED_EDGE('',*,*,#1988,.T.);
#1988 = EDGE_CURVE('',#1981,#1981,#1989,.T.);
#1989 = CIRCLE('',#1990,5.75);
#1990 = AXIS2_PLACEMENT_3D('',#1991,#1992,#1993);
#1991 = CARTESIAN_POINT('',(0.,0.,8.1));
#1992 = DIRECTION('',(0.,0.,1.));
#1993 = DIRECTION('',(1.,0.,0.));
#1994 = ORIENTED_EDGE('',*,*,#1980,.T.);
#1995 = CYLINDRICAL_SURFACE('',#1996,5.75);
#1996 = AXIS2_PLACEMENT_3D('',#1997,#1998,#1999);
#1997 = CARTESIAN_POINT('',(0.,0.,3.6));
#1998 = DIRECTION('',(0.,0.,1.));
#1999 = DIRECTION('',(1.,0.,0.));
#2000 = ADVANCED_FACE('',(#2001),#2020,.F.);
#2001 = FACE_BOUND('',#2002,.F.);
#2002 = EDGE_LOOP('',(#2003,#2004,#2012,#2019));
#2003 = ORIENTED_EDGE('',*,*,#1467,.F.);
#2004 = ORIENTED_EDGE('',*,*,#2005,.F.);
#2005 = EDGE_CURVE('',#2006,#1468,#2008,.T.);
#2006 = VERTEX_POINT('',#2007);
#2007 = CARTESIAN_POINT('',(19.4,-15.,0.2));
#2008 = LINE('',#2009,#2010);
#2009 = CARTESIAN_POINT('',(19.4,-15.,-1.));
#2010 = VECTOR('',#2011,1.);
#2011 = DIRECTION('',(0.,0.,1.));
#2012 = ORIENTED_EDGE('',*,*,#2013,.T.);
#2013 = EDGE_CURVE('',#2006,#2006,#2014,.T.);
#2014 = CIRCLE('',#2015,1.9);
#2015 = AXIS2_PLACEMENT_3D('',#2016,#2017,#2018);
#2016 = CARTESIAN_POINT('',(17.5,-15.,0.2));
#2017 = DIRECTION('',(0.,0.,1.));
#2018 = DIRECTION('',(1.,0.,0.));
#2019 = ORIENTED_EDGE('',*,*,#2005,.T.);
#2020 = CYLINDRICAL_SURFACE('',#2021,1.9);
#2021 = AXIS2_PLACEMENT_3D('',#2022,#2023,#2024);
#2022 = CARTESIAN_POINT('',(17.5,-15.,-1.));
#2023 = DIRECTION('',(0.,0.,1.));
#2024 = DIRECTION('',(1.,0.,0.));
#2025 = ADVANCED_FACE('',(#2026),#2045,.F.);
#2026 = FACE_BOUND('',#2027,.F.);
#2027 = EDGE_LOOP('',(#2028,#2029,#2037,#2044));
#2028 = ORIENTED_EDGE('',*,*,#1487,.F.);
#2029 = ORIENTED_EDGE('',*,*,#2030,.F.);
#2030 = EDGE_CURVE('',#2031,#1488,#2033,.T.);
#2031 = VERTEX_POINT('',#2032);
#2032 = CARTESIAN_POINT('',(-15.6,15.,0.2));
#2033 = LINE('',#2034,#2035);
#2034 = CARTESIAN_POINT('',(-15.6,15.,-1.));
#2035 = VECTOR('',#2036,1.);
#2036 = DIRECTION('',(0.,0.,1.));
#2037 = ORIENTED_EDGE('',*,*,#2038,.T.);
#2038 = EDGE_CURVE('',#2031,#2031,#2039,.T.);
#2039 = CIRCLE('',#2040,1.9);
#2040 = AXIS2_PLACEMENT_3D('',#2041,#2042,#2043);
#2041 = CARTESIAN_POINT('',(-17.5,15.,0.2));
#2042 = DIRECTION('',(0.,0.,1.));
#2043 = DIRECTION('',(1.,0.,0.));
#2044 = ORIENTED_EDGE('',*,*,#2030,.T.);
#2045 = CYLINDRICAL_SURFACE('',#2046,1.9);
#2046 = AXIS2_PLACEMENT_3D('',#2047,#2048,#2049);
#2047 = CARTESIAN_POINT('',(-17.5,15.,-1.));
#2048 = DIRECTION('',(0.,0.,1.));
#2049 = DIRECTION('',(1.,0.,0.));
#2050 = ADVANCED_FACE('',(#2051),#2070,.F.);
#2051 = FACE_BOUND('',#2052,.F.);
#2052 = EDGE_LOOP('',(#2053,#2054,#2062,#2069));
#2053 = ORIENTED_EDGE('',*,*,#1507,.F.);
#2054 = ORIENTED_EDGE('',*,*,#2055,.F.);
#2055 = EDGE_CURVE('',#2056,#1508,#2058,.T.);
#2056 = VERTEX_POINT('',#2057);
#2057 = CARTESIAN_POINT('',(19.4,15.,0.2));
#2058 = LINE('',#2059,#2060);
#2059 = CARTESIAN_POINT('',(19.4,15.,-1.));
#2060 = VECTOR('',#2061,1.);
#2061 = DIRECTION('',(0.,0.,1.));
#2062 = ORIENTED_EDGE('',*,*,#2063,.T.);
#2063 = EDGE_CURVE('',#2056,#2056,#2064,.T.);
#2064 = CIRCLE('',#2065,1.9);
#2065 = AXIS2_PLACEMENT_3D('',#2066,#2067,#2068);
#2066 = CARTESIAN_POINT('',(17.5,15.,0.2));
#2067 = DIRECTION('',(0.,0.,1.));
#2068 = DIRECTION('',(1.,0.,0.));
#2069 = ORIENTED_EDGE('',*,*,#2055,.T.);
#2070 = CYLINDRICAL_SURFACE('',#2071,1.9);
#2071 = AXIS2_PLACEMENT_3D('',#2072,#2073,#2074);
#2072 = CARTESIAN_POINT('',(17.5,15.,-1.));
#2073 = DIRECTION('',(0.,0.,1.));
#2074 = DIRECTION('',(1.,0.,0.));
#2075 = ADVANCED_FACE('',(#2076,#2079),#2082,.F.);
#2076 = FACE_BOUND('',#2077,.F.);
#2077 = EDGE_LOOP('',(#2078));
#2078 = ORIENTED_EDGE('',*,*,#1558,.T.);
#2079 = FACE_BOUND('',#2080,.F.);
#2080 = EDGE_LOOP('',(#2081));
#2081 = ORIENTED_EDGE('',*,*,#1533,.F.);
#2082 = PLANE('',#2083);
#2083 = AXIS2_PLACEMENT_3D('',#2084,#2085,#2086);
#2084 = CARTESIAN_POINT('',(-17.5,-15.,0.2));
#2085 = DIRECTION('',(0.,0.,1.));
#2086 = DIRECTION('',(1.,0.,0.));
#2087 = ADVANCED_FACE('',(#2088,#2091),#2094,.F.);
#2088 = FACE_BOUND('',#2089,.F.);
#2089 = EDGE_LOOP('',(#2090));
#2090 = ORIENTED_EDGE('',*,*,#1583,.T.);
#2091 = FACE_BOUND('',#2092,.F.);
#2092 = EDGE_LOOP('',(#2093));
#2093 = ORIENTED_EDGE('',*,*,#2013,.F.);
#2094 = PLANE('',#2095);
#2095 = AXIS2_PLACEMENT_3D('',#2096,#2097,#2098);
#2096 = CARTESIAN_POINT('',(17.5,-15.,0.2));
#2097 = DIRECTION('',(0.,0.,1.));
#2098 = DIRECTION('',(1.,0.,0.));
#2099 = ADVANCED_FACE('',(#2100,#2103),#2106,.F.);
#2100 = FACE_BOUND('',#2101,.F.);
#2101 = EDGE_LOOP('',(#2102));
#2102 = ORIENTED_EDGE('',*,*,#1608,.T.);
#2103 = FACE_BOUND('',#2104,.F.);
#2104 = EDGE_LOOP('',(#2105));
#2105 = ORIENTED_EDGE('',*,*,#2038,.F.);
#2106 = PLANE('',#2107);
#2107 = AXIS2_PLACEMENT_3D('',#2108,#2109,#2110);
#2108 = CARTESIAN_POINT('',(-17.5,15.,0.2));
#2109 = DIRECTION('',(0.,0.,1.));
#2110 = DIRECTION('',(1.,0.,0.));
#2111 = ADVANCED_FACE('',(#2112,#2122),#2125,.F.);
#2112 = FACE_BOUND('',#2113,.F.);
#2113 = EDGE_LOOP('',(#2114,#2115,#2116,#2117,#2118,#2119,#2120,#2121));
#2114 = ORIENTED_EDGE('',*,*,#1656,.F.);
#2115 = ORIENTED_EDGE('',*,*,#1641,.T.);
#2116 = ORIENTED_EDGE('',*,*,#1705,.T.);
#2117 = ORIENTED_EDGE('',*,*,#1753,.F.);
#2118 = ORIENTED_EDGE('',*,*,#1785,.T.);
#2119 = ORIENTED_EDGE('',*,*,#1939,.T.);
#2120 = ORIENTED_EDGE('',*,*,#1914,.F.);
#2121 = ORIENTED_EDGE('',*,*,#1886,.F.);
#2122 = FACE_BOUND('',#2123,.F.);
#2123 = EDGE_LOOP('',(#2124));
#2124 = ORIENTED_EDGE('',*,*,#1988,.F.);
#2125 = PLANE('',#2126);
#2126 = AXIS2_PLACEMENT_3D('',#2127,#2128,#2129);
#2127 = CARTESIAN_POINT('',(-11.,-11.,8.1));
#2128 = DIRECTION('',(0.,0.,1.));
#2129 = DIRECTION('',(1.,0.,0.));
#2130 = ADVANCED_FACE('',(#2131,#2134),#2137,.F.);
#2131 = FACE_BOUND('',#2132,.F.);
#2132 = EDGE_LOOP('',(#2133));
#2133 = ORIENTED_EDGE('',*,*,#1963,.T.);
#2134 = FACE_BOUND('',#2135,.F.);
#2135 = EDGE_LOOP('',(#2136));
#2136 = ORIENTED_EDGE('',*,*,#2063,.F.);
#2137 = PLANE('',#2138);
#2138 = AXIS2_PLACEMENT_3D('',#2139,#2140,#2141);
#2139 = CARTESIAN_POINT('',(17.5,15.,0.2));
#2140 = DIRECTION('',(0.,0.,1.));
#2141 = DIRECTION('',(1.,0.,0.));
#2142 = ( GEOMETRIC_REPRESENTATION_CONTEXT(3) 
GLOBAL_UNCERTAINTY_ASSIGNED_CONTEXT((#2146)) 
GLOBAL_UNIT_ASSIGNED_CONTEXT((#2143,#2144,#2145)) REPRESENTATION_CONTEXT
('Context #1','3D Context with UNIT and UNCERTAINTY') );
#2143 = ( LENGTH_UNIT() NAMED_UNIT(*) SI_UNIT(.MILLI.,.METRE.) );
#2144 = ( NAMED_UNIT(*) PLANE_ANGLE_UNIT() SI_UNIT($,.RADIAN.) );
#2145 = ( NAMED_UNIT(*) SI_UNIT($,.STERADIAN.) SOLID_ANGLE_UNIT() );
#2146 = UNCERTAINTY_MEASURE_WITH_UNIT(LENGTH_MEASURE(1.E-07),#2143,
  'distance_accuracy_value','confusion accuracy');
#2147 = PRODUCT_RELATED_PRODUCT_CATEGORY('part',$,(#7));
ENDSEC;
END-ISO-10303-21;
